<?xml version="1.0" standalone="no"?>
<!DOCTYPE svg PUBLIC "-//W3C//DTD SVG 1.1//EN" "http://www.w3.org/Graphics/SVG/1.1/DTD/svg11.dtd" >
<svg xmlns="http://www.w3.org/2000/svg" xmlns:xlink="http://www.w3.org/1999/xlink" version="1.1">
<metadata>
Created by FontForge 20170731 at Wed Jun 12 20:21:43 2013
 By ,,,
(c) 2007-2009 Typodermic fonts.  All rights reserved.
</metadata>
<defs>
<font id="Superclarendon-Light" horiz-adv-x="0" >
  <font-face 
    font-family="Superclarendon"
    font-weight="300"
    font-stretch="normal"
    units-per-em="1000"
    panose-1="2 6 3 5 6 0 0 2 0 3"
    ascent="775"
    descent="-225"
    x-height="509"
    cap-height="743"
    bbox="-868 -472 1440 1025"
    underline-thickness="50"
    underline-position="-200"
    unicode-range="U+0017-FB02"
  />
<missing-glyph horiz-adv-x="437" 
d="M401 0h-364v743h364v-743zM95 692v-637h253v637h-253z" />
    <glyph glyph-name="copyright" unicode="&#x28;C&#x29;" horiz-adv-x="923" 
d="M871 368q0 -79 -29.5 -148.5t-83 -122t-127.5 -83t-163 -30.5q-93 0 -168 30.5t-128.5 83t-82.5 122t-29 148.5q0 83 32 154.5t87.5 124t130 82.5t158.5 30t157.5 -29.5t128 -81.5t86 -123.5t31.5 -156.5zM469 707q-76 0 -139 -26t-108 -72t-70 -107.5t-25 -133.5
q0 -79 29 -141t77 -105.5t109.5 -66.5t126.5 -23q84 0 147 30.5t105.5 79t63.5 108t21 118.5q0 79 -28.5 142t-75.5 107t-108 67t-125 23zM627 316q-4 -26 -14.5 -50t-29 -42.5t-46 -30t-65.5 -11.5q-39 0 -71.5 11.5t-56 34.5t-37 57.5t-13.5 81.5q0 49 14 86t39 61.5
t59 36.5t73 12q31 0 57.5 -9t46 -23.5t30 -31.5t10.5 -33q0 -19 -11.5 -31t-31.5 -12t-31 11.5t-11 28.5q0 10 5 19.5t13 14.5q-13 11 -32 18.5t-41 7.5q-117 0 -117 -147q0 -41 9.5 -70t25 -47.5t36 -27t42.5 -8.5q40 0 71.5 23t40.5 78z" />
    <glyph glyph-name="registered" unicode="&#x28;R&#x29;" horiz-adv-x="703" 
d="M666 460q0 -62 -22.5 -115.5t-63.5 -93.5t-99 -63t-128 -23q-72 0 -130.5 23t-99.5 63t-63.5 93.5t-22.5 115.5q0 63 24.5 118t67.5 95t100.5 63t123.5 23t123 -22.5t99.5 -62t66.5 -94.5t24 -120zM603 460q0 58 -21 104t-56 77.5t-80 48.5t-93 17q-56 0 -102.5 -19
t-80 -52.5t-52 -78.5t-18.5 -97q0 -59 21.5 -105t57 -78t81 -48.5t93.5 -16.5q63 0 110 22t78 57.5t46.5 80t15.5 88.5zM522 376q0 -56 -58 -56q-64 0 -64 54v35q0 46 -59 46h-39v-83q0 -27 64 -27v-20h-176v20q52 0 52 27v198q0 26 -52 26v22h151q135 0 135 -80
q0 -67 -81 -71q65 -6 65 -58v-38q0 -25 18 -25q19 0 19 25v16h25v-11zM302 583v-98h43q69 0 69 46q0 52 -69 52h-43z" />
    <glyph glyph-name="uni2117" unicode="&#x28;P&#x29;" horiz-adv-x="923" 
d="M871 368q0 -79 -29.5 -148.5t-83 -122t-127.5 -83t-163 -30.5q-93 0 -168 30.5t-128.5 83t-82.5 122t-29 148.5q0 83 32 154.5t87.5 124t130 82.5t158.5 30t157.5 -29.5t128 -81.5t86 -123.5t31.5 -156.5zM469 707q-76 0 -139 -26t-108 -72t-70 -107.5t-25 -133.5
q0 -79 29 -141t77 -105.5t109.5 -66.5t126.5 -23q84 0 147 30.5t105.5 79t63.5 108t21 118.5q0 79 -28.5 142t-75.5 107t-108 67t-125 23zM454 582q43 0 79.5 -4.5t63.5 -18.5t42.5 -40.5t15.5 -70.5q0 -45 -15.5 -71.5t-42.5 -40.5t-63.5 -18.5t-79.5 -4.5h-45v-101
q0 -31 76 -31v-24h-206v24q60 0 60 31v314q0 32 -60 32v24h175zM409 541v-187h53q60 0 88.5 21.5t28.5 72.5t-28.5 72t-88.5 21h-53z" />
    <glyph glyph-name=".notdef" horiz-adv-x="437" 
d="M401 0h-364v743h364v-743zM95 692v-637h253v637h-253z" />
    <glyph glyph-name=".null" 
 />
    <glyph glyph-name="nonmarkingreturn" horiz-adv-x="333" 
 />
    <glyph glyph-name="uni0017" horiz-adv-x="345" 
 />
    <glyph glyph-name="space" unicode=" " horiz-adv-x="345" 
 />
    <glyph glyph-name="exclam" unicode="!" horiz-adv-x="326" 
d="M142 210q-5 109 -10.5 188.5t-10.5 135t-8 90.5t-3 55q0 45 15 59t38 14q21 0 36 -14t15 -56q0 -21 -3 -56.5t-7.5 -91.5t-11 -135.5t-13.5 -188.5h-37zM228 59q0 -28 -19.5 -47.5t-47.5 -19.5t-47.5 19.5t-19.5 47.5t19.5 47.5t47.5 19.5t47.5 -19.5t19.5 -47.5z" />
    <glyph glyph-name="quotedbl" unicode="&#x22;" horiz-adv-x="350" 
d="M242 431q-5 67 -10.5 116.5t-10.5 84t-8.5 56t-3.5 34.5q0 29 15 37t38 8q21 0 36 -8.5t15 -34.5q0 -14 -2.5 -36t-7 -56.5t-11 -84t-13.5 -116.5h-37zM69 431q-5 67 -10.5 116.5t-10.5 84t-8 56t-3 34.5q0 29 15 37t38 8q21 0 35.5 -8.5t14.5 -34.5q0 -14 -2.5 -36
t-7 -56.5t-11 -84t-13.5 -116.5h-37z" />
    <glyph glyph-name="numbersign" unicode="#" horiz-adv-x="548" 
d="M423 469h82v-54h-91l-32 -176h90v-55h-100l-33 -184h-55l33 184h-125l-33 -184h-55l33 184h-90v55h100l32 176h-99v54h109l35 197h54l-35 -197h126l35 197h54zM234 415l-32 -176h125l32 176h-125z" />
    <glyph glyph-name="dollar" unicode="$" horiz-adv-x="520" 
d="M453 435l-35 -7q-17 131 -136 154v-164q34 -7 68.5 -16t61.5 -25t44 -42t17 -68q0 -67 -47 -104t-144 -37v-126h-33v128q-32 4 -59.5 14t-49.5 28q-7 5 -15 10t-15 5q-11 0 -15 -19l-7 -34h-34v194l34 6q9 -67 53.5 -111t107.5 -55v172q-35 7 -69.5 16t-62 25.5
t-44.5 43.5t-17 70q0 63 45.5 98t130.5 35h8t9 -1v118h33v-123q25 -5 47.5 -14t38.5 -21q8 -6 16 -11t16 -5q10 0 13 14l5 34h35v-182zM282 163q66 0 92.5 22.5t26.5 57.5q0 21 -9.5 35.5t-25.5 24.5t-38 16.5t-46 11.5v-168zM249 585q-3 1 -15 1q-43 0 -74 -17t-31 -55
q0 -21 9.5 -36t26 -25t38 -16.5t46.5 -11.5v160z" />
    <glyph glyph-name="percent" unicode="%" horiz-adv-x="797" 
d="M230 0h-71l415 682h75zM225 682q33 0 61.5 -8.5t50.5 -28t34.5 -51t12.5 -76.5q0 -75 -42 -120.5t-123 -45.5q-32 0 -60.5 8t-50 27t-34.5 49t-13 74q0 78 40 125t124 47zM226 650q-51 0 -75 -33.5t-24 -87.5q0 -43 6.5 -71t18.5 -44.5t29 -23t38 -6.5q27 0 45.5 10
t30.5 27.5t17 41t5 51.5q0 40 -7 66.5t-19 42t-29 21.5t-36 6zM583 330q33 0 61.5 -8.5t50.5 -28t34.5 -51t12.5 -76.5q0 -75 -42 -120.5t-123 -45.5q-32 0 -60.5 8t-50 27t-34.5 49t-13 74q0 78 40 125t124 47zM584 298q-51 0 -75 -33.5t-24 -87.5q0 -43 6.5 -71
t18.5 -44.5t29 -23t38 -6.5q27 0 45.5 10t30.5 27.5t17 41t5 51.5q0 40 -7 66.5t-19 42t-29 21.5t-36 6z" />
    <glyph glyph-name="ampersand" unicode="&#x26;" horiz-adv-x="907" 
d="M832 408q-89 0 -89 -46q0 -34 -9.5 -70.5t-27 -72t-43.5 -69t-59 -62.5q27 -20 53 -31.5t51 -11.5q37 0 58.5 22t21.5 70v62h43v-62q0 -75 -34 -114t-106 -39q-38 0 -76 15t-76 41q-45 -26 -94 -41t-106 -15q-59 0 -109.5 13t-88 39t-58.5 66.5t-21 94.5q0 51 16 88
t42 64t60.5 45.5t70.5 33.5q-17 45 -27 84t-10 70q0 33 10.5 64.5t32 56.5t55 40.5t78.5 15.5q69 0 113 -39t44 -111q0 -41 -15.5 -71t-41 -53t-58.5 -41t-67 -34q35 -73 84.5 -147t102.5 -129q48 43 78 101t30 127q0 46 -90 46v35h262v-35zM279 366q-46 -26 -78 -62.5
t-32 -92.5q0 -37 12 -67.5t34.5 -52.5t54 -34t69.5 -12q74 0 144 40q-61 57 -114 131.5t-90 149.5zM341 465q27 12 50.5 25.5t41 31.5t27.5 41t10 53q0 48 -21 66t-59 18q-22 0 -37.5 -9.5t-26 -24t-15.5 -33t-5 -36.5q0 -48 35 -132z" />
    <glyph glyph-name="quotesingle" unicode="'" horiz-adv-x="177" 
d="M69 431q-5 67 -10.5 116.5t-10.5 84t-8 56t-3 34.5q0 29 15 37t38 8q21 0 35.5 -8.5t14.5 -34.5q0 -14 -2.5 -36t-7 -56.5t-11 -84t-13.5 -116.5h-37z" />
    <glyph glyph-name="parenleft" unicode="(" horiz-adv-x="349" 
d="M312 777q-51 -23 -86.5 -68.5t-58 -106t-33 -133t-10.5 -148.5t10.5 -150.5t33.5 -138.5t58.5 -114t85.5 -77l-29 -46q-62 37 -108 84.5t-76.5 111t-46 145t-15.5 185.5q0 106 15.5 185.5t47 139t77.5 102t108 74.5z" />
    <glyph glyph-name="parenright" unicode=")" horiz-adv-x="349" 
d="M64 822q61 -32 107.5 -75t77.5 -102t47 -138.5t16 -185.5q0 -105 -15.5 -186t-46.5 -144.5t-77 -111t-107 -84.5l-29 46q49 27 85 77t58.5 114t33.5 138t11 151q0 76 -10.5 148.5t-33 133t-58 106t-86.5 68.5z" />
    <glyph glyph-name="asterisk" unicode="*" horiz-adv-x="621" 
d="M459 553q74 0 74 -42q0 -13 -10.5 -24t-30.5 -11q-17 0 -36.5 8.5t-39.5 18.5t-38.5 18.5t-32.5 8.5q-7 0 -7 -9q0 -11 13.5 -27.5t30 -35.5t30.5 -37.5t14 -31.5q0 -16 -11.5 -26.5t-25.5 -10.5q-18 0 -29.5 11.5t-18.5 29.5t-11.5 38t-8 38t-7.5 29.5t-11 11.5
q-11 0 -17 -24.5t-13.5 -54.5t-19.5 -54.5t-36 -24.5q-17 0 -27.5 10.5t-10.5 27.5q0 15 14 35.5t31.5 39.5t31.5 34.5t14 21.5q0 9 -12 9t-29.5 -8.5t-37.5 -18t-40.5 -18t-38.5 -8.5q-20 0 -30.5 11t-10.5 25q0 42 82 42h79q26 0 26 9q0 12 -23 22.5t-51 22.5t-51 26.5
t-23 32.5q0 15 11 25t27 10q19 0 39 -17.5t37 -39t31.5 -39t23.5 -17.5t9 15q0 33 -11 64t-11 61q0 21 11 31.5t27 10.5q13 0 26.5 -10.5t13.5 -31.5q0 -15 -4.5 -30t-9.5 -31t-9.5 -32t-4.5 -34q0 -13 10 -13q12 0 27.5 17.5t33 39t35.5 39t36 17.5q16 0 27.5 -11t11.5 -25
q0 -12 -11 -23t-27.5 -20.5t-36 -18t-36 -16t-27.5 -14t-11 -12.5q1 -5 15 -7.5t33 -2.5h63z" />
    <glyph glyph-name="plus" unicode="+" horiz-adv-x="567" 
d="M530 325h-215v-199h-65v199h-213v60h213v198h65v-198h215v-60z" />
    <glyph glyph-name="comma" unicode="," horiz-adv-x="324" 
d="M80 -122q33 19 50.5 34.5t25.5 28.5t9.5 23.5t1.5 18.5q0 15 -14 15q-63 0 -63 52q0 66 68 66q86 0 86 -96q0 -57 -37.5 -98.5t-106.5 -75.5z" />
    <glyph glyph-name="hyphen" unicode="-" horiz-adv-x="336" 
d="M308 254h-281v65h281v-65z" />
    <glyph glyph-name="period" unicode="." horiz-adv-x="304" 
d="M218 59q0 -28 -19.5 -47.5t-47.5 -19.5t-47.5 19.5t-19.5 47.5t19.5 47.5t47.5 19.5t47.5 -19.5t19.5 -47.5z" />
    <glyph glyph-name="slash" unicode="/" horiz-adv-x="405" 
d="M83 -30h-57l294 774h56z" />
    <glyph glyph-name="zero" unicode="0" horiz-adv-x="678" 
d="M339 682q73 0 126.5 -18.5t88.5 -60.5t52 -110t17 -167q0 -95 -17 -160t-52 -105.5t-88.5 -58.5t-126.5 -18t-126.5 18t-88.5 58.5t-52 105.5t-17 160q0 99 17 167t52 110t88.5 60.5t126.5 18.5zM339 637q-55 0 -90.5 -24t-56 -65.5t-28.5 -98t-8 -122.5q0 -78 8 -134
t28.5 -92t56 -53t90.5 -17t90.5 17t56 53t28.5 92t8 134q0 66 -8 122.5t-28.5 98t-56 65.5t-90.5 24z" />
    <glyph glyph-name="one" unicode="1" horiz-adv-x="448" 
d="M294 675q-3 -27 -4.5 -46t-1.5 -36v-516q0 -43 106 -43v-34h-326v34q124 0 124 43v460h-133l-4 30q140 3 193 119z" />
    <glyph glyph-name="two" unicode="2" horiz-adv-x="631" 
d="M574 169q2 -13 2.5 -25t0.5 -23q0 -27 -5 -51t-18 -42t-35.5 -28.5t-56.5 -10.5q-41 0 -67.5 12t-53 26t-59 26t-84.5 12q-42 0 -68.5 -17.5t-49.5 -47.5h-25q16 82 51.5 133.5t80 86t91.5 59t86 51.5t64 64t25 97q0 28 -8.5 54t-26.5 46t-47 32t-71 12q-33 0 -56 -6.5
t-40 -16t-28 -21.5t-20 -24q21 -2 37 -17t16 -38q0 -27 -17 -45.5t-48 -18.5q-29 0 -45.5 19t-16.5 49q0 25 12 54t37.5 54t66.5 41.5t99 16.5q51 0 98 -11.5t83 -37t57 -66.5t21 -99q0 -59 -28 -100t-71 -70.5t-94.5 -52t-98 -45t-81.5 -49.5t-46 -65q39 34 73 42.5t64 8.5
q32 0 57 -9.5t47 -21.5t43 -21.5t44 -9.5q10 0 21 3t21.5 13t19 28.5t13.5 49.5h34z" />
    <glyph glyph-name="three" unicode="3" horiz-adv-x="629" 
d="M262 382q37 2 70 11t58.5 26t40.5 42t15 59q0 22 -8 43t-25.5 37t-45.5 25.5t-68 9.5q-42 0 -80 -15t-61 -53q22 -2 38 -17t16 -38q0 -27 -17 -45.5t-48 -18.5q-29 0 -45.5 19t-16.5 49q0 25 11 54t37.5 54t69.5 41.5t107 16.5q49 0 92.5 -10t75.5 -30.5t51 -51.5t19 -74
q0 -58 -41 -94.5t-132 -54.5q97 -15 148 -62t51 -119q0 -53 -21 -91t-58.5 -62.5t-90.5 -36.5t-116 -12q-56 0 -100 15t-75 38t-47 50.5t-16 52.5q0 30 16 49t47 19q30 0 47 -18.5t17 -45.5q0 -18 -12.5 -33.5t-29.5 -17.5q13 -27 59 -44.5t106 -17.5q85 0 128 38t43 110
q0 81 -53 121t-162 48z" />
    <glyph glyph-name="four" unicode="4" horiz-adv-x="650" 
d="M511 265h91l-12 -72h-79v-114q0 -45 91 -45v-34h-308v34q123 0 123 45v114h-372v44l379 445h87v-417zM137 265h280v330z" />
    <glyph glyph-name="five" unicode="5" horiz-adv-x="640" 
d="M547 666q-78 -88 -206 -88q-14 0 -35.5 1t-46 4t-49 8t-43.5 13l-16 -166q49 24 94 31.5t88 7.5q76 0 124.5 -23.5t77 -59t39.5 -77.5t11 -79q0 -66 -22 -113.5t-61.5 -79t-94 -46.5t-119.5 -15q-56 0 -100 15t-75 38t-47 50.5t-16 52.5q0 30 16 49t47 19q30 0 47 -18.5
t17 -45.5q0 -18 -12.5 -33.5t-29.5 -17.5q13 -27 59 -44.5t106 -17.5q89 0 135.5 46.5t46.5 151.5q0 36 -11 70t-32.5 60.5t-54.5 42.5t-77 16q-95 0 -185 -41l-35 22l26 283q26 -4 58 -7t66 -5t67 -3t61 -1q92 0 181 23z" />
    <glyph glyph-name="six" unicode="6" horiz-adv-x="627" 
d="M149 345q30 42 78 64t123 22q54 0 95.5 -16.5t69.5 -44.5t42 -65.5t14 -78.5q0 -43 -10 -86t-38 -77.5t-79.5 -56.5t-133.5 -22q-64 0 -111.5 19.5t-79.5 62t-48 110.5t-16 166q0 67 14 128.5t47 108.5t86.5 75t132.5 28q56 0 98 -15t70 -38t42 -50.5t14 -52.5
q0 -30 -16 -49t-47 -19q-30 0 -47 18.5t-17 45.5q0 18 12.5 33.5t29.5 17.5q-13 27 -52 44.5t-99 17.5q-42 0 -74 -14.5t-54.5 -48.5t-34 -89.5t-11.5 -137.5zM315 384q-32 0 -60.5 -11t-50 -32.5t-34 -54.5t-12.5 -77t12.5 -77.5t34 -56t50 -34t60.5 -11.5q31 0 60.5 11.5
t52 34t36 56t13.5 78.5t-13.5 77.5t-36 54t-52 32t-60.5 10.5z" />
    <glyph glyph-name="seven" unicode="7" horiz-adv-x="571" 
d="M546 644q-69 -75 -114.5 -132.5t-73.5 -110.5t-39.5 -108t-11.5 -124q0 -26 4.5 -54t4.5 -54q0 -32 -13 -53t-44 -21q-30 0 -47 34t-17 91q0 68 17.5 130.5t48 119.5t73 108.5t92.5 97.5q-21 -12 -42.5 -16t-35.5 -4q-32 0 -57 9.5t-47 21.5t-43 21.5t-44 9.5
q-10 0 -21 -3t-21.5 -13t-19 -28.5t-13.5 -49.5h-34q-2 13 -2.5 25t-0.5 23q0 27 5 51t18 42t35 28.5t57 10.5q27 0 47.5 -5.5t38.5 -14t35 -18.5t37.5 -18.5t45.5 -14t60 -5.5q32 0 55 15t43 47z" />
    <glyph glyph-name="eight" unicode="8" horiz-adv-x="664" 
d="M420 370q94 -17 141.5 -69t47.5 -121q0 -50 -21 -87t-57.5 -61t-87 -36t-110.5 -12t-111 11.5t-88 35.5t-58 60t-21 84q0 30 11 59t33.5 53t56.5 42t79 26q-30 9 -57.5 24t-48.5 35.5t-33.5 46t-12.5 55.5q0 43 19 74t52 51.5t78.5 30.5t99.5 10t99.5 -10t78.5 -30.5
t52 -51.5t19 -74q0 -26 -12 -49t-33.5 -42t-51 -33t-64.5 -22zM286 332q-35 -10 -59.5 -23.5t-39.5 -33t-22 -46t-7 -62.5q0 -63 43.5 -99.5t131.5 -36.5q173 0 173 136q0 47 -22.5 75t-55.5 44.5t-71.5 26t-70.5 19.5zM358 390q30 8 52.5 17.5t37.5 23.5t22.5 35t7.5 51
q0 22 -7 43.5t-24 38t-45 26.5t-70 10t-70 -9t-45 -24.5t-24 -37.5t-7 -47t14 -44.5t38 -35t55 -27t65 -20.5z" />
    <glyph glyph-name="nine" unicode="9" horiz-adv-x="627" 
d="M477 321q-30 -42 -78 -64t-123 -22q-54 0 -95.5 16.5t-69.5 44.5t-42 65.5t-14 78.5q0 43 10 86t38 77.5t79 56.5t134 22q64 0 111.5 -19.5t79.5 -62t48 -111t16 -165.5q0 -67 -14 -128.5t-47 -108.5t-86.5 -75t-132.5 -28q-56 0 -98.5 15t-71.5 38t-43.5 50.5
t-14.5 52.5q0 30 16 49t47 19q30 0 47 -18.5t17 -45.5q0 -18 -12.5 -33.5t-29.5 -17.5q13 -27 54 -44.5t101 -17.5q42 0 74 14.5t54.5 48.5t34 89.5t11.5 137.5zM311 636q-32 0 -61 -11.5t-51.5 -34t-36 -56t-13.5 -78.5t13.5 -77.5t36 -54t51.5 -32t61 -10.5t60.5 11
t50 32.5t34 54.5t12.5 77t-12.5 77.5t-34 56t-50 34t-60.5 11.5z" />
    <glyph glyph-name="colon" unicode=":" horiz-adv-x="304" 
d="M218 59q0 -28 -19.5 -47.5t-47.5 -19.5t-47.5 19.5t-19.5 47.5t19.5 47.5t47.5 19.5t47.5 -19.5t19.5 -47.5zM218 397q0 -28 -19.5 -47.5t-47.5 -19.5t-47.5 19.5t-19.5 47.5t19.5 47.5t47.5 19.5t47.5 -19.5t19.5 -47.5z" />
    <glyph glyph-name="semicolon" unicode=";" horiz-adv-x="324" 
d="M80 -122q33 19 50.5 34.5t25.5 28.5t9.5 23.5t1.5 18.5q0 15 -14 15q-63 0 -63 52q0 66 68 66q86 0 86 -96q0 -57 -37.5 -98.5t-106.5 -75.5zM228 397q0 -28 -19.5 -47.5t-47.5 -19.5t-47.5 19.5t-19.5 47.5t19.5 47.5t47.5 19.5t47.5 -19.5t19.5 -47.5z" />
    <glyph glyph-name="less" unicode="&#x3c;" horiz-adv-x="475" 
d="M438 508l-255 -157l253 -161l-27 -28l-372 189l372 188z" />
    <glyph glyph-name="equal" unicode="=" horiz-adv-x="499" 
d="M462 434h-425v62h425v-62zM462 211h-425v63h425v-63z" />
    <glyph glyph-name="greater" unicode="&#x3e;" horiz-adv-x="473" 
d="M65 162l-28 28l251 161l-251 157l27 32l372 -189z" />
    <glyph glyph-name="question" unicode="?" horiz-adv-x="551" 
d="M222 233q6 51 21 88t34 65.5t39.5 51t37.5 45.5t28 48.5t11 59.5q0 22 -6 43.5t-19.5 38.5t-36 27.5t-56.5 10.5q-40 0 -67 -6t-44.5 -15.5t-27.5 -22t-16 -25.5q26 0 44.5 -16.5t18.5 -40.5q0 -28 -18 -47t-52 -19q-32 0 -50 19.5t-18 50.5q0 25 10 55t36 55.5
t70.5 42.5t114.5 17q49 0 91 -7t73 -25t48 -49t17 -79q0 -43 -14.5 -74t-36.5 -56t-48.5 -47t-51 -48.5t-43.5 -60t-26 -80.5h-63zM325 59q0 -28 -19.5 -47.5t-47.5 -19.5t-47.5 19.5t-19.5 47.5t19.5 47.5t47.5 19.5t47.5 -19.5t19.5 -47.5z" />
    <glyph glyph-name="at" unicode="@" horiz-adv-x="967" 
d="M657 201q-1 -5 -1 -10.5v-10.5q0 -32 10.5 -46t39.5 -14q20 0 39 10.5t33.5 35t23.5 65.5t9 101q0 72 -21.5 130t-62 98t-97.5 61.5t-128 21.5q-82 0 -144 -29t-104 -80t-63 -120t-21 -148q0 -86 23.5 -159t68.5 -126t111.5 -82.5t152.5 -29.5q63 0 125 20.5t122 68.5
l25 -28q-66 -52 -141 -77t-153 -25q-104 0 -183.5 30t-134 86.5t-82.5 137.5t-28 184q0 86 26.5 163t80 134.5t133 91t184.5 33.5q97 0 170.5 -25t123 -70.5t74.5 -110.5t25 -145q0 -73 -19 -121t-47.5 -76.5t-62 -40.5t-61.5 -12q-24 0 -40.5 5.5t-27 15t-17 23t-10.5 28.5
q-16 -33 -50.5 -54.5t-83.5 -21.5q-33 0 -62 10.5t-50.5 31.5t-33.5 53.5t-12 76.5q0 52 15 90.5t41 64t60.5 37.5t74.5 12q45 0 73.5 -18.5t44.5 -49.5l32 58h34zM503 428q-23 0 -42.5 -12t-34.5 -34.5t-23.5 -54.5t-8.5 -72q0 -42 4.5 -69t16 -42.5t29.5 -22t45 -6.5
t46 15.5t31 41.5t18 59.5t6 69.5q0 72 -21 99.5t-66 27.5z" />
    <glyph glyph-name="A" unicode="A" horiz-adv-x="878" 
d="M758 65q12 -30 83 -30v-35h-330v35h99q28 0 28 20q-1 0 -1 2t-0.5 3.5t-0.5 4.5l-53 135h-343l-49 -127q-1 -5 -1.5 -8t-0.5 -4q0 -26 44 -26h67v-35h-263v36q76 0 88 28l276 679h88zM263 260h296l-149 379z" />
    <glyph glyph-name="B" unicode="B" horiz-adv-x="811" 
d="M439 743q49 0 96 -6.5t83.5 -26.5t59 -56.5t22.5 -96.5q0 -29 -12 -54.5t-31.5 -46t-45.5 -35t-54 -22.5q90 -9 141 -54.5t51 -123.5q0 -62 -21 -104t-58.5 -68t-90 -37.5t-115.5 -11.5h-427v35q89 0 89 46v581q0 46 -89 46v35h402zM229 365v-305h248q88 0 124.5 45
t36.5 122q0 39 -12 65t-33 42.5t-50.5 23.5t-65.5 7h-248zM229 683v-268h222q62 0 102 30.5t40 100.5t-38 103.5t-104 33.5h-222z" />
    <glyph glyph-name="C" unicode="C" horiz-adv-x="795" 
d="M740 497l-45 -4q-13 45 -36 82.5t-56 65.5t-75.5 43.5t-94.5 15.5q-75 0 -129.5 -27t-89 -73t-51 -107t-16.5 -128q0 -80 21 -139.5t58.5 -100t90.5 -60.5t118 -20q56 0 101.5 15.5t80.5 44t59 67.5t38 86l44 -23q-14 -46 -39.5 -91t-65 -80.5t-95 -57.5t-130.5 -22
q-83 0 -154 23t-124 70t-83 118.5t-30 168.5q0 101 30 175.5t83 123t125.5 72.5t157.5 24q42 0 78.5 -8t65.5 -21t51 -29.5t35 -32.5l28 75h49v-246z" />
    <glyph glyph-name="D" unicode="D" horiz-adv-x="827" 
d="M417 743q88 0 156.5 -14t115.5 -52.5t71.5 -107.5t24.5 -178q0 -110 -24.5 -185t-71.5 -120.5t-115.5 -65.5t-156.5 -20h-380v35q89 0 89 46v581q0 46 -89 46v35h380zM229 688v-633h204q68 0 114.5 24t75.5 68t41.5 105.5t12.5 135.5t-12.5 130.5t-41.5 94t-75.5 56.5
t-114.5 19h-204z" />
    <glyph glyph-name="E" unicode="E" horiz-adv-x="744" 
d="M674 517l-40 -3q-18 174 -145 174h-260v-273h152q74 0 83 129h38l-15 -312h-36q-10 133 -77 133h-145v-310h224q179 0 203 237l42 -7l-24 -285h-637v35q89 0 89 46v581q0 46 -89 46v35h637v-226z" />
    <glyph glyph-name="F" unicode="F" horiz-adv-x="721" 
d="M685 517l-40 -3q-23 174 -145 174h-271v-299h163q74 0 83 139h38l-15 -332h-36q-11 143 -77 143h-156v-258q0 -46 125 -46v-35h-317v35q89 0 89 46v581q0 46 -89 46v35h648v-226z" />
    <glyph glyph-name="G" unicode="G" horiz-adv-x="879" 
d="M742 497l-44 -4q-13 45 -36.5 82.5t-56.5 65.5t-76 43.5t-94 15.5q-75 0 -129.5 -27t-90 -73t-52 -107t-16.5 -128q0 -80 21.5 -139.5t59.5 -100t91.5 -60.5t117.5 -20q46 0 86.5 14t70.5 36.5t47.5 52t17.5 61.5v56q0 46 -90 46v35h282v-35q-90 0 -90 -46v-265h-77
l-23 87q-18 -19 -42.5 -37.5t-55 -33t-68 -23.5t-81.5 -9q-77 0 -145 23t-120 70t-82 118.5t-30 168.5q0 101 30.5 175.5t84 123t126 72.5t157.5 24q42 0 78.5 -8t65.5 -21t51 -29.5t35 -32.5l28 75h49v-246z" />
    <glyph glyph-name="H" unicode="H" horiz-adv-x="874" 
d="M838 708q-90 0 -90 -46v-581q0 -46 90 -46v-35h-304v35q111 0 111 46v284h-416v-284q0 -46 111 -46v-35h-303v35q89 0 89 46v581q0 46 -89 46v35h303v-35q-111 0 -111 -46v-247h416v247q0 46 -111 46v35h304v-35z" />
    <glyph glyph-name="I" unicode="I" horiz-adv-x="377" 
d="M329 708q-89 0 -89 -46v-581q0 -46 89 -46v-35h-282v35q90 0 90 46v581q0 46 -90 46v35h282v-35z" />
    <glyph glyph-name="J" unicode="J" horiz-adv-x="630" 
d="M602 708q-90 0 -90 -46v-417q0 -127 -61.5 -194t-189.5 -67q-62 0 -104.5 15.5t-69.5 39.5t-39 53.5t-12 58.5q0 33 18 53t50 20q34 0 52 -19t18 -47q0 -24 -15 -41t-41 -19q4 -14 17 -26t32 -21t41 -14t45 -5q73 0 114.5 46t41.5 151v433q0 46 -89 46v35h282v-35z" />
    <glyph glyph-name="K" unicode="K" horiz-adv-x="900" 
d="M783 708q-38 0 -64.5 -14.5t-49.5 -34.5l-198 -175l264 -398q17 -26 41 -38.5t60 -12.5h33v-35h-368v35h99q16 0 21 5.5t5 14.5q0 14 -11 31l-218 332l-168 -149v-188q0 -46 89 -46v-35h-281v35q89 0 89 46v581q0 46 -89 46v35h281v-35q-89 0 -89 -46v-321l344 304
q18 15 18 32q0 13 -11.5 22t-34.5 9h-61v35h299v-35z" />
    <glyph glyph-name="L" unicode="L" horiz-adv-x="732" 
d="M340 708q-111 0 -111 -46v-607h221q44 0 79 10.5t60.5 37.5t41.5 72.5t22 116.5l42 -7l-24 -285h-634v35q89 0 89 46v581q0 46 -89 46v35h303v-35z" />
    <glyph glyph-name="M" unicode="M" horiz-adv-x="1018" 
d="M981 708q-90 0 -90 -46v-581q0 -46 90 -46v-35h-282v35q89 0 89 46v571l-253 -652h-96l-253 652v-571q0 -46 89 -46v-35h-238v35q89 0 89 46v581q0 46 -89 46v35h232l245 -649l245 649h222v-35z" />
    <glyph glyph-name="N" unicode="N" horiz-adv-x="870" 
d="M844 708q-89 0 -89 -46v-662h-129l-440 640v-559q0 -46 89 -46v-35h-238v35q89 0 89 46v581q0 46 -89 46v35h211l447 -654v573q0 46 -89 46v35h238v-35z" />
    <glyph glyph-name="O" unicode="O" horiz-adv-x="832" 
d="M423 759q79 0 147.5 -20t118 -66t78 -119.5t28.5 -181.5q0 -87 -24 -158.5t-72.5 -122.5t-121 -79t-169.5 -28q-77 0 -145 19.5t-118 63.5t-79 115t-29 174q0 91 22.5 165.5t70 127t120 81.5t173.5 29zM428 700q-77 0 -130.5 -22.5t-87.5 -62.5t-49.5 -94.5t-15.5 -118.5
q0 -105 17.5 -174t51.5 -109.5t83 -57t111 -16.5q82 0 136 24.5t86 67t45.5 101t13.5 127.5q0 99 -18.5 163.5t-52.5 103t-82.5 53.5t-107.5 15z" />
    <glyph glyph-name="P" unicode="P" horiz-adv-x="735" 
d="M403 743q63 0 117 -9.5t94 -34t62.5 -66.5t22.5 -107t-22.5 -107t-62.5 -66.5t-94 -34t-117 -9.5h-174v-228q0 -46 111 -46v-35h-303v35q89 0 89 46v581q0 46 -89 46v35h366zM229 683v-314h187q88 0 129.5 42t41.5 115t-41.5 115t-129.5 42h-187z" />
    <glyph glyph-name="Q" unicode="Q" horiz-adv-x="849" 
d="M829 -37q-13 -31 -46 -53.5t-78 -22.5q-62 0 -107 30t-85 77q-44 -10 -105 -10q-77 0 -145 19.5t-118 63.5t-79 115t-29 174q0 91 22.5 165.5t70 127t120 81.5t173.5 29q79 0 147.5 -20t118 -66t78 -119.5t28.5 -181.5q0 -126 -48 -216t-147 -135q33 -33 70 -53.5
t80 -20.5q22 0 34.5 6.5t21.5 20.5zM556 75q74 38 103.5 114.5t29.5 175.5t-18.5 163.5t-52.5 103t-82.5 53.5t-107.5 15q-77 0 -130.5 -22.5t-87.5 -62.5t-49.5 -94.5t-15.5 -118.5q0 -78 9.5 -133.5t27.5 -97.5q34 35 67.5 48.5t67.5 13.5q38 0 70.5 -12t61.5 -33
t55.5 -50t51.5 -63zM196 144q33 -57 86.5 -78t125.5 -21q17 0 32 1t29 3q-24 31 -46 55.5t-44 41t-45.5 25t-51.5 8.5q-18 0 -39 -7.5t-47 -27.5z" />
    <glyph glyph-name="R" unicode="R" horiz-adv-x="784" 
d="M758 89q0 -42 -21 -69t-79 -27q-31 0 -52 7.5t-34 21t-19 31.5t-6 40v86q0 91 -28.5 138.5t-100.5 47.5h-189v-284q0 -46 111 -46v-35h-303v35q89 0 89 46v581q0 46 -89 46v35h381q49 0 96 -6.5t83.5 -26.5t58.5 -56.5t22 -96.5q0 -39 -12 -68.5t-31.5 -50.5t-44.5 -34
t-52 -19q25 -10 46 -25t35.5 -39t22.5 -58t8 -81v-103q0 -22 9 -32.5t23 -10.5q15 0 24 10.5t9 32.5v48h43v-38zM229 683v-268h201q62 0 101.5 30.5t39.5 100.5t-37.5 103.5t-103.5 33.5h-201z" />
    <glyph glyph-name="S" unicode="S" horiz-adv-x="684" 
d="M615 473l-43 -9q-5 59 -27 103.5t-57 74t-80 44t-95 14.5q-53 0 -90 -9.5t-59.5 -26.5t-32.5 -41t-10 -53q0 -39 22.5 -62t59.5 -37t84.5 -22t96.5 -17t96.5 -22t84.5 -37t59.5 -62.5t22.5 -97.5q0 -60 -20 -103.5t-57.5 -71.5t-91.5 -41t-121 -13q-60 0 -108.5 15.5
t-93.5 47.5q-17 11 -28 11q-13 0 -21 -8t-14 -22l-12 -28h-43v285l43 6q5 -52 27 -97t58.5 -78t86.5 -52t112 -19q206 0 206 148q0 41 -22.5 64.5t-59.5 37t-84 21t-96.5 16t-96.5 21t-84 37.5t-59.5 65.5t-22.5 103.5q0 36 12 72t42 64.5t80 46t127 17.5q61 0 106 -13
t87 -37q19 -12 37 -12q20 0 32 19l17 27h30v-270z" />
    <glyph glyph-name="T" unicode="T" horiz-adv-x="809" 
d="M773 437l-40 -3q-5 78 -16.5 127.5t-31.5 77.5t-48.5 38.5t-67.5 10.5h-112v-607q0 -46 90 -46v-35h-282v35q89 0 89 46v607h-113q-39 0 -67.5 -10.5t-48 -38.5t-31 -77.5t-17.5 -127.5l-40 3v306h736v-306z" />
    <glyph glyph-name="U" unicode="U" horiz-adv-x="854" 
d="M820 708q-90 0 -90 -46v-359q0 -154 -72.5 -236.5t-228.5 -82.5q-158 0 -230.5 82.5t-72.5 236.5v359q0 46 -89 46v35h303v-35q-111 0 -111 -46v-359q0 -65 10.5 -113.5t36 -80.5t67.5 -48t106 -16t106.5 16t68 48t36.5 80.5t11 113.5v359q0 46 -112 46v35h261v-35z" />
    <glyph glyph-name="V" unicode="V" horiz-adv-x="878" 
d="M841 707q-48 0 -65.5 -7t-22.5 -21l-276 -679h-88l-269 678q-12 30 -83 30v35h330v-35h-99q-29 0 -29 -17q0 -6 3 -13l226 -574l219 566q3 7 3 14q0 24 -45 24h-67v35h263v-36z" />
    <glyph glyph-name="W" unicode="W" horiz-adv-x="1223" 
d="M1187 707q-32 0 -52 -7t-25 -21l-216 -679h-98l-187 545l-192 -545h-99l-210 678q-9 30 -71 30v35h296v-35h-86q-26 0 -26 -17q0 -6 4 -13l172 -574l180 534l-13 40q-11 30 -72 30v35h296v-35h-85q-26 0 -26 -17q0 -6 3 -13l195 -574l168 566q1 4 1.5 7t0.5 7
q0 24 -39 24h-58v35h239v-36z" />
    <glyph glyph-name="X" unicode="X" horiz-adv-x="865" 
d="M810 708q-38 0 -63.5 -13t-45.5 -36l-213 -251l240 -322q18 -25 41.5 -38t58.5 -13v-35h-335v35h100q27 0 27 20q0 6 -2 13.5t-10 17.5l-184 252l-198 -240q-16 -19 -16 -37q0 -13 10.5 -19.5t34.5 -6.5h89v-35h-307v35q37 0 63 13.5t45 35.5l250 296l-205 278
q-20 26 -43.5 38t-59.5 12v35h311v-35h-75q-28 0 -28 -20q0 -5 2.5 -12.5t10.5 -17.5l151 -209l162 196q15 18 15 37q0 26 -43 26h-66v35h283v-35z" />
    <glyph glyph-name="Y" unicode="Y" horiz-adv-x="821" 
d="M789 707q-40 0 -60 -7.5t-28 -20.5l-246 -365v-233q0 -46 100 -46v-35h-303v35q100 0 100 46v233l-241 364q-12 17 -34 23.5t-49 6.5v35h330v-35h-99q-30 0 -30 -20q0 -6 4 -13l204 -305l198 300q4 7 4 14q0 11 -12.5 17.5t-33.5 6.5h-67v35h263v-36z" />
    <glyph glyph-name="Z" unicode="Z" horiz-adv-x="722" 
d="M665 675l-527 -620h295q91 0 141 65.5t62 185.5l44 -7l-25 -299h-627v69l539 619h-310q-78 0 -114.5 -65.5t-49.5 -188.5l-40 3v306h612v-68z" />
    <glyph glyph-name="bracketleft" unicode="[" horiz-adv-x="358" 
d="M322 783h-145v-934h145v-52h-213v1033h213v-47z" />
    <glyph glyph-name="backslash" unicode="\" horiz-adv-x="405" 
d="M376 -30h-58l-292 774h56z" />
    <glyph glyph-name="bracketright" unicode="]" horiz-adv-x="364" 
d="M249 -203h-212v52h145v934h-145v47h212v-1033z" />
    <glyph glyph-name="asciicircum" unicode="^" horiz-adv-x="403" 
d="M366 463h-51l-113 229l-114 -229h-51l141 280h48z" />
    <glyph glyph-name="underscore" unicode="_" horiz-adv-x="595" 
d="M581 -120h-566v45h566v-45z" />
    <glyph glyph-name="grave" unicode="`" horiz-adv-x="313" 
d="M256 572q-33 15 -71.5 26t-71.5 22t-54.5 24t-21.5 32q0 14 9.5 28t38.5 14q19 0 39.5 -11.5t44 -29t49.5 -38t58 -38.5z" />
    <glyph glyph-name="a" unicode="a" horiz-adv-x="644" 
d="M520 83q0 -45 30 -45q14 0 21.5 14t7.5 31v68h36v-58q0 -51 -17.5 -75.5t-65.5 -24.5q-23 0 -39 9t-25.5 23.5t-14.5 32.5t-7 36q-12 -22 -34 -42t-51.5 -35.5t-64.5 -24.5t-73 -9q-96 0 -140 38.5t-44 107.5q0 40 17.5 67.5t47.5 46t69 30t82 20t87.5 15.5t85.5 17v31
q0 57 -30 94t-94 37q-61 0 -101.5 -13t-60.5 -32q20 -2 35 -15.5t15 -34.5q0 -25 -16 -41.5t-45 -16.5t-44.5 17t-15.5 45q0 22 15 46t44.5 43t72 31.5t98.5 12.5q46 0 86 -8.5t69.5 -29t46.5 -56t17 -89.5v-263zM429 289q-79 -16 -136 -30.5t-94 -31.5t-54.5 -39.5
t-17.5 -54.5q0 -46 32.5 -68.5t93.5 -22.5q31 0 58.5 7.5t50.5 19.5t40 27.5t27 30.5v162z" />
    <glyph glyph-name="b" unicode="b" horiz-adv-x="643" 
d="M182 451q20 35 64 56.5t104 21.5q50 0 96 -12t81.5 -42.5t56.5 -82t21 -130.5q0 -83 -21.5 -137t-57.5 -85.5t-84 -44t-102 -12.5q-42 0 -75 12t-56 29.5t-36.5 36.5t-16.5 33l-32 -94h-34v692q0 45 -88 45v33h180v-319zM343 487q-48 0 -80.5 -19t-53 -50.5t-29 -73.5
t-8.5 -88t8.5 -88t29 -73.5t53 -50.5t80.5 -19t81 19t53.5 50.5t30 73.5t9.5 88t-9.5 88t-30 73.5t-53.5 50.5t-81 19z" />
    <glyph glyph-name="c" unicode="c" horiz-adv-x="560" 
d="M521 174q-6 -36 -21 -70.5t-42 -61t-66.5 -43t-93.5 -16.5q-56 0 -102.5 16.5t-80.5 49.5t-53 82.5t-19 116.5q0 70 20 123t56 88t84.5 52.5t105.5 17.5q45 0 82.5 -12t65 -31.5t42.5 -43t15 -46.5q0 -28 -15.5 -45t-44.5 -17t-45 16.5t-16 41.5q0 21 15.5 34.5
t35.5 15.5q-20 19 -48.5 32t-81.5 13q-180 0 -180 -226q0 -64 14.5 -108.5t39 -73t56 -41.5t65.5 -13q30 0 58 8.5t50.5 27t39 48.5t23.5 72z" />
    <glyph glyph-name="d" unicode="d" horiz-adv-x="688" 
d="M561 79q0 -45 89 -45v-34h-143l-8 83q-49 -100 -203 -100q-50 0 -96.5 15.5t-82 48.5t-57 84.5t-21.5 123.5q0 75 24 127.5t63 85t87.5 47t97.5 14.5q52 0 94 -14t65 -38v215q0 45 -88 45v33h179v-691zM308 487q-48 0 -82 -19t-55 -50.5t-31 -73.5t-10 -88t10 -88
t31 -73.5t55 -50.5t82 -19t80.5 19t53 50.5t29 73.5t8.5 88t-8.5 88t-29 73.5t-53 50.5t-80.5 19z" />
    <glyph glyph-name="e" unicode="e" horiz-adv-x="588" 
d="M133 271q0 -114 43 -180t127 -66q65 0 115.5 30.5t70.5 105.5l40 -15q-10 -32 -27.5 -61.5t-44.5 -52t-65 -36t-89 -13.5q-46 0 -92.5 12t-83.5 42.5t-60.5 83.5t-23.5 134q0 60 18 110.5t52 87t83.5 56.5t112.5 20q118 0 179 -67.5t61 -190.5h-416zM455 309
q0 81 -39.5 129.5t-111.5 48.5q-32 0 -61 -10t-52 -31t-38 -55t-19 -82h321z" />
    <glyph glyph-name="f" unicode="f" horiz-adv-x="438" 
d="M374 451q-63 6 -102 8.5t-54 2.5v-383q0 -45 135 -45v-34h-313v34q88 0 88 45v383h-89v34q18 4 39.5 7.5t47.5 5.5v129q0 40 13 67t35 43.5t52 24t65 7.5q34 0 64.5 -7.5t53 -21.5t35.5 -34t13 -45q0 -23 -13 -44t-47 -21t-48 17.5t-14 37.5q0 25 14.5 38t37.5 17
q-11 14 -36.5 20.5t-59.5 6.5q-29 0 -51.5 -18.5t-22.5 -63.5v-153h162z" />
    <glyph glyph-name="g" unicode="g" horiz-adv-x="735" 
d="M174 -7q-23 -5 -33.5 -26t-10.5 -42q0 -23 14 -43t38.5 -35.5t59.5 -24.5t77 -9q97 0 150 33.5t53 93.5q0 21 -7.5 38t-27 30t-52 22t-81.5 14q-77 8 -127.5 15t-80.5 16.5t-42 23.5t-12 36q0 25 16.5 44t38.5 27q-30 16 -48 47t-18 79q0 93 61 135t169 42q60 0 100.5 -9
t69.5 -29q20 25 47.5 36.5t59.5 11.5q16 0 36 -6t38 -19.5t30.5 -35.5t12.5 -54q0 -35 -16.5 -52.5t-43.5 -17.5q-29 0 -44.5 16t-15.5 38q0 25 17 39.5t49 14.5q-7 17 -30.5 27.5t-48.5 10.5q-17 0 -33 -8t-33 -21q24 -22 35.5 -47.5t11.5 -63.5q0 -46 -19 -79t-52 -54.5
t-77 -31.5t-94 -10q-42 0 -73.5 4t-56.5 15q-12 -2 -18 -9.5t-6 -15.5q0 -12 6.5 -20t28.5 -14.5t63 -12.5t110 -13q77 -8 124 -22t73 -33.5t34.5 -43t8.5 -49.5q0 -78 -73 -127t-218 -49q-62 0 -113 7t-87 23.5t-55.5 42.5t-19.5 64q0 27 11 47.5t28.5 34t40.5 20t47 6.5z
M467 338q0 35 -11.5 60t-32.5 40.5t-49.5 22.5t-62.5 7q-154 0 -154 -131q0 -69 41 -100.5t113 -31.5q75 0 115.5 33t40.5 100z" />
    <glyph glyph-name="h" unicode="h" horiz-adv-x="717" 
d="M217 407q20 22 44 42.5t52 36t60 24.5t69 9q72 0 110 -34t38 -115v-291q0 -45 89 -45v-34h-257v34q78 0 78 45v285q0 63 -18.5 88t-56.5 25q-29 0 -59.5 -12t-58.5 -31.5t-51.5 -45t-38.5 -53.5v-256q0 -45 78 -45v-34h-256v34q88 0 88 45v613q0 45 -87 45v33h177v-363z
" />
    <glyph glyph-name="i" unicode="i" horiz-adv-x="344" 
d="M217 79q-1 -23 22 -34t67 -11v-34h-267v34q88 0 88 45v351q0 46 -88 46v33h178v-430zM233 684q0 -29 -20.5 -50t-49.5 -21t-50 21t-21 50t21 49.5t50 20.5t49.5 -20.5t20.5 -49.5z" />
    <glyph glyph-name="j" unicode="j" horiz-adv-x="366" 
d="M276 -121q0 -60 -39.5 -87.5t-102.5 -27.5q-76 0 -117 29.5t-41 78.5q0 11 2.5 22.5t9.5 21t18.5 15.5t28.5 6q33 0 48 -18t15 -38q0 -24 -15 -37t-38 -17q12 -14 30.5 -21t52.5 -7q29 0 43 17t14 43v571q0 46 -100 46v33h190zM292 684q0 -29 -20.5 -50t-49.5 -21t-50 21
t-21 50t21 49.5t50 20.5t49.5 -20.5t20.5 -49.5z" />
    <glyph glyph-name="k" unicode="k" horiz-adv-x="707" 
d="M643 476q-31 0 -56.5 -10t-43.5 -24l-161 -121l203 -253q27 -34 83 -34v-34h-292v34h82q22 0 22 13q0 11 -10 21l-158 201l-95 -71v-119q0 -45 89 -45v-34h-267v34q88 0 88 45v613q0 45 -88 45v33h178v-526l252 189q13 9 13 23q0 8 -6 14t-20 6h-49v33h236v-33z" />
    <glyph glyph-name="l" unicode="l" horiz-adv-x="344" 
d="M217 79q0 -45 89 -45v-34h-267v34q88 0 88 45v613q0 45 -88 45v33h178v-691z" />
    <glyph glyph-name="m" unicode="m" horiz-adv-x="1036" 
d="M909 79q0 -45 88 -45v-34h-256v34q77 0 77 45v285q0 63 -15.5 88t-47.5 25q-51 0 -102.5 -38t-88.5 -104v-256q0 -45 76 -45v-34h-244v34q78 0 78 45v285q0 63 -16 88t-49 25q-26 0 -53 -10t-52.5 -28.5t-47.5 -45t-38 -58.5v-256q0 -45 78 -45v-34h-256v34q88 0 88 45
v351q0 46 -89 46v33h179v-106q16 20 37 40.5t47.5 37.5t59 27.5t71.5 10.5q54 0 87 -28.5t42 -89.5q16 21 38.5 42t50 38t59.5 27.5t67 10.5q63 0 97.5 -34t34.5 -115v-291z" />
    <glyph glyph-name="n" unicode="n" horiz-adv-x="733" 
d="M606 79q0 -45 89 -45v-34h-257v34q78 0 78 45v285q0 62 -23 87.5t-60 25.5q-29 0 -61 -12t-61.5 -31.5t-54 -45t-39.5 -53.5v-256q0 -45 78 -45v-34h-256v34q88 0 88 45v351q0 46 -88 46v33h178v-102q42 45 100.5 78.5t131.5 33.5q72 0 114.5 -34t42.5 -115v-291z" />
    <glyph glyph-name="o" unicode="o" horiz-adv-x="612" 
d="M315 529q54 0 101.5 -14t83.5 -46t56.5 -84t20.5 -128q0 -62 -18 -112.5t-52.5 -86.5t-85.5 -55.5t-117 -19.5q-53 0 -100 13.5t-83 44.5t-57 81t-21 123q0 64 17 116.5t50.5 90t84.5 57.5t120 20zM316 487q-47 0 -81 -16t-56.5 -44t-33.5 -66.5t-11 -83.5
q0 -74 12.5 -123t35 -77.5t53.5 -40t69 -11.5q50 0 84.5 17t56 47.5t31 72t9.5 89.5q0 70 -13 115.5t-35.5 72.5t-53.5 37.5t-67 10.5z" />
    <glyph glyph-name="p" unicode="p" horiz-adv-x="659" 
d="M161 429q49 100 203 100q50 0 96.5 -15.5t82.5 -48.5t57.5 -84.5t21.5 -123.5q0 -75 -24 -127t-63 -85t-87.5 -47.5t-97.5 -14.5q-54 0 -96 14t-65 39v-194q0 -45 111 -45v-33h-290v33q89 0 89 45v588q0 46 -89 46v33h143zM352 487q-48 0 -81 -19t-52.5 -50.5t-28 -73.5
t-8.5 -88t8.5 -88t28 -73.5t52.5 -50.5t81 -19t81.5 19t55 50.5t31 73.5t9.5 88t-9.5 88t-31 73.5t-55 50.5t-81.5 19z" />
    <glyph glyph-name="q" unicode="q" horiz-adv-x="647" 
d="M553 -158q0 -45 89 -45v-33h-291v33q111 0 111 45v219q-20 -34 -64 -56t-104 -22q-50 0 -95.5 12t-80 42.5t-55 82t-20.5 130.5q0 83 20.5 137t56 85.5t83 44t100.5 12.5q42 0 75 -12t56.5 -29.5t36.5 -36.5t16 -33l33 91h33v-667zM299 487q-48 0 -80 -19t-52 -50.5
t-28.5 -73.5t-8.5 -88t8.5 -88t28.5 -73.5t52 -50.5t80 -19t81 19t53 50.5t29 73.5t9 88t-9 88t-29 73.5t-53 50.5t-81 19z" />
    <glyph glyph-name="r" unicode="r" horiz-adv-x="547" 
d="M217 412q32 57 77 82t90 25q21 0 43 -6.5t40 -20.5t29.5 -37t11.5 -56q0 -30 -16.5 -47.5t-46.5 -17.5t-45.5 16t-15.5 38q0 25 18 39.5t51 14.5q-8 17 -29 26t-46 9q-18 0 -38 -6t-41 -22.5t-42 -45t-40 -72.5v-252q0 -45 100 -45v-34h-278v34q88 0 88 45v351
q0 46 -88 46v33h178v-97z" />
    <glyph glyph-name="s" unicode="s" horiz-adv-x="518" 
d="M458 318l-37 -7q-9 81 -58.5 123.5t-134.5 42.5q-45 0 -77.5 -18t-32.5 -58q0 -37 26.5 -55.5t67 -29.5t87 -19t87 -24.5t67 -46.5t26.5 -84q0 -72 -48.5 -110t-142.5 -38q-48 0 -88.5 10.5t-70.5 35.5q-7 5 -15.5 10.5t-15.5 5.5q-8 0 -11 -4.5t-5 -15.5l-7 -36h-36v204
l36 6q5 -40 23.5 -72.5t46.5 -56t64 -36t76 -12.5q63 0 90.5 23.5t27.5 60.5q0 28 -15.5 45t-41 27.5t-58 17t-66.5 14t-66.5 17.5t-58 27.5t-41 44.5t-15.5 69q0 66 47 103t138 37q37 0 77.5 -12t65.5 -31q8 -7 16.5 -12t16.5 -5q10 0 14 15l5 35h37v-191z" />
    <glyph glyph-name="t" unicode="t" horiz-adv-x="390" 
d="M218 509h136l-5 -58q-29 6 -61 8.5t-70 2.5v-379q0 -45 50 -45q24 0 34 13.5t10 31.5v68h38v-58q0 -22 -3.5 -40t-14.5 -31.5t-31 -21t-53 -7.5q-61 0 -90.5 31.5t-29.5 88.5v349h-89v34q28 2 51.5 8t39.5 21.5t25 42t9 69.5v22l54 7v-157z" />
    <glyph glyph-name="u" unicode="u" horiz-adv-x="696" 
d="M581 79q0 -45 76 -45v-34h-168v102q-13 -20 -32.5 -39.5t-45.5 -35.5t-58 -26t-71 -10q-79 0 -117 33.5t-38 115.5v290q0 46 -88 46v33h178v-364q0 -63 18.5 -87.5t63.5 -24.5q28 0 56 11t52.5 30.5t45.5 45t36 54.5v256q0 46 -99 46v33h191v-430z" />
    <glyph glyph-name="v" unicode="v" horiz-adv-x="685" 
d="M646 476q-63 0 -78 -34l-188 -442h-84l-185 441q-15 35 -72 35v33h263v-33h-64q-30 0 -30 -18q0 -10 3 -17l151 -374l156 366q4 7 4 14q0 29 -48 29h-41v33h213v-33z" />
    <glyph glyph-name="w" unicode="w" horiz-adv-x="994" 
d="M955 476q-34 0 -51 -8t-23 -26l-159 -442h-80l-146 376l-153 -376h-81l-155 441q-12 35 -68 35v33h252v-33h-62q-28 0 -28 -18q0 -16 4 -23l123 -368l149 366q3 7 3 18q0 25 -35 25h-50v33h253v-33h-69q-24 0 -24 -17q0 -6 2.5 -11.5t4.5 -11.5l145 -369l127 366
q3 7 3 14q0 29 -45 29h-40v33h203v-33z" />
    <glyph glyph-name="x" unicode="x" horiz-adv-x="715" 
d="M651 476q-31 0 -52.5 -9t-37.5 -25l-158 -160l191 -214q15 -17 34 -25.5t49 -8.5v-34h-292v34h82q22 0 22 13q0 7 -9 21l-139 161l-145 -152q-12 -12 -12 -26q0 -17 35 -17h75v-34h-255v34q30 0 51.5 8.5t37.5 24.5l187 191l-161 183q-16 17 -35.5 26t-48.5 9v33h272v-33
h-62q-23 0 -23 -14q0 -8 11 -21l111 -129l114 121q13 13 13 25q0 18 -37 18h-54v33h236v-33z" />
    <glyph glyph-name="y" unicode="y" horiz-adv-x="673" 
d="M639 476q-33 0 -51.5 -8.5t-26.5 -25.5l-234 -552q-13 -30 -26 -51.5t-30 -35.5t-39.5 -21t-53.5 -7q-69 0 -108.5 33.5t-39.5 82.5q0 11 3 22.5t9.5 21t18 15.5t28.5 6q33 0 47.5 -17.5t14.5 -37.5q0 -25 -14.5 -38t-37.5 -17q9 -15 27.5 -25.5t59.5 -10.5q27 0 52 20.5
t43 66.5l25 64l-202 480q-15 35 -73 35v33h265v-33h-65q-30 0 -30 -18q0 -10 3 -17l152 -374l155 366q3 7 3 14q0 29 -47 29h-41v33h213v-33z" />
    <glyph glyph-name="z" unicode="z" horiz-adv-x="574" 
d="M534 463l-383 -423h193q43 0 71 8t45 27.5t26 52t14 82.5l37 -6v-204h-498v47l390 422h-188q-35 0 -60 -7t-42 -25t-28 -48.5t-19 -77.5l-35 7v191h477v-46z" />
    <glyph glyph-name="braceleft" unicode="{" horiz-adv-x="382" 
d="M345 786q-12 -3 -30.5 -11t-36.5 -24t-31 -42t-13 -65v-205q0 -78 -54 -97q54 -24 54 -99v-264q0 -34 12 -59.5t29 -42.5t36.5 -27.5t33.5 -14.5v-39q-26 2 -57 7.5t-59 23.5t-46.5 52.5t-18.5 93.5v275q0 69 -93 80v26q93 7 93 78v220q0 54 17.5 86.5t44.5 51.5t58.5 27
t60.5 13v-44z" />
    <glyph glyph-name="bar" unicode="|" horiz-adv-x="245" 
d="M153 -116h-58v920h58v-920z" />
    <glyph glyph-name="braceright" unicode="}" horiz-adv-x="368" 
d="M218 432q0 -71 93 -78v-26q-93 -11 -93 -80v-275q0 -59 -19 -93.5t-46.5 -52.5t-59 -23.5t-56.5 -7.5v39q14 4 33 14.5t36.5 27.5t29.5 42.5t12 59.5v264q0 75 54 99q-54 19 -54 97v205q0 39 -13 65t-31 42t-36.5 24t-30.5 11v44q28 -5 60 -13t59 -27t44.5 -51.5
t17.5 -86.5v-220z" />
    <glyph glyph-name="asciitilde" unicode="~" horiz-adv-x="621" 
d="M584 412q-17 -55 -64.5 -89.5t-111.5 -34.5q-36 0 -65 11.5t-54 25.5t-48 25.5t-48 11.5q-26 0 -52 -20.5t-48 -52.5l-56 24q8 28 26.5 51.5t42 39.5t50.5 25t53 9q51 0 80 -11.5t49.5 -25t39 -25t47.5 -11.5q25 0 50 17.5t51 59.5z" />
    <glyph glyph-name="nonbreakingspace" unicode="&#xa0;" horiz-adv-x="345" 
 />
    <glyph glyph-name="exclamdown" unicode="&#xa1;" horiz-adv-x="326" 
d="M177 370q5 -109 10.5 -188.5t10.5 -135t8 -90.5t3 -55q0 -46 -15 -59.5t-38 -13.5q-21 0 -35.5 14t-14.5 56q0 21 2.5 56.5t7 91.5t11 135.5t13.5 188.5h37zM227 521q0 -28 -19.5 -47.5t-47.5 -19.5t-47.5 19.5t-19.5 47.5t19.5 47.5t47.5 19.5t47.5 -19.5t19.5 -47.5z
" />
    <glyph glyph-name="cent" unicode="&#xa2;" horiz-adv-x="529" 
d="M289 632q41 -2 75.5 -14t59 -30t38.5 -40t14 -43q0 -26 -15 -42.5t-43 -16.5q-27 0 -42.5 16t-15.5 39q0 20 14.5 33t34.5 15q-19 17 -45.5 29.5t-74.5 13.5v-440q55 2 98 36.5t56 111.5l39 -6q-6 -33 -19.5 -64.5t-36.5 -56.5t-57 -41.5t-80 -19.5v-112h-33v112
q-50 2 -92 18.5t-72.5 48t-47.5 77.5t-17 108q0 63 17 111.5t48 82t72.5 52t91.5 21.5v112h33v-111zM256 590q-142 -16 -142 -213q0 -56 11.5 -96t31 -67t45 -41.5t54.5 -18.5v436z" />
    <glyph glyph-name="sterling" unicode="&#xa3;" horiz-adv-x="747" 
d="M516 284h-214q-16 -45 -36.5 -83t-45.5 -64q45 -2 79 -17.5t66.5 -33t66.5 -32t78 -14.5q12 0 29 4.5t35.5 12.5t36 18t30.5 21l24 -28q-75 -84 -217 -84q-42 0 -78 15.5t-69.5 33.5t-66.5 33.5t-70 15.5q-12 0 -29 -8t-33.5 -21.5t-30 -30t-20.5 -34.5l-38 28
q19 34 42.5 56t60.5 39q30 37 53.5 81t40.5 92h-55v55h74q10 32 17 63.5t13 62.5q9 46 26.5 86t46.5 69t70 45.5t97 16.5q48 0 81 -15.5t53.5 -39t29 -50.5t8.5 -49q0 -29 -16 -49.5t-47 -20.5q-30 0 -47 18t-17 42q0 21 14 38.5t37 19.5q-7 27 -33 43t-71 16
q-54 0 -91 -36.5t-50 -125.5q-5 -30 -12 -64.5t-18 -69.5h196v-55z" />
    <glyph glyph-name="currency" unicode="&#xa4;" horiz-adv-x="723" 
d="M659 609l-62 -62q37 -39 57.5 -90.5t20.5 -111.5q0 -58 -20 -109t-57 -91l62 -61l-39 -39l-64 64q-39 -28 -88 -43.5t-107 -15.5q-60 0 -110.5 16t-90.5 45l-66 -66l-39 39l64 64q-36 39 -55 89.5t-19 107.5q0 58 20.5 108.5t56.5 89.5l-66 66l39 39l68 -68
q42 30 91.5 47t106.5 17t105 -16t88 -45l65 65zM612 345q0 58 -21 104t-56 77.5t-80 48.5t-93 17q-56 0 -102.5 -19t-80 -52.5t-52 -78.5t-18.5 -97q0 -59 21.5 -105t57 -78t81 -48.5t93.5 -16.5q63 0 110 22t78 57.5t46.5 80t15.5 88.5z" />
    <glyph glyph-name="yen" unicode="&#xa5;" horiz-adv-x="821" 
d="M750 631q-36 0 -53.5 -7t-25.5 -18l-153 -224h158v-48h-191l-35 -53v-73h226v-49h-226v-83q0 -42 90 -42v-34h-272v34q90 0 90 42v83h-217v49h217v73l-35 53h-182v48h150l-149 223q-11 15 -27 21t-47 6v34h295v-34h-88q-27 0 -27 -18q0 -8 3 -12l183 -270l178 266
q3 6 3 12q0 11 -11 16.5t-30 5.5h-60v34h236v-35z" />
    <glyph glyph-name="brokenbar" unicode="&#xa6;" horiz-adv-x="227" 
d="M141 429h-57v368h57v-368zM141 -116h-57v380h57v-380z" />
    <glyph glyph-name="section" unicode="&#xa7;" horiz-adv-x="531" 
d="M457 568l-35 -7q-8 78 -55.5 118t-128.5 40q-43 0 -74 -17t-31 -55t25.5 -62.5t63.5 -43t83 -34.5t83 -38t63.5 -53.5t25.5 -80.5q0 -40 -23.5 -80.5t-77.5 -69.5q42 -16 71.5 -45t29.5 -81q0 -67 -45.5 -104t-136.5 -37q-46 0 -84 10.5t-67 33.5q-7 5 -15 10t-15 5
q-11 0 -15 -19l-7 -34h-34v194l34 6q5 -38 22.5 -69.5t44.5 -53.5t61 -34t72 -12q60 0 86.5 22.5t26.5 57.5t-25.5 55t-64 34t-83 27t-83 35t-64 57.5t-25.5 94.5q0 55 30 92t75 60q-22 9 -41 20.5t-33.5 27t-22.5 37t-8 51.5q0 63 45.5 98t130.5 35q36 0 72.5 -10.5
t63.5 -30.5q8 -6 16 -11t16 -5q10 0 13 14l5 34h35v-182zM214 467q-36 -17 -58.5 -46.5t-22.5 -80.5q0 -33 17 -55.5t43.5 -37.5t60 -25t66.5 -19q34 21 59.5 51.5t25.5 72.5q0 28 -18.5 49.5t-46.5 38.5t-61.5 29.5t-64.5 22.5z" />
    <glyph glyph-name="dieresis" unicode="&#xa8;" horiz-adv-x="426" 
d="M387 656q0 -26 -18.5 -44.5t-44.5 -18.5t-44.5 18.5t-18.5 44.5t18.5 44.5t44.5 18.5t44.5 -18.5t18.5 -44.5zM167 656q0 -26 -18.5 -44.5t-44.5 -18.5t-44.5 18.5t-18.5 44.5t18.5 44.5t44.5 18.5t44.5 -18.5t18.5 -44.5z" />
    <glyph glyph-name="ordfeminine" unicode="&#xaa;" horiz-adv-x="458" 
d="M359 397q0 -20 12 -20q5 0 7.5 6t2.5 14v50h37v-42q0 -36 -12.5 -53.5t-45.5 -17.5q-27 0 -40 16t-18 36q-20 -24 -55 -41t-80 -17q-63 0 -92.5 25t-29.5 73q0 41 26.5 63.5t65 34.5t80 17.5t71.5 12.5v14q0 31 -17 52.5t-53 21.5q-28 0 -50.5 -5.5t-36.5 -12.5
q24 -11 24 -34q0 -19 -12 -31.5t-33 -12.5t-32.5 13t-11.5 34q0 15 10 30.5t29 28.5t47 21.5t64 8.5q30 0 56 -5.5t45.5 -19.5t30.5 -37t11 -59v-164zM288 516q-45 -9 -78 -17t-54.5 -18t-31.5 -22t-10 -30q0 -25 18.5 -37.5t52.5 -12.5q37 0 64.5 15t38.5 33v89z" />
    <glyph glyph-name="guillemotleft" unicode="&#xab;" horiz-adv-x="551" 
d="M523 446l-126 -158l126 -162l-31 -30l-222 192l223 190zM280 446l-127 -158l127 -161l-31 -31l-222 192l222 190z" />
    <glyph glyph-name="logicalnot" unicode="&#xac;" horiz-adv-x="604" 
d="M539 0h-58v325h-435v60h493v-385z" />
    <glyph glyph-name="macron" unicode="&#xaf;" horiz-adv-x="426" 
d="M380 620h-331v57h331v-57z" />
    <glyph glyph-name="degree" unicode="&#xb0;" horiz-adv-x="463" 
d="M338 571q0 21 -7.5 40t-21.5 33.5t-34 23t-45 8.5t-45 -8.5t-33.5 -23t-21 -33.5t-7.5 -40q0 -45 29.5 -75.5t77.5 -30.5q24 0 43.5 8t34 22.5t22.5 33.5t8 42zM426 571q0 -37 -15 -70t-41 -57.5t-62 -39t-78 -14.5t-77.5 14.5t-61 39t-40 57.5t-14.5 70t15 69.5t41 57
t61 38.5t76 14q40 0 76 -14t62.5 -38.5t42 -57t15.5 -69.5z" />
    <glyph glyph-name="plusminus" unicode="&#xb1;" horiz-adv-x="567" 
d="M37 0zM530 325h-215v-199h-65v199h-213v60h213v198h65v-198h215v-60zM530 0h-493v60h493v-60z" />
    <glyph glyph-name="twosuperior" unicode="&#xb2;" horiz-adv-x="430" 
d="M355 491q2 -5 2 -9v-6q0 -18 -2 -34.5t-9 -30t-20 -21.5t-35 -8q-23 0 -37.5 6t-28.5 13.5t-30.5 13.5t-42.5 6q-20 0 -32.5 -8.5t-23.5 -24.5h-28q10 46 29.5 75.5t42.5 49t47.5 32.5t44.5 27t32.5 32t12.5 47q0 26 -16.5 46.5t-55.5 20.5q-23 0 -37 -7t-22 -15
q19 -7 19 -34q0 -18 -10 -30t-30 -12t-30 12t-10 32q0 14 6.5 30.5t20.5 30.5t36.5 23.5t55.5 9.5q28 0 54 -6.5t45.5 -21t31 -37t11.5 -54.5q0 -42 -22.5 -67t-54 -42t-65 -30.5t-56.5 -32.5q18 7 44 7q18 0 31.5 -5t25 -10.5t21.5 -10.5t21 -5q8 0 17.5 8t15.5 40h31z" />
    <glyph glyph-name="threesuperior" unicode="&#xb3;" horiz-adv-x="419" 
d="M176 602q19 1 36 5.5t30 12t21 19t8 27.5q0 20 -15.5 36t-52.5 16q-17 0 -33 -4.5t-27 -17.5q22 -7 22 -34q0 -18 -11 -30t-31 -12q-18 0 -29 12t-11 32q0 14 6.5 30.5t21 30.5t38.5 23.5t59 9.5q27 0 51 -5.5t42 -17.5t28.5 -29.5t10.5 -41.5q0 -54 -65 -77
q79 -25 79 -94q0 -59 -44 -86.5t-113 -27.5q-31 0 -55.5 8.5t-41 22t-25.5 29t-9 29.5q0 20 10 32t30 12q19 0 29.5 -11.5t10.5 -30.5q0 -10 -4 -18t-13 -12q11 -10 30.5 -15t43.5 -5q42 0 61.5 18t19.5 51q0 38 -27.5 57t-85.5 23z" />
    <glyph glyph-name="acute" unicode="&#xb4;" horiz-adv-x="312" 
d="M37 601q27 15 51.5 35t48.5 38t47 31t46 13q28 0 36.5 -14t8.5 -28q0 -20 -26.5 -34.5t-62.5 -26t-72.5 -21.5t-56.5 -22z" />
    <glyph glyph-name="mu" unicode="&#xb5;" horiz-adv-x="696" 
d="M38 -203q89 0 89 45v588q0 46 -88 46v33h178v-376q0 -57 20 -78.5t62 -21.5q28 0 56 11t52.5 30.5t45.5 45t36 54.5v256q0 46 -99 46v33h191v-430q0 -45 76 -45v-34h-168v102q-13 -20 -32.5 -39.5t-45.5 -35.5t-58 -26t-71 -10q-41 0 -65 7v-156q0 -45 111 -45v-33h-290
v33v0z" />
    <glyph glyph-name="paragraph" unicode="&#xb6;" horiz-adv-x="613" 
d="M438 -83q0 -18 9.5 -30t29.5 -12q23 0 36.5 5t21.5 14q-16 3 -26.5 12t-10.5 26q0 14 10.5 26.5t33.5 12.5t32 -15t9 -30q0 -42 -28 -64t-82 -22q-45 0 -72 24.5t-27 66.5v468h-83v-457h-64v457q-48 0 -84 15.5t-59.5 40t-35.5 56t-12 64.5q0 31 11 61.5t33 54t55 38
t77 14.5h226v-826zM291 682v-219h83v219h-83z" />
    <glyph glyph-name="periodcentered" unicode="&#xb7;" horiz-adv-x="245" 
d="M191 373q0 -28 -19.5 -47.5t-47.5 -19.5t-47.5 19.5t-19.5 47.5t19.5 47.5t47.5 19.5t47.5 -19.5t19.5 -47.5z" />
    <glyph glyph-name="cedilla" unicode="&#xb8;" horiz-adv-x="241" 
d="M109 -40q17 0 34 -6t30.5 -17t22 -26.5t8.5 -34.5q0 -48 -26 -70.5t-64 -22.5q-32 0 -51 17.5t-26 37.5l19 15q11 -19 25.5 -27.5t28.5 -8.5q23 0 37 15.5t14 43.5q0 15 -7 25.5t-18.5 17t-26 9.5t-28.5 4v85h28v-57z" />
    <glyph glyph-name="onesuperior" unicode="&#xb9;" horiz-adv-x="276" 
d="M181 752q-2 -14 -3.5 -26t-1.5 -23v-267q0 -15 55 -15v-33h-184v33q65 0 65 15v231h-70l-2 32q75 1 104 62z" />
    <glyph glyph-name="ordmasculine" unicode="&#xba;" horiz-adv-x="442" 
d="M226 682q34 0 65 -9t54 -30t36.5 -54.5t13.5 -82.5q0 -81 -45.5 -129.5t-130.5 -48.5q-34 0 -65 9t-54 29t-37 52.5t-14 79.5q0 85 43 134.5t134 49.5zM226 642q-55 0 -80.5 -35t-25.5 -89q0 -44 7 -73t20 -46t31 -23.5t41 -6.5q29 0 49 10t32.5 28t18 42t5.5 53
q0 42 -7.5 69t-21 42.5t-31 22t-38.5 6.5z" />
    <glyph glyph-name="guillemotright" unicode="&#xbb;" horiz-adv-x="551" 
d="M57 96l-30 33l124 158l-124 161l30 30l222 -191zM299 96l-31 32l127 159l-127 162l31 29l224 -191z" />
    <glyph glyph-name="onequarter" unicode="&#xbc;" horiz-adv-x="936" 
d="M218 752q-2 -14 -3.5 -26t-1.5 -23v-267q0 -15 55 -15v-33h-184v33q65 0 65 15v231h-70l-2 32q75 1 104 62zM216 0h-50l552 745h54zM806 153h50l-11 -53h-39v-51q0 -16 48 -16v-33h-177v33q63 0 63 16v51h-193v33l203 237h56v-217zM619 153h121v142z" />
    <glyph glyph-name="onehalf" unicode="&#xbd;" horiz-adv-x="936" 
d="M218 752q-2 -14 -3.5 -26t-1.5 -23v-267q0 -15 55 -15v-33h-184v33q65 0 65 15v231h-70l-2 32q75 1 104 62zM216 0h-50l552 745h54zM859 103q2 -5 2 -9v-6q0 -18 -2 -34.5t-9 -30t-20 -21.5t-35 -8q-23 0 -37.5 6t-28.5 13.5t-30.5 13.5t-42.5 6q-20 0 -32.5 -8.5
t-23.5 -24.5h-28q10 46 29.5 75.5t42.5 49t47.5 32.5t44.5 27t32.5 32t12.5 47q0 26 -16.5 46.5t-55.5 20.5q-23 0 -37 -7t-22 -15q19 -7 19 -34q0 -18 -10 -30t-30 -12t-30 12t-10 32q0 14 6.5 30.5t20.5 30.5t36.5 23.5t55.5 9.5q28 0 54 -6.5t45.5 -21t31 -37t11.5 -54.5
q0 -42 -22.5 -67t-54 -42t-65 -30.5t-56.5 -32.5q18 7 44 7q18 0 31.5 -5t25 -10.5t21.5 -10.5t21 -5q8 0 17.5 8t15.5 40h31z" />
    <glyph glyph-name="threequarters" unicode="&#xbe;" horiz-adv-x="936" 
d="M216 0h-50l552 745h54zM806 153h50l-11 -53h-39v-51q0 -16 48 -16v-33h-177v33q63 0 63 16v51h-193v33l203 237h56v-217zM619 153h121v142zM169 602q19 1 36 5.5t30 12t21 19t8 27.5q0 20 -15.5 36t-52.5 16q-17 0 -33 -4.5t-27 -17.5q22 -7 22 -34q0 -18 -11 -30
t-31 -12q-18 0 -29 12t-11 32q0 14 6.5 30.5t21 30.5t38.5 23.5t59 9.5q27 0 51 -5.5t42 -17.5t28.5 -29.5t10.5 -41.5q0 -54 -65 -77q79 -25 79 -94q0 -59 -44 -86.5t-113 -27.5q-31 0 -55.5 8.5t-41 22t-25.5 29t-9 29.5q0 20 10 32t30 12q19 0 29.5 -11.5t10.5 -30.5
q0 -10 -4 -18t-13 -12q11 -10 30.5 -15t43.5 -5q42 0 61.5 18t19.5 51q0 38 -27.5 57t-85.5 23z" />
    <glyph glyph-name="questiondown" unicode="&#xbf;" horiz-adv-x="533" 
d="M320 347q-6 -51 -21 -88t-34 -65.5t-39.5 -51t-37.5 -45.5t-28 -48.5t-11 -59.5q0 -22 6 -43.5t19.5 -38.5t36 -27.5t56.5 -10.5q40 0 67 5.5t44.5 15.5t27.5 22t16 26q-26 0 -45 16.5t-19 40.5q0 28 18.5 47t52.5 19q32 0 50 -19.5t18 -50.5q0 -26 -10 -55.5t-36 -55
t-70.5 -42.5t-114.5 -17q-50 0 -91.5 7t-72.5 25t-48 49t-17 79q0 43 14.5 74t36.5 56t48.5 47t51 48.5t43.5 60t26 80.5h63zM350 521q0 -28 -19.5 -47.5t-47.5 -19.5t-47.5 19.5t-19.5 47.5t19.5 47.5t47.5 19.5t47.5 -19.5t19.5 -47.5z" />
    <glyph glyph-name="Agrave" unicode="&#xc0;" horiz-adv-x="878" 
d="M37 0zM758 65q12 -30 83 -30v-35h-330v35h99q28 0 28 20q-1 0 -1 2t-0.5 3.5t-0.5 4.5l-53 135h-343l-49 -127q-1 -5 -1.5 -8t-0.5 -4q0 -26 44 -26h67v-35h-263v36q76 0 88 28l276 679h88zM263 260h296l-149 379zM518 830q-33 15 -71.5 26t-71.5 22t-54.5 24t-21.5 32
q0 14 9.5 28t38.5 14q19 0 39.5 -11.5t44 -29t49.5 -38t58 -38.5z" />
    <glyph glyph-name="Aacute" unicode="&#xc1;" horiz-adv-x="878" 
d="M37 0zM758 65q12 -30 83 -30v-35h-330v35h99q28 0 28 20q-1 0 -1 2t-0.5 3.5t-0.5 4.5l-53 135h-343l-49 -127q-1 -5 -1.5 -8t-0.5 -4q0 -26 44 -26h67v-35h-263v36q76 0 88 28l276 679h88zM263 260h296l-149 379zM340 859q27 15 51.5 35t48.5 38t47 31t46 13
q28 0 36.5 -14t8.5 -28q0 -20 -26.5 -34.5t-62.5 -26t-72.5 -21.5t-56.5 -22z" />
    <glyph glyph-name="Acircumflex" unicode="&#xc2;" horiz-adv-x="878" 
d="M37 0zM758 65q12 -30 83 -30v-35h-330v35h99q28 0 28 20q-1 0 -1 2t-0.5 3.5t-0.5 4.5l-53 135h-343l-49 -127q-1 -5 -1.5 -8t-0.5 -4q0 -26 44 -26h67v-35h-263v36q76 0 88 28l276 679h88zM263 260h296l-149 379zM540 830l-101 58l-105 -58l-38 30l143 116l142 -117z
" />
    <glyph glyph-name="Atilde" unicode="&#xc3;" horiz-adv-x="878" 
d="M37 0zM758 65q12 -30 83 -30v-35h-330v35h99q28 0 28 20q-1 0 -1 2t-0.5 3.5t-0.5 4.5l-53 135h-343l-49 -127q-1 -5 -1.5 -8t-0.5 -4q0 -26 44 -26h67v-35h-263v36q76 0 88 28l276 679h88zM263 260h296l-149 379zM623 941q-11 -45 -43 -70t-74 -25q-23 0 -41 8t-34.5 18
t-32.5 18t-34 8q-39 0 -68 -50l-41 22q6 21 19 38.5t29.5 30t34.5 19t35 6.5q32 0 50.5 -8t32 -18t26.5 -18t34 -8q19 0 32.5 7.5t30.5 40.5z" />
    <glyph glyph-name="Adieresis" unicode="&#xc4;" horiz-adv-x="878" 
d="M37 0zM758 65q12 -30 83 -30v-35h-330v35h99q28 0 28 20q-1 0 -1 2t-0.5 3.5t-0.5 4.5l-53 135h-343l-49 -127q-1 -5 -1.5 -8t-0.5 -4q0 -26 44 -26h67v-35h-263v36q76 0 88 28l276 679h88zM263 260h296l-149 379zM612 914q0 -26 -18.5 -44.5t-44.5 -18.5t-44.5 18.5
t-18.5 44.5t18.5 44.5t44.5 18.5t44.5 -18.5t18.5 -44.5zM392 914q0 -26 -18.5 -44.5t-44.5 -18.5t-44.5 18.5t-18.5 44.5t18.5 44.5t44.5 18.5t44.5 -18.5t18.5 -44.5z" />
    <glyph glyph-name="Aring" unicode="&#xc5;" horiz-adv-x="878" 
d="M37 0zM758 65q12 -30 83 -30v-35h-330v35h99q28 0 28 20q-1 0 -1 2t-0.5 3.5t-0.5 4.5l-53 135h-343l-49 -127q-1 -5 -1.5 -8t-0.5 -4q0 -26 44 -26h67v-35h-263v36q76 0 88 28l276 679h88zM263 260h296l-149 379zM437 940q-29 0 -47 -19.5t-18 -48.5q0 -33 18 -51
t47 -18q27 0 46 18t19 51q0 29 -19 48.5t-46 19.5zM541 872q0 -21 -8 -40.5t-22.5 -33.5t-33.5 -22.5t-40 -8.5t-39.5 8.5t-32 22.5t-21.5 33.5t-8 40.5t8 40t21.5 33.5t32 22.5t39.5 8t40 -8t33.5 -22.5t22.5 -33.5t8 -40z" />
    <glyph glyph-name="AE" unicode="&#xc6;" horiz-adv-x="1170" 
d="M1100 517l-40 -3q-18 174 -145 174h-240v-273h132q74 0 83 129h38l-15 -312h-36q-10 133 -77 133h-125v-310h204q179 0 203 237l42 -7l-24 -285h-617v35q89 0 89 46v119h-319l-82 -121q-6 -9 -8 -14t-2 -9q0 -11 11 -16t28 -5h69v-35h-247v36q56 0 75 28l408 589
q11 17 11 28q0 14 -15 20.5t-35 6.5h-97v35h731v-226zM293 260h279v413z" />
    <glyph glyph-name="Ccedilla" unicode="&#xc7;" horiz-adv-x="795" 
d="M740 497l-45 -4q-13 45 -36 82.5t-56 65.5t-75.5 43.5t-94.5 15.5q-75 0 -129.5 -27t-89 -73t-51 -107t-16.5 -128q0 -80 21 -139.5t58.5 -100t90.5 -60.5t118 -20q56 0 101.5 15.5t80.5 44t59 67.5t38 86l44 -23q-14 -44 -38 -87.5t-61.5 -78.5t-89.5 -58t-121 -26v-25
q17 0 34 -6t30.5 -17t22 -26.5t8.5 -34.5q0 -48 -26 -70.5t-64 -22.5q-32 0 -51 17.5t-26 37.5l19 15q11 -19 25.5 -27.5t28.5 -8.5q23 0 37 15.5t14 43.5q0 15 -7 25.5t-18.5 17t-26 9.5t-28.5 4v52q-81 1 -151 24.5t-121.5 71t-81 118t-29.5 166.5q0 101 30 175.5t83 123
t125.5 72.5t157.5 24q42 0 78.5 -8t65.5 -21t51 -29.5t35 -32.5l28 75h49v-246z" />
    <glyph glyph-name="Egrave" unicode="&#xc8;" horiz-adv-x="744" 
d="M37 0zM674 517l-40 -3q-18 174 -145 174h-260v-273h152q74 0 83 129h38l-15 -312h-36q-10 133 -77 133h-145v-310h224q179 0 203 237l42 -7l-24 -285h-637v35q89 0 89 46v581q0 46 -89 46v35h637v-226zM451 830q-33 15 -71.5 26t-71.5 22t-54.5 24t-21.5 32q0 14 9.5 28
t38.5 14q19 0 39.5 -11.5t44 -29t49.5 -38t58 -38.5z" />
    <glyph glyph-name="Eacute" unicode="&#xc9;" horiz-adv-x="744" 
d="M37 0zM674 517l-40 -3q-18 174 -145 174h-260v-273h152q74 0 83 129h38l-15 -312h-36q-10 133 -77 133h-145v-310h224q179 0 203 237l42 -7l-24 -285h-637v35q89 0 89 46v581q0 46 -89 46v35h637v-226zM273 859q27 15 51.5 35t48.5 38t47 31t46 13q28 0 36.5 -14t8.5 -28
q0 -20 -26.5 -34.5t-62.5 -26t-72.5 -21.5t-56.5 -22z" />
    <glyph glyph-name="Ecircumflex" unicode="&#xca;" horiz-adv-x="744" 
d="M37 0zM674 517l-40 -3q-18 174 -145 174h-260v-273h152q74 0 83 129h38l-15 -312h-36q-10 133 -77 133h-145v-310h224q179 0 203 237l42 -7l-24 -285h-637v35q89 0 89 46v581q0 46 -89 46v35h637v-226zM473 830l-101 58l-105 -58l-38 30l143 116l142 -117z" />
    <glyph glyph-name="Edieresis" unicode="&#xcb;" horiz-adv-x="744" 
d="M37 0zM674 517l-40 -3q-18 174 -145 174h-260v-273h152q74 0 83 129h38l-15 -312h-36q-10 133 -77 133h-145v-310h224q179 0 203 237l42 -7l-24 -285h-637v35q89 0 89 46v581q0 46 -89 46v35h637v-226zM545 914q0 -26 -18.5 -44.5t-44.5 -18.5t-44.5 18.5t-18.5 44.5
t18.5 44.5t44.5 18.5t44.5 -18.5t18.5 -44.5zM325 914q0 -26 -18.5 -44.5t-44.5 -18.5t-44.5 18.5t-18.5 44.5t18.5 44.5t44.5 18.5t44.5 -18.5t18.5 -44.5z" />
    <glyph glyph-name="Igrave" unicode="&#xcc;" horiz-adv-x="377" 
d="M47 0zM329 708q-89 0 -89 -46v-581q0 -46 89 -46v-35h-282v35q90 0 90 46v581q0 46 -90 46v35h282v-35zM268 830q-33 15 -71.5 26t-71.5 22t-54.5 24t-21.5 32q0 14 9.5 28t38.5 14q19 0 39.5 -11.5t44 -29t49.5 -38t58 -38.5z" />
    <glyph glyph-name="Iacute" unicode="&#xcd;" horiz-adv-x="377" 
d="M47 0zM329 708q-89 0 -89 -46v-581q0 -46 89 -46v-35h-282v35q90 0 90 46v581q0 46 -90 46v35h282v-35zM89 859q27 15 51.5 35t48.5 38t47 31t46 13q28 0 36.5 -14t8.5 -28q0 -20 -26.5 -34.5t-62.5 -26t-72.5 -21.5t-56.5 -22z" />
    <glyph glyph-name="Icircumflex" unicode="&#xce;" horiz-adv-x="377" 
d="M46 0zM329 708q-89 0 -89 -46v-581q0 -46 89 -46v-35h-282v35q90 0 90 46v581q0 46 -90 46v35h282v-35zM290 830l-101 58l-105 -58l-38 30l143 116l142 -117z" />
    <glyph glyph-name="Idieresis" unicode="&#xcf;" horiz-adv-x="377" 
d="M16 0zM329 708q-89 0 -89 -46v-581q0 -46 89 -46v-35h-282v35q90 0 90 46v581q0 46 -90 46v35h282v-35zM362 914q0 -26 -18.5 -44.5t-44.5 -18.5t-44.5 18.5t-18.5 44.5t18.5 44.5t44.5 18.5t44.5 -18.5t18.5 -44.5zM142 914q0 -26 -18.5 -44.5t-44.5 -18.5t-44.5 18.5
t-18.5 44.5t18.5 44.5t44.5 18.5t44.5 -18.5t18.5 -44.5z" />
    <glyph glyph-name="Eth" unicode="&#xd0;" horiz-adv-x="827" 
d="M417 743q88 0 156.5 -14t115.5 -52.5t71.5 -107.5t24.5 -178q0 -110 -24.5 -185t-71.5 -120.5t-115.5 -65.5t-156.5 -20h-380v35q89 0 89 46v284h-89v50h89v247q0 46 -89 46v35h380zM229 688v-273h89v-50h-89v-310h204q68 0 114.5 24t75.5 68t41.5 105.5t12.5 135.5
t-12.5 130.5t-41.5 94t-75.5 56.5t-114.5 19h-204z" />
    <glyph glyph-name="Ntilde" unicode="&#xd1;" horiz-adv-x="870" 
d="M37 0zM844 708q-89 0 -89 -46v-662h-129l-440 640v-559q0 -46 89 -46v-35h-238v35q89 0 89 46v581q0 46 -89 46v35h211l447 -654v573q0 46 -89 46v35h238v-35zM619 941q-11 -45 -43 -70t-74 -25q-23 0 -41 8t-34.5 18t-32.5 18t-34 8q-39 0 -68 -50l-41 22q6 21 19 38.5
t29.5 30t34.5 19t35 6.5q32 0 50.5 -8t32 -18t26.5 -18t34 -8q19 0 32.5 7.5t30.5 40.5z" />
    <glyph glyph-name="Ograve" unicode="&#xd2;" horiz-adv-x="832" 
d="M37 0zM423 759q79 0 147.5 -20t118 -66t78 -119.5t28.5 -181.5q0 -87 -24 -158.5t-72.5 -122.5t-121 -79t-169.5 -28q-77 0 -145 19.5t-118 63.5t-79 115t-29 174q0 91 22.5 165.5t70 127t120 81.5t173.5 29zM428 700q-77 0 -130.5 -22.5t-87.5 -62.5t-49.5 -94.5
t-15.5 -118.5q0 -105 17.5 -174t51.5 -109.5t83 -57t111 -16.5q82 0 136 24.5t86 67t45.5 101t13.5 127.5q0 99 -18.5 163.5t-52.5 103t-82.5 53.5t-107.5 15zM495 830q-33 15 -71.5 26t-71.5 22t-54.5 24t-21.5 32q0 14 9.5 28t38.5 14q19 0 39.5 -11.5t44 -29t49.5 -38
t58 -38.5z" />
    <glyph glyph-name="Oacute" unicode="&#xd3;" horiz-adv-x="832" 
d="M37 0zM423 759q79 0 147.5 -20t118 -66t78 -119.5t28.5 -181.5q0 -87 -24 -158.5t-72.5 -122.5t-121 -79t-169.5 -28q-77 0 -145 19.5t-118 63.5t-79 115t-29 174q0 91 22.5 165.5t70 127t120 81.5t173.5 29zM428 700q-77 0 -130.5 -22.5t-87.5 -62.5t-49.5 -94.5
t-15.5 -118.5q0 -105 17.5 -174t51.5 -109.5t83 -57t111 -16.5q82 0 136 24.5t86 67t45.5 101t13.5 127.5q0 99 -18.5 163.5t-52.5 103t-82.5 53.5t-107.5 15zM317 859q27 15 51.5 35t48.5 38t47 31t46 13q28 0 36.5 -14t8.5 -28q0 -20 -26.5 -34.5t-62.5 -26t-72.5 -21.5
t-56.5 -22z" />
    <glyph glyph-name="Ocircumflex" unicode="&#xd4;" horiz-adv-x="832" 
d="M37 0zM423 759q79 0 147.5 -20t118 -66t78 -119.5t28.5 -181.5q0 -87 -24 -158.5t-72.5 -122.5t-121 -79t-169.5 -28q-77 0 -145 19.5t-118 63.5t-79 115t-29 174q0 91 22.5 165.5t70 127t120 81.5t173.5 29zM428 700q-77 0 -130.5 -22.5t-87.5 -62.5t-49.5 -94.5
t-15.5 -118.5q0 -105 17.5 -174t51.5 -109.5t83 -57t111 -16.5q82 0 136 24.5t86 67t45.5 101t13.5 127.5q0 99 -18.5 163.5t-52.5 103t-82.5 53.5t-107.5 15zM517 830l-101 58l-105 -58l-38 30l143 116l142 -117z" />
    <glyph glyph-name="Otilde" unicode="&#xd5;" horiz-adv-x="832" 
d="M37 0zM423 759q79 0 147.5 -20t118 -66t78 -119.5t28.5 -181.5q0 -87 -24 -158.5t-72.5 -122.5t-121 -79t-169.5 -28q-77 0 -145 19.5t-118 63.5t-79 115t-29 174q0 91 22.5 165.5t70 127t120 81.5t173.5 29zM428 700q-77 0 -130.5 -22.5t-87.5 -62.5t-49.5 -94.5
t-15.5 -118.5q0 -105 17.5 -174t51.5 -109.5t83 -57t111 -16.5q82 0 136 24.5t86 67t45.5 101t13.5 127.5q0 99 -18.5 163.5t-52.5 103t-82.5 53.5t-107.5 15zM600 941q-11 -45 -43 -70t-74 -25q-23 0 -41 8t-34.5 18t-32.5 18t-34 8q-39 0 -68 -50l-41 22q6 21 19 38.5
t29.5 30t34.5 19t35 6.5q32 0 50.5 -8t32 -18t26.5 -18t34 -8q19 0 32.5 7.5t30.5 40.5z" />
    <glyph glyph-name="Odieresis" unicode="&#xd6;" horiz-adv-x="832" 
d="M37 0zM423 759q79 0 147.5 -20t118 -66t78 -119.5t28.5 -181.5q0 -87 -24 -158.5t-72.5 -122.5t-121 -79t-169.5 -28q-77 0 -145 19.5t-118 63.5t-79 115t-29 174q0 91 22.5 165.5t70 127t120 81.5t173.5 29zM428 700q-77 0 -130.5 -22.5t-87.5 -62.5t-49.5 -94.5
t-15.5 -118.5q0 -105 17.5 -174t51.5 -109.5t83 -57t111 -16.5q82 0 136 24.5t86 67t45.5 101t13.5 127.5q0 99 -18.5 163.5t-52.5 103t-82.5 53.5t-107.5 15zM589 914q0 -26 -18.5 -44.5t-44.5 -18.5t-44.5 18.5t-18.5 44.5t18.5 44.5t44.5 18.5t44.5 -18.5t18.5 -44.5z
M369 914q0 -26 -18.5 -44.5t-44.5 -18.5t-44.5 18.5t-18.5 44.5t18.5 44.5t44.5 18.5t44.5 -18.5t18.5 -44.5z" />
    <glyph glyph-name="multiply" unicode="&#xd7;" horiz-adv-x="567" 
d="M329 355l153 -141l-47 -42l-151 140l-152 -140l-46 42l151 141l-151 140l47 42l151 -140l151 140l45 -42z" />
    <glyph glyph-name="Oslash" unicode="&#xd8;" horiz-adv-x="832" 
d="M635 711q75 -40 117.5 -122t42.5 -217q0 -87 -24 -158.5t-72.5 -122.5t-121 -79t-169.5 -28q-90 0 -162 25l-38 -69l-45 24l36 65q-74 40 -118 119t-44 208q0 91 22.5 165.5t70 127t120 81.5t173.5 29q45 0 87 -6.5t79 -20.5l34 61l44 -24zM558 675q-28 14 -60.5 19.5
t-69.5 5.5q-77 0 -130.5 -22.5t-87.5 -62.5t-49.5 -94.5t-15.5 -118.5q0 -122 23 -195t68 -111zM279 68q27 -13 59 -18t70 -5q82 0 136 24.5t86 67t45.5 101t13.5 127.5q0 111 -23.5 179t-65.5 104z" />
    <glyph glyph-name="Ugrave" unicode="&#xd9;" horiz-adv-x="854" 
d="M37 0zM820 708q-90 0 -90 -46v-359q0 -154 -72.5 -236.5t-228.5 -82.5q-158 0 -230.5 82.5t-72.5 236.5v359q0 46 -89 46v35h303v-35q-111 0 -111 -46v-359q0 -65 10.5 -113.5t36 -80.5t67.5 -48t106 -16t106.5 16t68 48t36.5 80.5t11 113.5v359q0 46 -112 46v35h261v-35
zM506 830q-33 15 -71.5 26t-71.5 22t-54.5 24t-21.5 32q0 14 9.5 28t38.5 14q19 0 39.5 -11.5t44 -29t49.5 -38t58 -38.5z" />
    <glyph glyph-name="Uacute" unicode="&#xda;" horiz-adv-x="854" 
d="M37 0zM820 708q-90 0 -90 -46v-359q0 -154 -72.5 -236.5t-228.5 -82.5q-158 0 -230.5 82.5t-72.5 236.5v359q0 46 -89 46v35h303v-35q-111 0 -111 -46v-359q0 -65 10.5 -113.5t36 -80.5t67.5 -48t106 -16t106.5 16t68 48t36.5 80.5t11 113.5v359q0 46 -112 46v35h261v-35
zM328 859q27 15 51.5 35t48.5 38t47 31t46 13q28 0 36.5 -14t8.5 -28q0 -20 -26.5 -34.5t-62.5 -26t-72.5 -21.5t-56.5 -22z" />
    <glyph glyph-name="Ucircumflex" unicode="&#xdb;" horiz-adv-x="854" 
d="M37 0zM820 708q-90 0 -90 -46v-359q0 -154 -72.5 -236.5t-228.5 -82.5q-158 0 -230.5 82.5t-72.5 236.5v359q0 46 -89 46v35h303v-35q-111 0 -111 -46v-359q0 -65 10.5 -113.5t36 -80.5t67.5 -48t106 -16t106.5 16t68 48t36.5 80.5t11 113.5v359q0 46 -112 46v35h261v-35
zM528 830l-101 58l-105 -58l-38 30l143 116l142 -117z" />
    <glyph glyph-name="Udieresis" unicode="&#xdc;" horiz-adv-x="854" 
d="M37 0zM820 708q-90 0 -90 -46v-359q0 -154 -72.5 -236.5t-228.5 -82.5q-158 0 -230.5 82.5t-72.5 236.5v359q0 46 -89 46v35h303v-35q-111 0 -111 -46v-359q0 -65 10.5 -113.5t36 -80.5t67.5 -48t106 -16t106.5 16t68 48t36.5 80.5t11 113.5v359q0 46 -112 46v35h261v-35
zM600 914q0 -26 -18.5 -44.5t-44.5 -18.5t-44.5 18.5t-18.5 44.5t18.5 44.5t44.5 18.5t44.5 -18.5t18.5 -44.5zM380 914q0 -26 -18.5 -44.5t-44.5 -18.5t-44.5 18.5t-18.5 44.5t18.5 44.5t44.5 18.5t44.5 -18.5t18.5 -44.5z" />
    <glyph glyph-name="Yacute" unicode="&#xdd;" horiz-adv-x="821" 
d="M28 0zM789 707q-40 0 -60 -7.5t-28 -20.5l-246 -365v-233q0 -46 100 -46v-35h-303v35q100 0 100 46v233l-241 364q-12 17 -34 23.5t-49 6.5v35h330v-35h-99q-30 0 -30 -20q0 -6 4 -13l204 -305l198 300q4 7 4 14q0 11 -12.5 17.5t-33.5 6.5h-67v35h263v-36zM311 859
q27 15 51.5 35t48.5 38t47 31t46 13q28 0 36.5 -14t8.5 -28q0 -20 -26.5 -34.5t-62.5 -26t-72.5 -21.5t-56.5 -22z" />
    <glyph glyph-name="Thorn" unicode="&#xde;" horiz-adv-x="702" 
d="M340 708q-111 0 -111 -46v-69h144q63 0 117 -9.5t94 -34t62.5 -66.5t22.5 -107t-22.5 -107t-62.5 -66.5t-94 -34t-117 -9.5h-144v-78q0 -46 111 -46v-35h-303v35q89 0 89 46v581q0 46 -89 46v35h303v-35zM229 533v-314h157q88 0 129.5 42t41.5 115t-41.5 115t-129.5 42
h-157z" />
    <glyph glyph-name="germandbls" unicode="&#xdf;" horiz-adv-x="664" 
d="M205 0h-179v34q88 0 88 45v499q0 55 17.5 93.5t46 62.5t66 35t77.5 11q48 0 84 -12.5t59 -34t34.5 -50.5t11.5 -61q0 -35 -6.5 -61.5t-18.5 -46.5t-29.5 -34t-39.5 -25q49 -4 86 -25t61.5 -54t36.5 -75.5t12 -90.5q0 -53 -11 -95t-35 -71t-61.5 -45t-90.5 -16
q-67 0 -108.5 27t-55.5 65l31 21q17 -35 52.5 -53t71.5 -18q61 0 89 51t28 135q0 52 -9 92t-31 68t-59 42.5t-94 14.5v34q52 3 76 39t24 109q0 30 -4 54.5t-15.5 42.5t-32.5 27.5t-55 9.5q-24 0 -45 -8t-37 -25.5t-25.5 -45.5t-9.5 -67v-598z" />
    <glyph glyph-name="agrave" unicode="&#xe0;" horiz-adv-x="644" 
d="M39 0zM520 83q0 -45 30 -45q14 0 21.5 14t7.5 31v68h36v-58q0 -51 -17.5 -75.5t-65.5 -24.5q-23 0 -39 9t-25.5 23.5t-14.5 32.5t-7 36q-12 -22 -34 -42t-51.5 -35.5t-64.5 -24.5t-73 -9q-96 0 -140 38.5t-44 107.5q0 40 17.5 67.5t47.5 46t69 30t82 20t87.5 15.5
t85.5 17v31q0 57 -30 94t-94 37q-61 0 -101.5 -13t-60.5 -32q20 -2 35 -15.5t15 -34.5q0 -25 -16 -41.5t-45 -16.5t-44.5 17t-15.5 45q0 22 15 46t44.5 43t72 31.5t98.5 12.5q46 0 86 -8.5t69.5 -29t46.5 -56t17 -89.5v-263zM429 289q-79 -16 -136 -30.5t-94 -31.5
t-54.5 -39.5t-17.5 -54.5q0 -46 32.5 -68.5t93.5 -22.5q31 0 58.5 7.5t50.5 19.5t40 27.5t27 30.5v162zM392 572q-33 15 -71.5 26t-71.5 22t-54.5 24t-21.5 32q0 14 9.5 28t38.5 14q19 0 39.5 -11.5t44 -29t49.5 -38t58 -38.5z" />
    <glyph glyph-name="aacute" unicode="&#xe1;" horiz-adv-x="644" 
d="M39 0zM520 83q0 -45 30 -45q14 0 21.5 14t7.5 31v68h36v-58q0 -51 -17.5 -75.5t-65.5 -24.5q-23 0 -39 9t-25.5 23.5t-14.5 32.5t-7 36q-12 -22 -34 -42t-51.5 -35.5t-64.5 -24.5t-73 -9q-96 0 -140 38.5t-44 107.5q0 40 17.5 67.5t47.5 46t69 30t82 20t87.5 15.5
t85.5 17v31q0 57 -30 94t-94 37q-61 0 -101.5 -13t-60.5 -32q20 -2 35 -15.5t15 -34.5q0 -25 -16 -41.5t-45 -16.5t-44.5 17t-15.5 45q0 22 15 46t44.5 43t72 31.5t98.5 12.5q46 0 86 -8.5t69.5 -29t46.5 -56t17 -89.5v-263zM429 289q-79 -16 -136 -30.5t-94 -31.5
t-54.5 -39.5t-17.5 -54.5q0 -46 32.5 -68.5t93.5 -22.5q31 0 58.5 7.5t50.5 19.5t40 27.5t27 30.5v162zM215 601q27 15 51.5 35t48.5 38t47 31t46 13q28 0 36.5 -14t8.5 -28q0 -20 -26.5 -34.5t-62.5 -26t-72.5 -21.5t-56.5 -22z" />
    <glyph glyph-name="acircumflex" unicode="&#xe2;" horiz-adv-x="644" 
d="M39 0zM520 83q0 -45 30 -45q14 0 21.5 14t7.5 31v68h36v-58q0 -51 -17.5 -75.5t-65.5 -24.5q-23 0 -39 9t-25.5 23.5t-14.5 32.5t-7 36q-12 -22 -34 -42t-51.5 -35.5t-64.5 -24.5t-73 -9q-96 0 -140 38.5t-44 107.5q0 40 17.5 67.5t47.5 46t69 30t82 20t87.5 15.5
t85.5 17v31q0 57 -30 94t-94 37q-61 0 -101.5 -13t-60.5 -32q20 -2 35 -15.5t15 -34.5q0 -25 -16 -41.5t-45 -16.5t-44.5 17t-15.5 45q0 22 15 46t44.5 43t72 31.5t98.5 12.5q46 0 86 -8.5t69.5 -29t46.5 -56t17 -89.5v-263zM429 289q-79 -16 -136 -30.5t-94 -31.5
t-54.5 -39.5t-17.5 -54.5q0 -46 32.5 -68.5t93.5 -22.5q31 0 58.5 7.5t50.5 19.5t40 27.5t27 30.5v162zM414 572l-101 58l-105 -58l-38 30l143 116l142 -117z" />
    <glyph glyph-name="atilde" unicode="&#xe3;" horiz-adv-x="644" 
d="M39 0zM520 83q0 -45 30 -45q14 0 21.5 14t7.5 31v68h36v-58q0 -51 -17.5 -75.5t-65.5 -24.5q-23 0 -39 9t-25.5 23.5t-14.5 32.5t-7 36q-12 -22 -34 -42t-51.5 -35.5t-64.5 -24.5t-73 -9q-96 0 -140 38.5t-44 107.5q0 40 17.5 67.5t47.5 46t69 30t82 20t87.5 15.5
t85.5 17v31q0 57 -30 94t-94 37q-61 0 -101.5 -13t-60.5 -32q20 -2 35 -15.5t15 -34.5q0 -25 -16 -41.5t-45 -16.5t-44.5 17t-15.5 45q0 22 15 46t44.5 43t72 31.5t98.5 12.5q46 0 86 -8.5t69.5 -29t46.5 -56t17 -89.5v-263zM429 289q-79 -16 -136 -30.5t-94 -31.5
t-54.5 -39.5t-17.5 -54.5q0 -46 32.5 -68.5t93.5 -22.5q31 0 58.5 7.5t50.5 19.5t40 27.5t27 30.5v162zM494 683q-11 -45 -43 -70t-74 -25q-23 0 -41 8t-34.5 18t-32.5 18t-34 8q-39 0 -68 -50l-41 22q6 21 19 38.5t29.5 30t34.5 19t35 6.5q32 0 50.5 -8t32 -18t26.5 -18
t34 -8q19 0 32.5 7.5t30.5 40.5z" />
    <glyph glyph-name="adieresis" unicode="&#xe4;" horiz-adv-x="644" 
d="M39 0zM520 83q0 -45 30 -45q14 0 21.5 14t7.5 31v68h36v-58q0 -51 -17.5 -75.5t-65.5 -24.5q-23 0 -39 9t-25.5 23.5t-14.5 32.5t-7 36q-12 -22 -34 -42t-51.5 -35.5t-64.5 -24.5t-73 -9q-96 0 -140 38.5t-44 107.5q0 40 17.5 67.5t47.5 46t69 30t82 20t87.5 15.5
t85.5 17v31q0 57 -30 94t-94 37q-61 0 -101.5 -13t-60.5 -32q20 -2 35 -15.5t15 -34.5q0 -25 -16 -41.5t-45 -16.5t-44.5 17t-15.5 45q0 22 15 46t44.5 43t72 31.5t98.5 12.5q46 0 86 -8.5t69.5 -29t46.5 -56t17 -89.5v-263zM429 289q-79 -16 -136 -30.5t-94 -31.5
t-54.5 -39.5t-17.5 -54.5q0 -46 32.5 -68.5t93.5 -22.5q31 0 58.5 7.5t50.5 19.5t40 27.5t27 30.5v162zM484 656q0 -26 -18.5 -44.5t-44.5 -18.5t-44.5 18.5t-18.5 44.5t18.5 44.5t44.5 18.5t44.5 -18.5t18.5 -44.5zM264 656q0 -26 -18.5 -44.5t-44.5 -18.5t-44.5 18.5
t-18.5 44.5t18.5 44.5t44.5 18.5t44.5 -18.5t18.5 -44.5z" />
    <glyph glyph-name="aring" unicode="&#xe5;" horiz-adv-x="644" 
d="M39 0zM520 83q0 -45 30 -45q14 0 21.5 14t7.5 31v68h36v-58q0 -51 -17.5 -75.5t-65.5 -24.5q-23 0 -39 9t-25.5 23.5t-14.5 32.5t-7 36q-12 -22 -34 -42t-51.5 -35.5t-64.5 -24.5t-73 -9q-96 0 -140 38.5t-44 107.5q0 40 17.5 67.5t47.5 46t69 30t82 20t87.5 15.5
t85.5 17v31q0 57 -30 94t-94 37q-61 0 -101.5 -13t-60.5 -32q20 -2 35 -15.5t15 -34.5q0 -25 -16 -41.5t-45 -16.5t-44.5 17t-15.5 45q0 22 15 46t44.5 43t72 31.5t98.5 12.5q46 0 86 -8.5t69.5 -29t46.5 -56t17 -89.5v-263zM429 289q-79 -16 -136 -30.5t-94 -31.5
t-54.5 -39.5t-17.5 -54.5q0 -46 32.5 -68.5t93.5 -22.5q31 0 58.5 7.5t50.5 19.5t40 27.5t27 30.5v162zM312 716q-29 0 -47 -19.5t-18 -48.5q0 -33 18 -51t47 -18q27 0 46 18t19 51q0 29 -19 48.5t-46 19.5zM416 648q0 -21 -8 -40.5t-22.5 -33.5t-33.5 -22.5t-40 -8.5
t-39.5 8.5t-32 22.5t-21.5 33.5t-8 40.5t8 40t21.5 33.5t32 22.5t39.5 8t40 -8t33.5 -22.5t22.5 -33.5t8 -40z" />
    <glyph glyph-name="ae" unicode="&#xe6;" horiz-adv-x="970" 
d="M516 271q0 -115 42.5 -180.5t127.5 -65.5q65 0 115 30.5t70 105.5l40 -15q-10 -32 -27.5 -61.5t-44.5 -52t-64.5 -36t-88.5 -13.5q-34 0 -68 6t-64 21t-55 39.5t-41 61.5q-42 -60 -98 -94t-137 -34q-96 0 -140 38.5t-44 107.5q0 40 17.5 67.5t47.5 46t69 30t82 20
t87.5 15.5t85.5 17v31q0 57 -30 94t-94 37q-61 0 -101.5 -13t-60.5 -32q20 -2 35 -15.5t15 -34.5q0 -25 -16 -41.5t-45 -16.5t-44.5 17t-15.5 45q0 22 15 46t44.5 43t72 31.5t98.5 12.5q67 0 116 -19t72 -69q33 42 83 65t119 23q118 0 179 -67.5t61 -190.5h-415zM429 289
q-79 -16 -136 -30.5t-94 -31.5t-54.5 -39.5t-17.5 -54.5q0 -46 32.5 -68.5t93.5 -22.5q31 0 58.5 7.5t50.5 19.5t40 27.5t27 30.5v162zM837 309q0 81 -40 129.5t-110 48.5q-32 0 -61 -10t-52 -31t-38 -55t-19 -82h320z" />
    <glyph glyph-name="ccedilla" unicode="&#xe7;" horiz-adv-x="560" 
d="M521 174q-6 -35 -21 -68.5t-40.5 -60t-62.5 -43.5t-88 -19v-25q18 0 35.5 -6.5t32 -18t23 -28t8.5 -35.5q0 -51 -27 -74.5t-67 -23.5q-34 0 -53.5 18.5t-27.5 39.5l20 16q12 -20 27 -29t30 -9q23 0 38 16.5t15 45.5q0 16 -7.5 27t-19.5 17.5t-27 10t-30 4.5v55
q-52 3 -95 20.5t-74.5 50.5t-49 81t-17.5 112q0 70 20 123t56 88t84.5 52.5t105.5 17.5q45 0 82.5 -12t65 -31.5t42.5 -43t15 -46.5q0 -28 -15.5 -45t-44.5 -17t-45 16.5t-16 41.5q0 21 15.5 34.5t35.5 15.5q-20 19 -48.5 32t-81.5 13q-180 0 -180 -226q0 -64 14.5 -108.5
t39 -73t56 -41.5t65.5 -13q30 0 58 8.5t50.5 27t39 48.5t23.5 72z" />
    <glyph glyph-name="egrave" unicode="&#xe8;" horiz-adv-x="584" 
d="M43 0zM133 271q0 -114 43 -180t127 -66q65 0 115.5 30.5t70.5 105.5l40 -15q-10 -32 -27.5 -61.5t-44.5 -52t-65 -36t-89 -13.5q-46 0 -92.5 12t-83.5 42.5t-60.5 83.5t-23.5 134q0 60 18 110.5t52 87t83.5 56.5t112.5 20q118 0 179 -67.5t61 -190.5h-416zM455 309
q0 81 -39.5 129.5t-111.5 48.5q-32 0 -61 -10t-52 -31t-38 -55t-19 -82h321zM362 572q-33 15 -71.5 26t-71.5 22t-54.5 24t-21.5 32q0 14 9.5 28t38.5 14q19 0 39.5 -11.5t44 -29t49.5 -38t58 -38.5z" />
    <glyph glyph-name="eacute" unicode="&#xe9;" horiz-adv-x="584" 
d="M43 0zM133 271q0 -114 43 -180t127 -66q65 0 115.5 30.5t70.5 105.5l40 -15q-10 -32 -27.5 -61.5t-44.5 -52t-65 -36t-89 -13.5q-46 0 -92.5 12t-83.5 42.5t-60.5 83.5t-23.5 134q0 60 18 110.5t52 87t83.5 56.5t112.5 20q118 0 179 -67.5t61 -190.5h-416zM455 309
q0 81 -39.5 129.5t-111.5 48.5q-32 0 -61 -10t-52 -31t-38 -55t-19 -82h321zM186 601q27 15 51.5 35t48.5 38t47 31t46 13q28 0 36.5 -14t8.5 -28q0 -20 -26.5 -34.5t-62.5 -26t-72.5 -21.5t-56.5 -22z" />
    <glyph glyph-name="ecircumflex" unicode="&#xea;" horiz-adv-x="584" 
d="M43 0zM133 271q0 -114 43 -180t127 -66q65 0 115.5 30.5t70.5 105.5l40 -15q-10 -32 -27.5 -61.5t-44.5 -52t-65 -36t-89 -13.5q-46 0 -92.5 12t-83.5 42.5t-60.5 83.5t-23.5 134q0 60 18 110.5t52 87t83.5 56.5t112.5 20q118 0 179 -67.5t61 -190.5h-416zM455 309
q0 81 -39.5 129.5t-111.5 48.5q-32 0 -61 -10t-52 -31t-38 -55t-19 -82h321zM384 572l-101 58l-105 -58l-38 30l143 116l142 -117z" />
    <glyph glyph-name="edieresis" unicode="&#xeb;" horiz-adv-x="584" 
d="M43 0zM133 271q0 -114 43 -180t127 -66q65 0 115.5 30.5t70.5 105.5l40 -15q-10 -32 -27.5 -61.5t-44.5 -52t-65 -36t-89 -13.5q-46 0 -92.5 12t-83.5 42.5t-60.5 83.5t-23.5 134q0 60 18 110.5t52 87t83.5 56.5t112.5 20q118 0 179 -67.5t61 -190.5h-416zM455 309
q0 81 -39.5 129.5t-111.5 48.5q-32 0 -61 -10t-52 -31t-38 -55t-19 -82h321zM454 656q0 -26 -18.5 -44.5t-44.5 -18.5t-44.5 18.5t-18.5 44.5t18.5 44.5t44.5 18.5t44.5 -18.5t18.5 -44.5zM234 656q0 -26 -18.5 -44.5t-44.5 -18.5t-44.5 18.5t-18.5 44.5t18.5 44.5
t44.5 18.5t44.5 -18.5t18.5 -44.5z" />
    <glyph glyph-name="igrave" unicode="&#xec;" horiz-adv-x="344" 
d="M8 0zM217 79q0 -45 89 -45v-34h-267v34q88 0 88 45v351q0 46 -88 46v33h178v-430zM227 572q-33 15 -71.5 26t-71.5 22t-54.5 24t-21.5 32q0 14 9.5 28t38.5 14q19 0 39.5 -11.5t44 -29t49.5 -38t58 -38.5z" />
    <glyph glyph-name="iacute" unicode="&#xed;" horiz-adv-x="344" 
d="M39 0zM217 79q0 -45 89 -45v-34h-267v34q88 0 88 45v351q0 46 -88 46v33h178v-430zM63 601q27 15 51.5 35t48.5 38t47 31t46 13q28 0 36.5 -14t8.5 -28q0 -20 -26.5 -34.5t-62.5 -26t-72.5 -21.5t-56.5 -22z" />
    <glyph glyph-name="icircumflex" unicode="&#xee;" horiz-adv-x="344" 
d="M22 0zM217 79q0 -45 89 -45v-34h-267v34q88 0 88 45v351q0 46 -88 46v33h178v-430zM266 572l-101 58l-105 -58l-38 30l143 116l142 -117z" />
    <glyph glyph-name="idieresis" unicode="&#xef;" horiz-adv-x="344" 
d="M0 0zM217 79q0 -45 89 -45v-34h-267v34q88 0 88 45v351q0 46 -88 46v33h178v-430zM337 656q0 -26 -18.5 -44.5t-44.5 -18.5t-44.5 18.5t-18.5 44.5t18.5 44.5t44.5 18.5t44.5 -18.5t18.5 -44.5zM117 656q0 -26 -18.5 -44.5t-44.5 -18.5t-44.5 18.5t-18.5 44.5t18.5 44.5
t44.5 18.5t44.5 -18.5t18.5 -44.5z" />
    <glyph glyph-name="eth" unicode="&#xf0;" horiz-adv-x="612" 
d="M480 738l-87 -80q85 -91 134.5 -192.5t49.5 -204.5q0 -136 -69.5 -207t-203.5 -71q-53 0 -100 15t-83 45t-57 74t-21 102q0 130 67 201t205 71q32 0 61.5 -4.5t56.5 -15.5q-15 48 -37 81.5t-48 63.5l-93 -85l-27 32l92 85q-21 23 -44.5 43t-48.5 37l22 41
q31 -17 59 -37.5t54 -45.5l91 83zM316 449q-47 0 -81 -15.5t-56.5 -42t-33.5 -62.5t-11 -78q0 -64 12.5 -107t35 -69.5t53.5 -38t69 -11.5q50 0 84.5 15.5t56 42.5t31 63.5t9.5 78.5q0 41 -6.5 81.5t-25 72t-51.5 51t-86 19.5z" />
    <glyph glyph-name="ntilde" unicode="&#xf1;" horiz-adv-x="733" 
d="M39 0zM606 79q0 -45 89 -45v-34h-257v34q78 0 78 45v285q0 62 -23 87.5t-60 25.5q-29 0 -61 -12t-61.5 -31.5t-54 -45t-39.5 -53.5v-256q0 -45 78 -45v-34h-256v34q88 0 88 45v351q0 46 -88 46v33h178v-102q42 45 100.5 78.5t131.5 33.5q72 0 114.5 -34t42.5 -115v-291z
M539 683q-11 -45 -43 -70t-74 -25q-23 0 -41 8t-34.5 18t-32.5 18t-34 8q-39 0 -68 -50l-41 22q6 21 19 38.5t29.5 30t34.5 19t35 6.5q32 0 50.5 -8t32 -18t26.5 -18t34 -8q19 0 32.5 7.5t30.5 40.5z" />
    <glyph glyph-name="ograve" unicode="&#xf2;" horiz-adv-x="612" 
d="M43 0zM315 529q54 0 101.5 -14t83.5 -46t56.5 -84t20.5 -128q0 -62 -18 -112.5t-52.5 -86.5t-85.5 -55.5t-117 -19.5q-53 0 -100 13.5t-83 44.5t-57 81t-21 123q0 64 17 116.5t50.5 90t84.5 57.5t120 20zM316 487q-47 0 -81 -16t-56.5 -44t-33.5 -66.5t-11 -83.5
q0 -74 12.5 -123t35 -77.5t53.5 -40t69 -11.5q50 0 84.5 17t56 47.5t31 72t9.5 89.5q0 70 -13 115.5t-35.5 72.5t-53.5 37.5t-67 10.5zM377 572q-33 15 -71.5 26t-71.5 22t-54.5 24t-21.5 32q0 14 9.5 28t38.5 14q19 0 39.5 -11.5t44 -29t49.5 -38t58 -38.5z" />
    <glyph glyph-name="oacute" unicode="&#xf3;" horiz-adv-x="612" 
d="M43 0zM315 529q54 0 101.5 -14t83.5 -46t56.5 -84t20.5 -128q0 -62 -18 -112.5t-52.5 -86.5t-85.5 -55.5t-117 -19.5q-53 0 -100 13.5t-83 44.5t-57 81t-21 123q0 64 17 116.5t50.5 90t84.5 57.5t120 20zM316 487q-47 0 -81 -16t-56.5 -44t-33.5 -66.5t-11 -83.5
q0 -74 12.5 -123t35 -77.5t53.5 -40t69 -11.5q50 0 84.5 17t56 47.5t31 72t9.5 89.5q0 70 -13 115.5t-35.5 72.5t-53.5 37.5t-67 10.5zM200 601q27 15 51.5 35t48.5 38t47 31t46 13q28 0 36.5 -14t8.5 -28q0 -20 -26.5 -34.5t-62.5 -26t-72.5 -21.5t-56.5 -22z" />
    <glyph glyph-name="ocircumflex" unicode="&#xf4;" horiz-adv-x="612" 
d="M43 0zM315 529q54 0 101.5 -14t83.5 -46t56.5 -84t20.5 -128q0 -62 -18 -112.5t-52.5 -86.5t-85.5 -55.5t-117 -19.5q-53 0 -100 13.5t-83 44.5t-57 81t-21 123q0 64 17 116.5t50.5 90t84.5 57.5t120 20zM316 487q-47 0 -81 -16t-56.5 -44t-33.5 -66.5t-11 -83.5
q0 -74 12.5 -123t35 -77.5t53.5 -40t69 -11.5q50 0 84.5 17t56 47.5t31 72t9.5 89.5q0 70 -13 115.5t-35.5 72.5t-53.5 37.5t-67 10.5zM399 572l-101 58l-105 -58l-38 30l143 116l142 -117z" />
    <glyph glyph-name="otilde" unicode="&#xf5;" horiz-adv-x="612" 
d="M43 0zM315 529q54 0 101.5 -14t83.5 -46t56.5 -84t20.5 -128q0 -62 -18 -112.5t-52.5 -86.5t-85.5 -55.5t-117 -19.5q-53 0 -100 13.5t-83 44.5t-57 81t-21 123q0 64 17 116.5t50.5 90t84.5 57.5t120 20zM316 487q-47 0 -81 -16t-56.5 -44t-33.5 -66.5t-11 -83.5
q0 -74 12.5 -123t35 -77.5t53.5 -40t69 -11.5q50 0 84.5 17t56 47.5t31 72t9.5 89.5q0 70 -13 115.5t-35.5 72.5t-53.5 37.5t-67 10.5zM478 683q-11 -45 -43 -70t-74 -25q-23 0 -41 8t-34.5 18t-32.5 18t-34 8q-39 0 -68 -50l-41 22q6 21 19 38.5t29.5 30t34.5 19t35 6.5
q32 0 50.5 -8t32 -18t26.5 -18t34 -8q19 0 32.5 7.5t30.5 40.5z" />
    <glyph glyph-name="odieresis" unicode="&#xf6;" horiz-adv-x="612" 
d="M43 0zM315 529q54 0 101.5 -14t83.5 -46t56.5 -84t20.5 -128q0 -62 -18 -112.5t-52.5 -86.5t-85.5 -55.5t-117 -19.5q-53 0 -100 13.5t-83 44.5t-57 81t-21 123q0 64 17 116.5t50.5 90t84.5 57.5t120 20zM316 487q-47 0 -81 -16t-56.5 -44t-33.5 -66.5t-11 -83.5
q0 -74 12.5 -123t35 -77.5t53.5 -40t69 -11.5q50 0 84.5 17t56 47.5t31 72t9.5 89.5q0 70 -13 115.5t-35.5 72.5t-53.5 37.5t-67 10.5zM468 656q0 -26 -18.5 -44.5t-44.5 -18.5t-44.5 18.5t-18.5 44.5t18.5 44.5t44.5 18.5t44.5 -18.5t18.5 -44.5zM248 656
q0 -26 -18.5 -44.5t-44.5 -18.5t-44.5 18.5t-18.5 44.5t18.5 44.5t44.5 18.5t44.5 -18.5t18.5 -44.5z" />
    <glyph glyph-name="divide" unicode="&#xf7;" horiz-adv-x="567" 
d="M530 325h-493v60h493v-60zM352 542q0 -28 -19.5 -47.5t-47.5 -19.5t-47.5 19.5t-19.5 47.5t19.5 47.5t47.5 19.5t47.5 -19.5t19.5 -47.5zM352 164q0 -28 -19.5 -47.5t-47.5 -19.5t-47.5 19.5t-19.5 47.5t19.5 47.5t47.5 19.5t47.5 -19.5t19.5 -47.5z" />
    <glyph glyph-name="oslash" unicode="&#xf8;" horiz-adv-x="612" 
d="M479 485q45 -31 71.5 -85.5t26.5 -142.5q0 -62 -18 -112.5t-52.5 -86.5t-85.5 -55.5t-117 -19.5q-25 0 -49.5 3t-46.5 10l-33 -59l-47 25l29 54q-51 29 -82.5 83.5t-31.5 145.5q0 64 17 116.5t50.5 90t84.5 57.5t120 20q32 0 61.5 -4.5t55.5 -15.5l32 58l46 -25zM406 464
q-19 13 -41.5 18t-48.5 5q-47 0 -81 -16t-56.5 -44t-33.5 -66.5t-11 -83.5q0 -81 13.5 -130.5t39.5 -77.5zM231 38q17 -8 35 -10.5t38 -2.5q50 0 84.5 17t56 47.5t31 72t9.5 89.5q0 63 -10.5 105.5t-28.5 69.5z" />
    <glyph glyph-name="ugrave" unicode="&#xf9;" horiz-adv-x="696" 
d="M39 0zM581 79q0 -45 76 -45v-34h-168v102q-13 -20 -32.5 -39.5t-45.5 -35.5t-58 -26t-71 -10q-79 0 -117 33.5t-38 115.5v290q0 46 -88 46v33h178v-364q0 -63 18.5 -87.5t63.5 -24.5q28 0 56 11t52.5 30.5t45.5 45t36 54.5v256q0 46 -99 46v33h191v-430zM419 572
q-33 15 -71.5 26t-71.5 22t-54.5 24t-21.5 32q0 14 9.5 28t38.5 14q19 0 39.5 -11.5t44 -29t49.5 -38t58 -38.5z" />
    <glyph glyph-name="uacute" unicode="&#xfa;" horiz-adv-x="696" 
d="M39 0zM581 79q0 -45 76 -45v-34h-168v102q-13 -20 -32.5 -39.5t-45.5 -35.5t-58 -26t-71 -10q-79 0 -117 33.5t-38 115.5v290q0 46 -88 46v33h178v-364q0 -63 18.5 -87.5t63.5 -24.5q28 0 56 11t52.5 30.5t45.5 45t36 54.5v256q0 46 -99 46v33h191v-430zM242 601
q27 15 51.5 35t48.5 38t47 31t46 13q28 0 36.5 -14t8.5 -28q0 -20 -26.5 -34.5t-62.5 -26t-72.5 -21.5t-56.5 -22z" />
    <glyph glyph-name="ucircumflex" unicode="&#xfb;" horiz-adv-x="696" 
d="M39 0zM581 79q0 -45 76 -45v-34h-168v102q-13 -20 -32.5 -39.5t-45.5 -35.5t-58 -26t-71 -10q-79 0 -117 33.5t-38 115.5v290q0 46 -88 46v33h178v-364q0 -63 18.5 -87.5t63.5 -24.5q28 0 56 11t52.5 30.5t45.5 45t36 54.5v256q0 46 -99 46v33h191v-430zM441 572l-101 58
l-105 -58l-38 30l143 116l142 -117z" />
    <glyph glyph-name="udieresis" unicode="&#xfc;" horiz-adv-x="696" 
d="M39 0zM581 79q0 -45 76 -45v-34h-168v102q-13 -20 -32.5 -39.5t-45.5 -35.5t-58 -26t-71 -10q-79 0 -117 33.5t-38 115.5v290q0 46 -88 46v33h178v-364q0 -63 18.5 -87.5t63.5 -24.5q28 0 56 11t52.5 30.5t45.5 45t36 54.5v256q0 46 -99 46v33h191v-430zM510 656
q0 -26 -18.5 -44.5t-44.5 -18.5t-44.5 18.5t-18.5 44.5t18.5 44.5t44.5 18.5t44.5 -18.5t18.5 -44.5zM290 656q0 -26 -18.5 -44.5t-44.5 -18.5t-44.5 18.5t-18.5 44.5t18.5 44.5t44.5 18.5t44.5 -18.5t18.5 -44.5z" />
    <glyph glyph-name="yacute" unicode="&#xfd;" horiz-adv-x="673" 
d="M30 0zM639 476q-33 0 -51.5 -8.5t-26.5 -25.5l-234 -552q-13 -30 -26 -51.5t-30 -35.5t-39.5 -21t-53.5 -7q-69 0 -108.5 33.5t-39.5 82.5q0 11 3 22.5t9.5 21t18 15.5t28.5 6q33 0 47.5 -17.5t14.5 -37.5q0 -25 -14.5 -38t-37.5 -17q9 -15 27.5 -25.5t59.5 -10.5
q27 0 52 20.5t43 66.5l25 64l-202 480q-15 35 -73 35v33h265v-33h-65q-30 0 -30 -18q0 -10 3 -17l152 -374l155 366q3 7 3 14q0 29 -47 29h-41v33h213v-33zM230 601q27 15 51.5 35t48.5 38t47 31t46 13q28 0 36.5 -14t8.5 -28q0 -20 -26.5 -34.5t-62.5 -26t-72.5 -21.5
t-56.5 -22z" />
    <glyph glyph-name="thorn" unicode="&#xfe;" horiz-adv-x="638" 
d="M182 451q20 35 64 56.5t104 21.5q50 0 96 -11.5t81.5 -42t56.5 -84t21 -136.5q0 -72 -23.5 -123.5t-61 -84.5t-84.5 -48.5t-95 -15.5q-54 0 -95.5 14t-64.5 39v-194q0 -45 111 -45v-33h-290v33q88 0 88 45v850q0 45 -88 45v33h180v-319zM343 487q-45 0 -77 -17t-53 -45.5
t-30.5 -66.5t-9.5 -81q0 -54 8.5 -100t28 -80t52.5 -53t81 -19q50 0 83.5 20t53.5 52.5t28.5 74t8.5 84.5q0 46 -9.5 88t-30 73.5t-53.5 50.5t-81 19z" />
    <glyph glyph-name="ydieresis" unicode="&#xff;" horiz-adv-x="673" 
d="M30 0zM639 476q-33 0 -51.5 -8.5t-26.5 -25.5l-234 -552q-13 -30 -26 -51.5t-30 -35.5t-39.5 -21t-53.5 -7q-69 0 -108.5 33.5t-39.5 82.5q0 11 3 22.5t9.5 21t18 15.5t28.5 6q33 0 47.5 -17.5t14.5 -37.5q0 -25 -14.5 -38t-37.5 -17q9 -15 27.5 -25.5t59.5 -10.5
q27 0 52 20.5t43 66.5l25 64l-202 480q-15 35 -73 35v33h265v-33h-65q-30 0 -30 -18q0 -10 3 -17l152 -374l155 366q3 7 3 14q0 29 -47 29h-41v33h213v-33zM498 656q0 -26 -18.5 -44.5t-44.5 -18.5t-44.5 18.5t-18.5 44.5t18.5 44.5t44.5 18.5t44.5 -18.5t18.5 -44.5z
M278 656q0 -26 -18.5 -44.5t-44.5 -18.5t-44.5 18.5t-18.5 44.5t18.5 44.5t44.5 18.5t44.5 -18.5t18.5 -44.5z" />
    <glyph glyph-name="Amacron" unicode="&#x100;" horiz-adv-x="878" 
d="M37 0zM758 65q12 -30 83 -30v-35h-330v35h99q28 0 28 20q-1 0 -1 2t-0.5 3.5t-0.5 4.5l-53 135h-343l-49 -127q-1 -5 -1.5 -8t-0.5 -4q0 -26 44 -26h67v-35h-263v36q76 0 88 28l276 679h88zM263 260h296l-149 379zM604 854h-331v57h331v-57z" />
    <glyph glyph-name="amacron" unicode="&#x101;" horiz-adv-x="644" 
d="M39 0zM520 83q0 -45 30 -45q14 0 21.5 14t7.5 31v68h36v-58q0 -51 -17.5 -75.5t-65.5 -24.5q-23 0 -39 9t-25.5 23.5t-14.5 32.5t-7 36q-12 -22 -34 -42t-51.5 -35.5t-64.5 -24.5t-73 -9q-96 0 -140 38.5t-44 107.5q0 40 17.5 67.5t47.5 46t69 30t82 20t87.5 15.5
t85.5 17v31q0 57 -30 94t-94 37q-61 0 -101.5 -13t-60.5 -32q20 -2 35 -15.5t15 -34.5q0 -25 -16 -41.5t-45 -16.5t-44.5 17t-15.5 45q0 22 15 46t44.5 43t72 31.5t98.5 12.5q46 0 86 -8.5t69.5 -29t46.5 -56t17 -89.5v-263zM429 289q-79 -16 -136 -30.5t-94 -31.5
t-54.5 -39.5t-17.5 -54.5q0 -46 32.5 -68.5t93.5 -22.5q31 0 58.5 7.5t50.5 19.5t40 27.5t27 30.5v162zM463 620h-331v57h331v-57z" />
    <glyph glyph-name="Abreve" unicode="&#x102;" horiz-adv-x="878" 
d="M37 0zM758 65q12 -30 83 -30v-35h-330v35h99q28 0 28 20q-1 0 -1 2t-0.5 3.5t-0.5 4.5l-53 135h-343l-49 -127q-1 -5 -1.5 -8t-0.5 -4q0 -26 44 -26h67v-35h-263v36q76 0 88 28l276 679h88zM263 260h296l-149 379zM439 776q-50 0 -88 16.5t-64 42t-39.5 57t-14.5 60.5h57
q2 -23 12 -45t28 -39.5t45.5 -28.5t63.5 -11t63.5 11t45.5 28.5t28 39.5t12 45h57q-2 -29 -15.5 -60.5t-39 -57t-63.5 -42t-88 -16.5z" />
    <glyph glyph-name="abreve" unicode="&#x103;" horiz-adv-x="644" 
d="M39 0zM520 83q0 -45 30 -45q14 0 21.5 14t7.5 31v68h36v-58q0 -51 -17.5 -75.5t-65.5 -24.5q-23 0 -39 9t-25.5 23.5t-14.5 32.5t-7 36q-12 -22 -34 -42t-51.5 -35.5t-64.5 -24.5t-73 -9q-96 0 -140 38.5t-44 107.5q0 40 17.5 67.5t47.5 46t69 30t82 20t87.5 15.5
t85.5 17v31q0 57 -30 94t-94 37q-61 0 -101.5 -13t-60.5 -32q20 -2 35 -15.5t15 -34.5q0 -25 -16 -41.5t-45 -16.5t-44.5 17t-15.5 45q0 22 15 46t44.5 43t72 31.5t98.5 12.5q46 0 86 -8.5t69.5 -29t46.5 -56t17 -89.5v-263zM429 289q-79 -16 -136 -30.5t-94 -31.5
t-54.5 -39.5t-17.5 -54.5q0 -46 32.5 -68.5t93.5 -22.5q31 0 58.5 7.5t50.5 19.5t40 27.5t27 30.5v162zM298 542q-50 0 -88 16.5t-64 42t-39.5 57t-14.5 60.5h57q2 -23 12 -45t28 -39.5t45.5 -28.5t63.5 -11t63.5 11t45.5 28.5t28 39.5t12 45h57q-2 -29 -15.5 -60.5t-39 -57
t-63.5 -42t-88 -16.5z" />
    <glyph glyph-name="Aogonek" unicode="&#x104;" horiz-adv-x="878" 
d="M511 0v35h99q28 0 28 20q-1 0 -1 2t-0.5 3.5t-0.5 4.5l-53 135h-343l-49 -127q-1 -5 -1.5 -8t-0.5 -4q0 -26 44 -26h67v-35h-263v36q76 0 88 28l276 679h88l269 -678q12 -30 83 -30v-35q-65 -44 -101 -70t-53.5 -41t-21 -22.5t-3.5 -14.5q0 -17 14.5 -28t39.5 -11
q31 0 62 14.5t63 37.5v-55q-17 -17 -49.5 -31.5t-80.5 -14.5q-18 0 -34.5 4t-29.5 12t-21 20t-8 29q0 13 5.5 25.5t25.5 31t58.5 45.5t104.5 69h-301zM263 260h296l-149 379z" />
    <glyph glyph-name="aogonek" unicode="&#x105;" horiz-adv-x="644" 
d="M520 83q0 -45 30 -45q14 0 21.5 14t7.5 31v68h36v-58q0 -38 -10.5 -58.5t-30.5 -34.5q-65 -44 -101 -70.5t-53.5 -41.5t-21 -22t-3.5 -14q0 -17 14.5 -28t39.5 -11q31 0 62 14.5t63 37.5v-55q-17 -17 -49.5 -31.5t-80.5 -14.5q-18 0 -34.5 4t-29.5 12t-21 20t-8 29
q0 13 5.5 25.5t24.5 30t55 43t98 65.5h-2q-23 0 -39 9t-25.5 23.5t-14.5 32.5t-7 36q-12 -22 -34 -42t-51.5 -35.5t-64.5 -24.5t-73 -9q-96 0 -140 38.5t-44 107.5q0 40 17.5 67.5t47.5 46t69 30t82 20t87.5 15.5t85.5 17v31q0 57 -30 94t-94 37q-61 0 -101.5 -13t-60.5 -32
q20 -2 35 -15.5t15 -34.5q0 -25 -16 -41.5t-45 -16.5t-44.5 17t-15.5 45q0 22 15 46t44.5 43t72 31.5t98.5 12.5q46 0 86 -8.5t69.5 -29t46.5 -56t17 -89.5v-263zM429 289q-79 -16 -136 -30.5t-94 -31.5t-54.5 -39.5t-17.5 -54.5q0 -46 32.5 -68.5t93.5 -22.5q31 0 58.5 7.5
t50.5 19.5t40 27.5t27 30.5v162z" />
    <glyph glyph-name="Cacute" unicode="&#x106;" horiz-adv-x="795" 
d="M37 0zM740 497l-45 -4q-13 45 -36 82.5t-56 65.5t-75.5 43.5t-94.5 15.5q-75 0 -129.5 -27t-89 -73t-51 -107t-16.5 -128q0 -80 21 -139.5t58.5 -100t90.5 -60.5t118 -20q56 0 101.5 15.5t80.5 44t59 67.5t38 86l44 -23q-14 -46 -39.5 -91t-65 -80.5t-95 -57.5
t-130.5 -22q-83 0 -154 23t-124 70t-83 118.5t-30 168.5q0 101 30 175.5t83 123t125.5 72.5t157.5 24q42 0 78.5 -8t65.5 -21t51 -29.5t35 -32.5l28 75h49v-246zM337 835q27 15 51.5 35t48.5 38t47 31t46 13q28 0 36.5 -14t8.5 -28q0 -20 -26.5 -34.5t-62.5 -26t-72.5 -21.5
t-56.5 -22z" />
    <glyph glyph-name="cacute" unicode="&#x107;" horiz-adv-x="560" 
d="M43 0zM521 174q-6 -36 -21 -70.5t-42 -61t-66.5 -43t-93.5 -16.5q-56 0 -102.5 16.5t-80.5 49.5t-53 82.5t-19 116.5q0 70 20 123t56 88t84.5 52.5t105.5 17.5q45 0 82.5 -12t65 -31.5t42.5 -43t15 -46.5q0 -28 -15.5 -45t-44.5 -17t-45 16.5t-16 41.5q0 21 15.5 34.5
t35.5 15.5q-20 19 -48.5 32t-81.5 13q-180 0 -180 -226q0 -64 14.5 -108.5t39 -73t56 -41.5t65.5 -13q30 0 58 8.5t50.5 27t39 48.5t23.5 72zM222 601q27 15 51.5 35t48.5 38t47 31t46 13q28 0 36.5 -14t8.5 -28q0 -20 -26.5 -34.5t-62.5 -26t-72.5 -21.5t-56.5 -22z" />
    <glyph glyph-name="Ccircumflex" unicode="&#x108;" horiz-adv-x="795" 
d="M37 0zM740 497l-45 -4q-13 45 -36 82.5t-56 65.5t-75.5 43.5t-94.5 15.5q-75 0 -129.5 -27t-89 -73t-51 -107t-16.5 -128q0 -80 21 -139.5t58.5 -100t90.5 -60.5t118 -20q56 0 101.5 15.5t80.5 44t59 67.5t38 86l44 -23q-14 -46 -39.5 -91t-65 -80.5t-95 -57.5
t-130.5 -22q-83 0 -154 23t-124 70t-83 118.5t-30 168.5q0 101 30 175.5t83 123t125.5 72.5t157.5 24q42 0 78.5 -8t65.5 -21t51 -29.5t35 -32.5l28 75h49v-246zM525 806l-101 58l-105 -58l-38 30l143 116l142 -117z" />
    <glyph glyph-name="ccircumflex" unicode="&#x109;" horiz-adv-x="560" 
d="M43 0zM521 174q-6 -36 -21 -70.5t-42 -61t-66.5 -43t-93.5 -16.5q-56 0 -102.5 16.5t-80.5 49.5t-53 82.5t-19 116.5q0 70 20 123t56 88t84.5 52.5t105.5 17.5q45 0 82.5 -12t65 -31.5t42.5 -43t15 -46.5q0 -28 -15.5 -45t-44.5 -17t-45 16.5t-16 41.5q0 21 15.5 34.5
t35.5 15.5q-20 19 -48.5 32t-81.5 13q-180 0 -180 -226q0 -64 14.5 -108.5t39 -73t56 -41.5t65.5 -13q30 0 58 8.5t50.5 27t39 48.5t23.5 72zM405 572l-101 58l-105 -58l-38 30l143 116l142 -117z" />
    <glyph glyph-name="Cdotaccent" unicode="&#x10a;" horiz-adv-x="795" 
d="M37 0zM740 497l-45 -4q-13 45 -36 82.5t-56 65.5t-75.5 43.5t-94.5 15.5q-75 0 -129.5 -27t-89 -73t-51 -107t-16.5 -128q0 -80 21 -139.5t58.5 -100t90.5 -60.5t118 -20q56 0 101.5 15.5t80.5 44t59 67.5t38 86l44 -23q-14 -46 -39.5 -91t-65 -80.5t-95 -57.5
t-130.5 -22q-83 0 -154 23t-124 70t-83 118.5t-30 168.5q0 101 30 175.5t83 123t125.5 72.5t157.5 24q42 0 78.5 -8t65.5 -21t51 -29.5t35 -32.5l28 75h49v-246zM488 890q0 -26 -18.5 -44.5t-44.5 -18.5t-44.5 18.5t-18.5 44.5t18.5 44.5t44.5 18.5t44.5 -18.5t18.5 -44.5z
" />
    <glyph glyph-name="cdotaccent" unicode="&#x10b;" horiz-adv-x="560" 
d="M43 0zM521 174q-6 -36 -21 -70.5t-42 -61t-66.5 -43t-93.5 -16.5q-56 0 -102.5 16.5t-80.5 49.5t-53 82.5t-19 116.5q0 70 20 123t56 88t84.5 52.5t105.5 17.5q45 0 82.5 -12t65 -31.5t42.5 -43t15 -46.5q0 -28 -15.5 -45t-44.5 -17t-45 16.5t-16 41.5q0 21 15.5 34.5
t35.5 15.5q-20 19 -48.5 32t-81.5 13q-180 0 -180 -226q0 -64 14.5 -108.5t39 -73t56 -41.5t65.5 -13q30 0 58 8.5t50.5 27t39 48.5t23.5 72zM361 656q0 -26 -18.5 -44.5t-44.5 -18.5t-44.5 18.5t-18.5 44.5t18.5 44.5t44.5 18.5t44.5 -18.5t18.5 -44.5z" />
    <glyph glyph-name="Ccaron" unicode="&#x10c;" horiz-adv-x="795" 
d="M37 0zM740 497l-45 -4q-13 45 -36 82.5t-56 65.5t-75.5 43.5t-94.5 15.5q-75 0 -129.5 -27t-89 -73t-51 -107t-16.5 -128q0 -80 21 -139.5t58.5 -100t90.5 -60.5t118 -20q56 0 101.5 15.5t80.5 44t59 67.5t38 86l44 -23q-14 -46 -39.5 -91t-65 -80.5t-95 -57.5
t-130.5 -22q-83 0 -154 23t-124 70t-83 118.5t-30 168.5q0 101 30 175.5t83 123t125.5 72.5t157.5 24q42 0 78.5 -8t65.5 -21t51 -29.5t35 -32.5l28 75h49v-246zM420 806l-141 117l41 29l100 -59l105 59l39 -30z" />
    <glyph glyph-name="ccaron" unicode="&#x10d;" horiz-adv-x="560" 
d="M43 0zM521 174q-6 -36 -21 -70.5t-42 -61t-66.5 -43t-93.5 -16.5q-56 0 -102.5 16.5t-80.5 49.5t-53 82.5t-19 116.5q0 70 20 123t56 88t84.5 52.5t105.5 17.5q45 0 82.5 -12t65 -31.5t42.5 -43t15 -46.5q0 -28 -15.5 -45t-44.5 -17t-45 16.5t-16 41.5q0 21 15.5 34.5
t35.5 15.5q-20 19 -48.5 32t-81.5 13q-180 0 -180 -226q0 -64 14.5 -108.5t39 -73t56 -41.5t65.5 -13q30 0 58 8.5t50.5 27t39 48.5t23.5 72zM298 572l-141 117l41 29l100 -59l105 59l39 -30z" />
    <glyph glyph-name="Dcaron" unicode="&#x10e;" horiz-adv-x="827" 
d="M37 0zM417 743q88 0 156.5 -14t115.5 -52.5t71.5 -107.5t24.5 -178q0 -110 -24.5 -185t-71.5 -120.5t-115.5 -65.5t-156.5 -20h-380v35q89 0 89 46v581q0 46 -89 46v35h380zM229 688v-633h204q68 0 114.5 24t75.5 68t41.5 105.5t12.5 135.5t-12.5 130.5t-41.5 94
t-75.5 56.5t-114.5 19h-204zM395 806l-141 117l41 29l100 -59l105 59l39 -30z" />
    <glyph glyph-name="dcaron" unicode="&#x10f;" horiz-adv-x="767" 
d="M39 0zM561 79q0 -45 89 -45v-34h-143l-8 83q-49 -100 -203 -100q-50 0 -96.5 15.5t-82 48.5t-57 84.5t-21.5 123.5q0 75 24 127.5t63 85t87.5 47t97.5 14.5q52 0 94 -14t65 -38v215q0 45 -88 45v33h179v-691zM308 487q-48 0 -82 -19t-55 -50.5t-31 -73.5t-10 -88t10 -88
t31 -73.5t55 -50.5t82 -19t80.5 19t53 50.5t29 73.5t8.5 88t-8.5 88t-29 73.5t-53 50.5t-80.5 19zM595 536q33 19 50.5 34.5t25.5 28.5t9.5 23.5t1.5 18.5q0 15 -14 15q-64 0 -64 52q0 66 68 66q87 0 87 -96q0 -57 -37.5 -98.5t-106.5 -75.5z" />
    <glyph glyph-name="Dcroat" unicode="&#x110;" horiz-adv-x="827" 
d="M37 0zM417 743q88 0 156.5 -14t115.5 -52.5t71.5 -107.5t24.5 -178q0 -110 -24.5 -185t-71.5 -120.5t-115.5 -65.5t-156.5 -20h-380v35q89 0 89 46v284h-89v50h89v247q0 46 -89 46v35h380zM229 688v-273h89v-50h-89v-310h204q68 0 114.5 24t75.5 68t41.5 105.5
t12.5 135.5t-12.5 130.5t-41.5 94t-75.5 56.5t-114.5 19h-204z" />
    <glyph glyph-name="dcroat" unicode="&#x111;" horiz-adv-x="688" 
d="M561 655h90v-45h-90v-531q0 -45 89 -45v-34h-143l-8 83q-49 -100 -203 -100q-50 0 -96.5 15.5t-82 48.5t-57 84.5t-21.5 123.5q0 75 24 127.5t63 85t87.5 47t97.5 14.5q52 0 94 -14t65 -38v133h-216v45h216v37q0 45 -88 45v33h179v-115zM308 487q-48 0 -82 -19t-55 -50.5
t-31 -73.5t-10 -88t10 -88t31 -73.5t55 -50.5t82 -19t80.5 19t53 50.5t29 73.5t8.5 88t-8.5 88t-29 73.5t-53 50.5t-80.5 19z" />
    <glyph glyph-name="Emacron" unicode="&#x112;" horiz-adv-x="744" 
d="M37 0zM674 517l-40 -3q-18 174 -145 174h-260v-273h152q74 0 83 129h38l-15 -312h-36q-10 133 -77 133h-145v-310h224q179 0 203 237l42 -7l-24 -285h-637v35q89 0 89 46v581q0 46 -89 46v35h637v-226zM547 854h-331v57h331v-57z" />
    <glyph glyph-name="emacron" unicode="&#x113;" horiz-adv-x="588" 
d="M43 0zM133 271q0 -114 43 -180t127 -66q65 0 115.5 30.5t70.5 105.5l40 -15q-10 -32 -27.5 -61.5t-44.5 -52t-65 -36t-89 -13.5q-46 0 -92.5 12t-83.5 42.5t-60.5 83.5t-23.5 134q0 60 18 110.5t52 87t83.5 56.5t112.5 20q118 0 179 -67.5t61 -190.5h-416zM455 309
q0 81 -39.5 129.5t-111.5 48.5q-32 0 -61 -10t-52 -31t-38 -55t-19 -82h321zM469 620h-331v57h331v-57z" />
    <glyph glyph-name="Ebreve" unicode="&#x114;" horiz-adv-x="744" 
d="M37 0zM674 517l-40 -3q-18 174 -145 174h-260v-273h152q74 0 83 129h38l-15 -312h-36q-10 133 -77 133h-145v-310h224q179 0 203 237l42 -7l-24 -285h-637v35q89 0 89 46v581q0 46 -89 46v35h637v-226zM382 776q-50 0 -88 16.5t-64 42t-39.5 57t-14.5 60.5h57
q2 -23 12 -45t28 -39.5t45.5 -28.5t63.5 -11t63.5 11t45.5 28.5t28 39.5t12 45h57q-2 -29 -15.5 -60.5t-39 -57t-63.5 -42t-88 -16.5z" />
    <glyph glyph-name="ebreve" unicode="&#x115;" horiz-adv-x="588" 
d="M43 0zM133 271q0 -114 43 -180t127 -66q65 0 115.5 30.5t70.5 105.5l40 -15q-10 -32 -27.5 -61.5t-44.5 -52t-65 -36t-89 -13.5q-46 0 -92.5 12t-83.5 42.5t-60.5 83.5t-23.5 134q0 60 18 110.5t52 87t83.5 56.5t112.5 20q118 0 179 -67.5t61 -190.5h-416zM455 309
q0 81 -39.5 129.5t-111.5 48.5q-32 0 -61 -10t-52 -31t-38 -55t-19 -82h321zM304 542q-50 0 -88 16.5t-64 42t-39.5 57t-14.5 60.5h57q2 -23 12 -45t28 -39.5t45.5 -28.5t63.5 -11t63.5 11t45.5 28.5t28 39.5t12 45h57q-2 -29 -15.5 -60.5t-39 -57t-63.5 -42t-88 -16.5z" />
    <glyph glyph-name="Edotaccent" unicode="&#x116;" horiz-adv-x="744" 
d="M37 0zM674 517l-40 -3q-18 174 -145 174h-260v-273h152q74 0 83 129h38l-15 -312h-36q-10 133 -77 133h-145v-310h224q179 0 203 237l42 -7l-24 -285h-637v35q89 0 89 46v581q0 46 -89 46v35h637v-226zM445 890q0 -26 -18.5 -44.5t-44.5 -18.5t-44.5 18.5t-18.5 44.5
t18.5 44.5t44.5 18.5t44.5 -18.5t18.5 -44.5z" />
    <glyph glyph-name="edotaccent" unicode="&#x117;" horiz-adv-x="588" 
d="M43 0zM133 271q0 -114 43 -180t127 -66q65 0 115.5 30.5t70.5 105.5l40 -15q-10 -32 -27.5 -61.5t-44.5 -52t-65 -36t-89 -13.5q-46 0 -92.5 12t-83.5 42.5t-60.5 83.5t-23.5 134q0 60 18 110.5t52 87t83.5 56.5t112.5 20q118 0 179 -67.5t61 -190.5h-416zM455 309
q0 81 -39.5 129.5t-111.5 48.5q-32 0 -61 -10t-52 -31t-38 -55t-19 -82h321zM367 656q0 -26 -18.5 -44.5t-44.5 -18.5t-44.5 18.5t-18.5 44.5t18.5 44.5t44.5 18.5t44.5 -18.5t18.5 -44.5z" />
    <glyph glyph-name="Eogonek" unicode="&#x118;" horiz-adv-x="744" 
d="M37 0v35q89 0 89 46v581q0 46 -89 46v35h637v-226l-40 -3q-18 174 -145 174h-260v-273h152q74 0 83 129h38l-15 -312h-36q-10 133 -77 133h-145v-310h224q179 0 203 237l42 -7l-24 -285q-65 -44 -101 -70t-53.5 -41t-21 -22.5t-3.5 -14.5q0 -17 14.5 -28t39.5 -11
q31 0 62 14.5t63 37.5v-55q-17 -17 -49.5 -31.5t-80.5 -14.5q-18 0 -34.5 4t-29.5 12t-21 20t-8 29q0 13 5.5 25.5t25.5 31t58.5 45.5t104.5 69h-608z" />
    <glyph glyph-name="eogonek" unicode="&#x119;" horiz-adv-x="588" 
d="M133 271q0 -114 43 -180t127 -66q65 0 115.5 30.5t70.5 105.5l40 -15q-15 -48 -45.5 -87.5t-84.5 -59.5q-64 -43 -99.5 -69t-53 -41t-21 -23t-3.5 -14q0 -17 14.5 -28t39.5 -11q31 0 62 14.5t63 37.5v-55q-17 -17 -49.5 -31.5t-80.5 -14.5q-18 0 -34.5 4t-29.5 12t-21 20
t-8 29q0 13 5.5 25.5t23.5 29t52 41t92 62.5q-17 -4 -48 -4q-46 0 -92.5 12t-83.5 42.5t-60.5 83.5t-23.5 134q0 60 18 110.5t52 87t83.5 56.5t112.5 20q118 0 179 -67.5t61 -190.5h-416zM455 309q0 81 -39.5 129.5t-111.5 48.5q-32 0 -61 -10t-52 -31t-38 -55t-19 -82h321z
" />
    <glyph glyph-name="Ecaron" unicode="&#x11a;" horiz-adv-x="744" 
d="M37 0zM674 517l-40 -3q-18 174 -145 174h-260v-273h152q74 0 83 129h38l-15 -312h-36q-10 133 -77 133h-145v-310h224q179 0 203 237l42 -7l-24 -285h-637v35q89 0 89 46v581q0 46 -89 46v35h637v-226zM380 806l-141 117l41 29l100 -59l105 59l39 -30z" />
    <glyph glyph-name="ecaron" unicode="&#x11b;" horiz-adv-x="588" 
d="M43 0zM133 271q0 -114 43 -180t127 -66q65 0 115.5 30.5t70.5 105.5l40 -15q-10 -32 -27.5 -61.5t-44.5 -52t-65 -36t-89 -13.5q-46 0 -92.5 12t-83.5 42.5t-60.5 83.5t-23.5 134q0 60 18 110.5t52 87t83.5 56.5t112.5 20q118 0 179 -67.5t61 -190.5h-416zM455 309
q0 81 -39.5 129.5t-111.5 48.5q-32 0 -61 -10t-52 -31t-38 -55t-19 -82h321zM302 572l-141 117l41 29l100 -59l105 59l39 -30z" />
    <glyph glyph-name="Gcircumflex" unicode="&#x11c;" horiz-adv-x="879" 
d="M37 0zM742 497l-44 -4q-13 45 -36.5 82.5t-56.5 65.5t-76 43.5t-94 15.5q-75 0 -129.5 -27t-90 -73t-52 -107t-16.5 -128q0 -80 21.5 -139.5t59.5 -100t91.5 -60.5t117.5 -20q46 0 86.5 14t70.5 36.5t47.5 52t17.5 61.5v56q0 46 -90 46v35h282v-35q-90 0 -90 -46v-265
h-77l-23 87q-18 -19 -42.5 -37.5t-55 -33t-68 -23.5t-81.5 -9q-77 0 -145 23t-120 70t-82 118.5t-30 168.5q0 101 30.5 175.5t84 123t126 72.5t157.5 24q42 0 78.5 -8t65.5 -21t51 -29.5t35 -32.5l28 75h49v-246zM519 806l-101 58l-105 -58l-38 30l143 116l142 -117z" />
    <glyph glyph-name="gcircumflex" unicode="&#x11d;" horiz-adv-x="735" 
d="M39 0zM174 -7q-23 -5 -33.5 -26t-10.5 -42q0 -23 14 -43t38.5 -35.5t59.5 -24.5t77 -9q97 0 150 33.5t53 93.5q0 21 -7.5 38t-27 30t-52 22t-81.5 14q-77 8 -127.5 15t-80.5 16.5t-42 23.5t-12 36q0 25 16.5 44t38.5 27q-30 16 -48 47t-18 79q0 93 61 135t169 42
q60 0 100.5 -9t69.5 -29q20 25 47.5 36.5t59.5 11.5q16 0 36 -6t38 -19.5t30.5 -35.5t12.5 -54q0 -35 -16.5 -52.5t-43.5 -17.5q-29 0 -44.5 16t-15.5 38q0 25 17 39.5t49 14.5q-7 17 -30.5 27.5t-48.5 10.5q-17 0 -33 -8t-33 -21q24 -22 35.5 -47.5t11.5 -63.5
q0 -46 -19 -79t-52 -54.5t-77 -31.5t-94 -10q-42 0 -73.5 4t-56.5 15q-12 -2 -18 -9.5t-6 -15.5q0 -12 6.5 -20t28.5 -14.5t63 -12.5t110 -13q77 -8 124 -22t73 -33.5t34.5 -43t8.5 -49.5q0 -78 -73 -127t-218 -49q-62 0 -113 7t-87 23.5t-55.5 42.5t-19.5 64q0 27 11 47.5
t28.5 34t40.5 20t47 6.5zM467 338q0 35 -11.5 60t-32.5 40.5t-49.5 22.5t-62.5 7q-154 0 -154 -131q0 -69 41 -100.5t113 -31.5q75 0 115.5 33t40.5 100zM423 572l-101 58l-105 -58l-38 30l143 116l142 -117z" />
    <glyph glyph-name="Gbreve" unicode="&#x11e;" horiz-adv-x="879" 
d="M37 0zM742 497l-44 -4q-13 45 -36.5 82.5t-56.5 65.5t-76 43.5t-94 15.5q-75 0 -129.5 -27t-90 -73t-52 -107t-16.5 -128q0 -80 21.5 -139.5t59.5 -100t91.5 -60.5t117.5 -20q46 0 86.5 14t70.5 36.5t47.5 52t17.5 61.5v56q0 46 -90 46v35h282v-35q-90 0 -90 -46v-265
h-77l-23 87q-18 -19 -42.5 -37.5t-55 -33t-68 -23.5t-81.5 -9q-77 0 -145 23t-120 70t-82 118.5t-30 168.5q0 101 30.5 175.5t84 123t126 72.5t157.5 24q42 0 78.5 -8t65.5 -21t51 -29.5t35 -32.5l28 75h49v-246zM429 776q-50 0 -88 16.5t-64 42t-39.5 57t-14.5 60.5h57
q2 -23 12 -45t28 -39.5t45.5 -28.5t63.5 -11t63.5 11t45.5 28.5t28 39.5t12 45h57q-2 -29 -15.5 -60.5t-39 -57t-63.5 -42t-88 -16.5z" />
    <glyph glyph-name="gbreve" unicode="&#x11f;" horiz-adv-x="735" 
d="M39 0zM174 -7q-23 -5 -33.5 -26t-10.5 -42q0 -23 14 -43t38.5 -35.5t59.5 -24.5t77 -9q97 0 150 33.5t53 93.5q0 21 -7.5 38t-27 30t-52 22t-81.5 14q-77 8 -127.5 15t-80.5 16.5t-42 23.5t-12 36q0 25 16.5 44t38.5 27q-30 16 -48 47t-18 79q0 93 61 135t169 42
q60 0 100.5 -9t69.5 -29q20 25 47.5 36.5t59.5 11.5q16 0 36 -6t38 -19.5t30.5 -35.5t12.5 -54q0 -35 -16.5 -52.5t-43.5 -17.5q-29 0 -44.5 16t-15.5 38q0 25 17 39.5t49 14.5q-7 17 -30.5 27.5t-48.5 10.5q-17 0 -33 -8t-33 -21q24 -22 35.5 -47.5t11.5 -63.5
q0 -46 -19 -79t-52 -54.5t-77 -31.5t-94 -10q-42 0 -73.5 4t-56.5 15q-12 -2 -18 -9.5t-6 -15.5q0 -12 6.5 -20t28.5 -14.5t63 -12.5t110 -13q77 -8 124 -22t73 -33.5t34.5 -43t8.5 -49.5q0 -78 -73 -127t-218 -49q-62 0 -113 7t-87 23.5t-55.5 42.5t-19.5 64q0 27 11 47.5
t28.5 34t40.5 20t47 6.5zM467 338q0 35 -11.5 60t-32.5 40.5t-49.5 22.5t-62.5 7q-154 0 -154 -131q0 -69 41 -100.5t113 -31.5q75 0 115.5 33t40.5 100zM317 542q-50 0 -88 16.5t-64 42t-39.5 57t-14.5 60.5h57q2 -23 12 -45t28 -39.5t45.5 -28.5t63.5 -11t63.5 11
t45.5 28.5t28 39.5t12 45h57q-2 -29 -15.5 -60.5t-39 -57t-63.5 -42t-88 -16.5z" />
    <glyph glyph-name="Gdotaccent" unicode="&#x120;" horiz-adv-x="879" 
d="M37 0zM742 497l-44 -4q-13 45 -36.5 82.5t-56.5 65.5t-76 43.5t-94 15.5q-75 0 -129.5 -27t-90 -73t-52 -107t-16.5 -128q0 -80 21.5 -139.5t59.5 -100t91.5 -60.5t117.5 -20q46 0 86.5 14t70.5 36.5t47.5 52t17.5 61.5v56q0 46 -90 46v35h282v-35q-90 0 -90 -46v-265
h-77l-23 87q-18 -19 -42.5 -37.5t-55 -33t-68 -23.5t-81.5 -9q-77 0 -145 23t-120 70t-82 118.5t-30 168.5q0 101 30.5 175.5t84 123t126 72.5t157.5 24q42 0 78.5 -8t65.5 -21t51 -29.5t35 -32.5l28 75h49v-246zM476 890q0 -26 -18.5 -44.5t-44.5 -18.5t-44.5 18.5
t-18.5 44.5t18.5 44.5t44.5 18.5t44.5 -18.5t18.5 -44.5z" />
    <glyph glyph-name="gdotaccent" unicode="&#x121;" horiz-adv-x="735" 
d="M39 0zM174 -7q-23 -5 -33.5 -26t-10.5 -42q0 -23 14 -43t38.5 -35.5t59.5 -24.5t77 -9q97 0 150 33.5t53 93.5q0 21 -7.5 38t-27 30t-52 22t-81.5 14q-77 8 -127.5 15t-80.5 16.5t-42 23.5t-12 36q0 25 16.5 44t38.5 27q-30 16 -48 47t-18 79q0 93 61 135t169 42
q60 0 100.5 -9t69.5 -29q20 25 47.5 36.5t59.5 11.5q16 0 36 -6t38 -19.5t30.5 -35.5t12.5 -54q0 -35 -16.5 -52.5t-43.5 -17.5q-29 0 -44.5 16t-15.5 38q0 25 17 39.5t49 14.5q-7 17 -30.5 27.5t-48.5 10.5q-17 0 -33 -8t-33 -21q24 -22 35.5 -47.5t11.5 -63.5
q0 -46 -19 -79t-52 -54.5t-77 -31.5t-94 -10q-42 0 -73.5 4t-56.5 15q-12 -2 -18 -9.5t-6 -15.5q0 -12 6.5 -20t28.5 -14.5t63 -12.5t110 -13q77 -8 124 -22t73 -33.5t34.5 -43t8.5 -49.5q0 -78 -73 -127t-218 -49q-62 0 -113 7t-87 23.5t-55.5 42.5t-19.5 64q0 27 11 47.5
t28.5 34t40.5 20t47 6.5zM467 338q0 35 -11.5 60t-32.5 40.5t-49.5 22.5t-62.5 7q-154 0 -154 -131q0 -69 41 -100.5t113 -31.5q75 0 115.5 33t40.5 100zM376 656q0 -26 -18.5 -44.5t-44.5 -18.5t-44.5 18.5t-18.5 44.5t18.5 44.5t44.5 18.5t44.5 -18.5t18.5 -44.5z" />
    <glyph glyph-name="Gcommaaccent" unicode="&#x122;" horiz-adv-x="879" 
d="M37 0zM742 497l-44 -4q-13 45 -36.5 82.5t-56.5 65.5t-76 43.5t-94 15.5q-75 0 -129.5 -27t-90 -73t-52 -107t-16.5 -128q0 -80 21.5 -139.5t59.5 -100t91.5 -60.5t117.5 -20q46 0 86.5 14t70.5 36.5t47.5 52t17.5 61.5v56q0 46 -90 46v35h282v-35q-90 0 -90 -46v-265
h-77l-23 87q-18 -19 -42.5 -37.5t-55 -33t-68 -23.5t-81.5 -9q-77 0 -145 23t-120 70t-82 118.5t-30 168.5q0 101 30.5 175.5t84 123t126 72.5t157.5 24q42 0 78.5 -8t65.5 -21t51 -29.5t35 -32.5l28 75h49v-246zM378 -209q23 10 32 21.5t9 25.5q0 13 -11 13q-50 0 -50 50
q0 26 16.5 40t42.5 14q31 0 48.5 -18t17.5 -51q0 -45 -22 -73.5t-67 -48.5z" />
    <glyph glyph-name="gcommaaccent" unicode="&#x123;" horiz-adv-x="735" 
d="M39 0zM174 -7q-23 -5 -33.5 -26t-10.5 -42q0 -23 14 -43t38.5 -35.5t59.5 -24.5t77 -9q97 0 150 33.5t53 93.5q0 21 -7.5 38t-27 30t-52 22t-81.5 14q-77 8 -127.5 15t-80.5 16.5t-42 23.5t-12 36q0 25 16.5 44t38.5 27q-30 16 -48 47t-18 79q0 93 61 135t169 42
q60 0 100.5 -9t69.5 -29q20 25 47.5 36.5t59.5 11.5q16 0 36 -6t38 -19.5t30.5 -35.5t12.5 -54q0 -35 -16.5 -52.5t-43.5 -17.5q-29 0 -44.5 16t-15.5 38q0 25 17 39.5t49 14.5q-7 17 -30.5 27.5t-48.5 10.5q-17 0 -33 -8t-33 -21q24 -22 35.5 -47.5t11.5 -63.5
q0 -46 -19 -79t-52 -54.5t-77 -31.5t-94 -10q-42 0 -73.5 4t-56.5 15q-12 -2 -18 -9.5t-6 -15.5q0 -12 6.5 -20t28.5 -14.5t63 -12.5t110 -13q77 -8 124 -22t73 -33.5t34.5 -43t8.5 -49.5q0 -78 -73 -127t-218 -49q-62 0 -113 7t-87 23.5t-55.5 42.5t-19.5 64q0 27 11 47.5
t28.5 34t40.5 20t47 6.5zM467 338q0 35 -11.5 60t-32.5 40.5t-49.5 22.5t-62.5 7q-154 0 -154 -131q0 -69 41 -100.5t113 -31.5q75 0 115.5 33t40.5 100zM366.003 719.987q-22.999 -9.99902 -31.998 -21.499q-9 -11.499 -9 -25.498q0 -12.999 10.999 -12.999
q49.9971 0 49.9971 -49.9971q0 -25.999 -16.499 -39.998t-42.4971 -13.999q-30.998 0 -48.4971 17.999t-17.499 50.9971q0 44.9971 21.999 73.4951q21.998 28.498 66.9961 48.4971z" />
    <glyph glyph-name="Hcircumflex" unicode="&#x124;" horiz-adv-x="874" 
d="M37 0zM838 708q-90 0 -90 -46v-581q0 -46 90 -46v-35h-304v35q111 0 111 46v284h-416v-284q0 -46 111 -46v-35h-303v35q89 0 89 46v581q0 46 -89 46v35h303v-35q-111 0 -111 -46v-247h416v247q0 46 -111 46v35h304v-35zM538 806l-101 58l-105 -58l-38 30l143 116
l142 -117z" />
    <glyph glyph-name="hcircumflex" unicode="&#x125;" horiz-adv-x="717" 
d="M23 0zM217 407q20 22 44 42.5t52 36t60 24.5t69 9q72 0 110 -34t38 -115v-291q0 -45 89 -45v-34h-257v34q78 0 78 45v285q0 63 -18.5 88t-56.5 25q-29 0 -59.5 -12t-58.5 -31.5t-51.5 -45t-38.5 -53.5v-256q0 -45 78 -45v-34h-256v34q88 0 88 45v613q0 45 -87 45v33h177
v-363zM267 806l-101 58l-105 -58l-38 30l143 116l142 -117z" />
    <glyph glyph-name="Hbar" unicode="&#x126;" horiz-adv-x="874" 
d="M808 532h-60v-451q0 -46 90 -46v-35h-304v35q111 0 111 46v284h-416v-284q0 -46 111 -46v-35h-303v35q89 0 89 46v451h-60v45h60v85q0 46 -89 46v35h303v-35q-111 0 -111 -46v-85h416v85q0 46 -111 46v35h304v-35q-90 0 -90 -46v-85h60v-45zM645 415v117h-416v-117h416z
" />
    <glyph glyph-name="hbar" unicode="&#x127;" horiz-adv-x="717" 
d="M434 610h-217v-203q20 22 44 42.5t52 36t60 24.5t69 9q72 0 110 -34t38 -115v-291q0 -45 89 -45v-34h-257v34q78 0 78 45v285q0 63 -18.5 88t-56.5 25q-29 0 -59.5 -12t-58.5 -31.5t-51.5 -45t-38.5 -53.5v-256q0 -45 78 -45v-34h-256v34q88 0 88 45v531h-90v45h90v37
q0 45 -87 45v33h177v-115h217v-45z" />
    <glyph glyph-name="Itilde" unicode="&#x128;" horiz-adv-x="377" 
d="M5 0zM329 708q-89 0 -89 -46v-581q0 -46 89 -46v-35h-282v35q90 0 90 46v581q0 46 -90 46v35h282v-35zM373 917q-11 -45 -43 -70t-74 -25q-23 0 -41 8t-34.5 18t-32.5 18t-34 8q-39 0 -68 -50l-41 22q6 21 19 38.5t29.5 30t34.5 19t35 6.5q32 0 50.5 -8t32 -18t26.5 -18
t34 -8q19 0 32.5 7.5t30.5 40.5z" />
    <glyph glyph-name="itilde" unicode="&#x129;" horiz-adv-x="344" 
d="M0 0zM217 79q0 -45 89 -45v-34h-267v34q88 0 88 45v351q0 46 -88 46v33h178v-430zM346 683q-11 -45 -43 -70t-74 -25q-23 0 -41 8t-34.5 18t-32.5 18t-34 8q-39 0 -68 -50l-41 22q6 21 19 38.5t29.5 30t34.5 19t35 6.5q32 0 50.5 -8t32 -18t26.5 -18t34 -8q19 0 32.5 7.5
t30.5 40.5z" />
    <glyph glyph-name="uni012A" unicode="&#x12a;" horiz-adv-x="377" 
d="M23 0zM329 708q-89 0 -89 -46v-581q0 -46 89 -46v-35h-282v35q90 0 90 46v581q0 46 -90 46v35h282v-35zM354 854h-331v57h331v-57z" />
    <glyph glyph-name="imacron" unicode="&#x12b;" horiz-adv-x="344" 
d="M0 0zM217 79q0 -45 89 -45v-34h-267v34q88 0 88 45v351q0 46 -88 46v33h178v-430zM328 620h-331v57h331v-57z" />
    <glyph glyph-name="Ibreve" unicode="&#x12c;" horiz-adv-x="377" 
d="M0 0zM329 708q-89 0 -89 -46v-581q0 -46 89 -46v-35h-282v35q90 0 90 46v581q0 46 -90 46v35h282v-35zM189 776q-50 0 -88 16.5t-64 42t-39.5 57t-14.5 60.5h57q2 -23 12 -45t28 -39.5t45.5 -28.5t63.5 -11t63.5 11t45.5 28.5t28 39.5t12 45h57q-2 -29 -15.5 -60.5
t-39 -57t-63.5 -42t-88 -16.5z" />
    <glyph glyph-name="ibreve" unicode="&#x12d;" horiz-adv-x="344" 
d="M0 0zM217 79q0 -45 89 -45v-34h-267v34q88 0 88 45v351q0 46 -88 46v33h178v-430zM162 542q-50 0 -88 16.5t-64 42t-39.5 57t-14.5 60.5h57q2 -23 12 -45t28 -39.5t45.5 -28.5t63.5 -11t63.5 11t45.5 28.5t28 39.5t12 45h57q-2 -29 -15.5 -60.5t-39 -57t-63.5 -42
t-88 -16.5z" />
    <glyph glyph-name="Iogonek" unicode="&#x12e;" horiz-adv-x="377" 
d="M47 0v35q90 0 90 46v581q0 46 -90 46v35h282v-35q-89 0 -89 -46v-581q0 -46 89 -46v-35h-59q-65 -44 -101 -70t-53.5 -41t-21 -22.5t-3.5 -14.5q0 -17 14.5 -28t39.5 -11q31 0 62 14.5t63 37.5v-55q-17 -17 -49.5 -31.5t-80.5 -14.5q-18 0 -34.5 4t-29.5 12t-21 20t-8 29
q0 13 5.5 25.5t25.5 31t58.5 45.5t104.5 69h-194z" />
    <glyph glyph-name="iogonek" unicode="&#x12f;" horiz-adv-x="344" 
d="M39 0v34q88 0 88 45v351q0 46 -88 46v33h178v-430q0 -45 89 -45v-34h-63q-65 -44 -101 -70t-53.5 -41t-21 -22.5t-3.5 -14.5q0 -17 14.5 -28t39.5 -11q31 0 62 14.5t63 37.5v-55q-17 -17 -49.5 -31.5t-80.5 -14.5q-18 0 -34.5 4t-29.5 12t-21 20t-8 29q0 13 5.5 25.5
t25.5 31t58.5 45.5t104.5 69h-175z" />
    <glyph glyph-name="Idotaccent" unicode="&#x130;" horiz-adv-x="377" 
d="M47 0zM329 708q-89 0 -89 -46v-581q0 -46 89 -46v-35h-282v35q90 0 90 46v581q0 46 -90 46v35h282v-35zM251 890q0 -26 -18.5 -44.5t-44.5 -18.5t-44.5 18.5t-18.5 44.5t18.5 44.5t44.5 18.5t44.5 -18.5t18.5 -44.5z" />
    <glyph glyph-name="dotlessi" unicode="&#x131;" horiz-adv-x="344" 
d="M217 79q0 -45 89 -45v-34h-267v34q88 0 88 45v351q0 46 -88 46v33h178v-430z" />
    <glyph glyph-name="IJ" unicode="&#x132;" horiz-adv-x="1007" 
d="M47 0zM329 708q-89 0 -89 -46v-581q0 -46 89 -46v-35h-282v35q90 0 90 46v581q0 46 -90 46v35h282v-35zM979 708q-90 0 -90 -46v-417q0 -127 -61.5 -194t-189.5 -67q-62 0 -104.5 15.5t-69.5 39.5t-39 53.5t-12 58.5q0 33 18 53t50 20q34 0 52 -19t18 -47q0 -24 -15 -41
t-41 -19q4 -14 17 -26t32 -21t41 -14t45 -5q73 0 114.5 46t41.5 151v433q0 46 -89 46v35h282v-35z" />
    <glyph glyph-name="ij" unicode="&#x133;" horiz-adv-x="612" 
d="M39 0zM217 79q-1 -23 22 -34t67 -11v-34h-267v34q88 0 88 45v351q0 46 -88 46v33h178v-430zM233 684q0 -29 -20.5 -50t-49.5 -21t-50 21t-21 50t21 49.5t50 20.5t49.5 -20.5t20.5 -49.5zM503 -121q0 -60 -39.5 -87.5t-102.5 -27.5q-76 0 -117 29.5t-41 78.5
q0 11 2.5 22.5t9.5 21t18.5 15.5t28.5 6q33 0 48 -18t15 -38q0 -24 -15 -37t-38 -17q12 -14 30.5 -21t52.5 -7q29 0 43 17t14 43v571q0 46 -100 46v33h190zM519 684q0 -29 -20.5 -50t-49.5 -21t-50 21t-21 50t21 49.5t50 20.5t49.5 -20.5t20.5 -49.5z" />
    <glyph glyph-name="Jcircumflex" unicode="&#x134;" horiz-adv-x="630" 
d="M36 0zM602 708q-90 0 -90 -46v-417q0 -127 -61.5 -194t-189.5 -67q-62 0 -104.5 15.5t-69.5 39.5t-39 53.5t-12 58.5q0 33 18 53t50 20q34 0 52 -19t18 -47q0 -24 -15 -41t-41 -19q4 -14 17 -26t32 -21t41 -14t45 -5q73 0 114.5 46t41.5 151v433q0 46 -89 46v35h282v-35z
M551 806l-101 58l-105 -58l-38 30l143 116l142 -117z" />
    <glyph glyph-name="jcircumflex" unicode="&#x135;" horiz-adv-x="366" 
d="M0 0zM276 -121q0 -60 -39.5 -87.5t-102.5 -27.5q-76 0 -117 29.5t-41 78.5q0 11 2.5 22.5t9.5 21t18.5 15.5t28.5 6q33 0 48 -18t15 -38q0 -24 -15 -37t-38 -17q12 -14 30.5 -21t52.5 -7q29 0 43 17t14 43v571q0 46 -100 46v33h190zM266 572l-101 58l-105 -58l-38 30
l143 116l142 -117z" />
    <glyph glyph-name="Kcommaaccent" unicode="&#x136;" horiz-adv-x="900" 
d="M37 0zM783 708q-38 0 -64.5 -14.5t-49.5 -34.5l-198 -175l264 -398q17 -26 41 -38.5t60 -12.5h33v-35h-368v35h99q16 0 21 5.5t5 14.5q0 14 -11 31l-218 332l-168 -149v-188q0 -46 89 -46v-35h-281v35q89 0 89 46v581q0 46 -89 46v35h281v-35q-89 0 -89 -46v-321l344 304
q18 15 18 32q0 13 -11.5 22t-34.5 9h-61v35h299v-35zM368 -209q23 10 32 21.5t9 25.5q0 13 -11 13q-50 0 -50 50q0 26 16.5 40t42.5 14q31 0 48.5 -18t17.5 -51q0 -45 -22 -73.5t-67 -48.5z" />
    <glyph glyph-name="kcommaaccent" unicode="&#x137;" horiz-adv-x="707" 
d="M39 0zM643 476q-31 0 -56.5 -10t-43.5 -24l-161 -121l203 -253q27 -34 83 -34v-34h-292v34h82q22 0 22 13q0 11 -10 21l-158 201l-95 -71v-119q0 -45 89 -45v-34h-267v34q88 0 88 45v613q0 45 -88 45v33h178v-526l252 189q13 9 13 23q0 8 -6 14t-20 6h-49v33h236v-33z
M298 -209q23 10 32 21.5t9 25.5q0 13 -11 13q-50 0 -50 50q0 26 16.5 40t42.5 14q31 0 48.5 -18t17.5 -51q0 -45 -22 -73.5t-67 -48.5z" />
    <glyph glyph-name="Lacute" unicode="&#x139;" horiz-adv-x="732" 
d="M37 0zM340 708q-111 0 -111 -46v-607h221q44 0 79 10.5t60.5 37.5t41.5 72.5t22 116.5l42 -7l-24 -285h-634v35q89 0 89 46v581q0 46 -89 46v35h303v-35zM133 835q27 15 51.5 35t48.5 38t47 31t46 13q28 0 36.5 -14t8.5 -28q0 -20 -26.5 -34.5t-62.5 -26t-72.5 -21.5
t-56.5 -22z" />
    <glyph glyph-name="lacute" unicode="&#x13a;" horiz-adv-x="344" 
d="M39 0zM217 79q0 -45 89 -45v-34h-267v34q88 0 88 45v613q0 45 -88 45v33h178v-691zM65 835q27 15 51.5 35t48.5 38t47 31t46 13q28 0 36.5 -14t8.5 -28q0 -20 -26.5 -34.5t-62.5 -26t-72.5 -21.5t-56.5 -22z" />
    <glyph glyph-name="Lcommaaccent" unicode="&#x13b;" horiz-adv-x="732" 
d="M37 0zM340 708q-111 0 -111 -46v-607h221q44 0 79 10.5t60.5 37.5t41.5 72.5t22 116.5l42 -7l-24 -285h-634v35q89 0 89 46v581q0 46 -89 46v35h303v-35zM338 -209q23 10 32 21.5t9 25.5q0 13 -11 13q-50 0 -50 50q0 26 16.5 40t42.5 14q31 0 48.5 -18t17.5 -51
q0 -45 -22 -73.5t-67 -48.5z" />
    <glyph glyph-name="lcommaaccent" unicode="&#x13c;" horiz-adv-x="344" 
d="M39 0zM217 79q0 -45 89 -45v-34h-267v34q88 0 88 45v613q0 45 -88 45v33h178v-691zM133 -209q23 10 32 21.5t9 25.5q0 13 -11 13q-50 0 -50 50q0 26 16.5 40t42.5 14q31 0 48.5 -18t17.5 -51q0 -45 -22 -73.5t-67 -48.5z" />
    <glyph glyph-name="Lcaron" unicode="&#x13d;" horiz-adv-x="732" 
d="M37 0zM340 708q-111 0 -111 -46v-607h221q44 0 79 10.5t60.5 37.5t41.5 72.5t22 116.5l42 -7l-24 -285h-634v35q89 0 89 46v581q0 46 -89 46v35h303v-35zM384 536q33 19 50.5 34.5t25.5 28.5t9.5 23.5t1.5 18.5q0 15 -14 15q-64 0 -64 52q0 66 68 66q87 0 87 -96
q0 -57 -37.5 -98.5t-106.5 -75.5z" />
    <glyph glyph-name="lcaron" unicode="&#x13e;" horiz-adv-x="419" 
d="M39 0zM217 79q0 -45 89 -45v-34h-267v34q88 0 88 45v613q0 45 -88 45v33h178v-691zM274 536q33 19 50.5 34.5t25.5 28.5t9.5 23.5t1.5 18.5q0 15 -14 15q-64 0 -64 52q0 66 68 66q87 0 87 -96q0 -57 -37.5 -98.5t-106.5 -75.5z" />
    <glyph glyph-name="Ldot" unicode="&#x13f;" horiz-adv-x="732" 
d="M37 0zM340 708q-111 0 -111 -46v-607h221q44 0 79 10.5t60.5 37.5t41.5 72.5t22 116.5l42 -7l-24 -285h-634v35q89 0 89 46v581q0 46 -89 46v35h303v-35zM409 376q0 -26 -18.5 -44.5t-44.5 -18.5t-44.5 18.5t-18.5 44.5t18.5 44.5t44.5 18.5t44.5 -18.5t18.5 -44.5z" />
    <glyph glyph-name="ldot" unicode="&#x140;" horiz-adv-x="362" 
d="M39 0zM217 79q0 -45 89 -45v-34h-267v34q88 0 88 45v613q0 45 -88 45v33h178v-691zM381 383q0 -26 -18.5 -44.5t-44.5 -18.5t-44.5 18.5t-18.5 44.5t18.5 44.5t44.5 18.5t44.5 -18.5t18.5 -44.5z" />
    <glyph glyph-name="Lslash" unicode="&#x141;" horiz-adv-x="744" 
d="M340 708q-111 0 -111 -46v-242l188 76l17 -42l-205 -83v-316h221q44 0 79 10.5t60.5 37.5t41.5 72.5t22 116.5l42 -7l-24 -285h-634v35q89 0 89 46v248l-56 -22l-13 44l69 28v283q0 46 -89 46v35h303v-35z" />
    <glyph glyph-name="lslash" unicode="&#x142;" horiz-adv-x="344" 
d="M217 467l92 37l18 -44l-110 -44v-337q0 -45 89 -45v-34h-267v34q88 0 88 45v301l-91 -37l-14 47l105 42v260q0 45 -88 45v33h178v-303z" />
    <glyph glyph-name="Nacute" unicode="&#x143;" horiz-adv-x="870" 
d="M37 0zM844 708q-89 0 -89 -46v-662h-129l-440 640v-559q0 -46 89 -46v-35h-238v35q89 0 89 46v581q0 46 -89 46v35h211l447 -654v573q0 46 -89 46v35h238v-35zM346 835q27 15 51.5 35t48.5 38t47 31t46 13q28 0 36.5 -14t8.5 -28q0 -20 -26.5 -34.5t-62.5 -26
t-72.5 -21.5t-56.5 -22z" />
    <glyph glyph-name="nacute" unicode="&#x144;" horiz-adv-x="733" 
d="M39 0zM606 79q0 -45 89 -45v-34h-257v34q78 0 78 45v285q0 62 -23 87.5t-60 25.5q-29 0 -61 -12t-61.5 -31.5t-54 -45t-39.5 -53.5v-256q0 -45 78 -45v-34h-256v34q88 0 88 45v351q0 46 -88 46v33h178v-102q42 45 100.5 78.5t131.5 33.5q72 0 114.5 -34t42.5 -115v-291z
M277 601q27 15 51.5 35t48.5 38t47 31t46 13q28 0 36.5 -14t8.5 -28q0 -20 -26.5 -34.5t-62.5 -26t-72.5 -21.5t-56.5 -22z" />
    <glyph glyph-name="Ncommaaccent" unicode="&#x145;" horiz-adv-x="870" 
d="M37 0zM844 708q-89 0 -89 -46v-662h-129l-440 640v-559q0 -46 89 -46v-35h-238v35q89 0 89 46v581q0 46 -89 46v35h211l447 -654v573q0 46 -89 46v35h238v-35zM378 -209q23 10 32 21.5t9 25.5q0 13 -11 13q-50 0 -50 50q0 26 16.5 40t42.5 14q31 0 48.5 -18t17.5 -51
q0 -45 -22 -73.5t-67 -48.5z" />
    <glyph glyph-name="ncommaaccent" unicode="&#x146;" horiz-adv-x="733" 
d="M39 0zM606 79q0 -45 89 -45v-34h-257v34q78 0 78 45v285q0 62 -23 87.5t-60 25.5q-29 0 -61 -12t-61.5 -31.5t-54 -45t-39.5 -53.5v-256q0 -45 78 -45v-34h-256v34q88 0 88 45v351q0 46 -88 46v33h178v-102q42 45 100.5 78.5t131.5 33.5q72 0 114.5 -34t42.5 -115v-291z
M318 -209q23 10 32 21.5t9 25.5q0 13 -11 13q-50 0 -50 50q0 26 16.5 40t42.5 14q31 0 48.5 -18t17.5 -51q0 -45 -22 -73.5t-67 -48.5z" />
    <glyph glyph-name="Ncaron" unicode="&#x147;" horiz-adv-x="870" 
d="M37 0zM844 708q-89 0 -89 -46v-662h-129l-440 640v-559q0 -46 89 -46v-35h-238v35q89 0 89 46v581q0 46 -89 46v35h211l447 -654v573q0 46 -89 46v35h238v-35zM453 806l-141 117l41 29l100 -59l105 59l39 -30z" />
    <glyph glyph-name="ncaron" unicode="&#x148;" horiz-adv-x="733" 
d="M39 0zM606 79q0 -45 89 -45v-34h-257v34q78 0 78 45v285q0 62 -23 87.5t-60 25.5q-29 0 -61 -12t-61.5 -31.5t-54 -45t-39.5 -53.5v-256q0 -45 78 -45v-34h-256v34q88 0 88 45v351q0 46 -88 46v33h178v-102q42 45 100.5 78.5t131.5 33.5q72 0 114.5 -34t42.5 -115v-291z
M356 572l-141 117l41 29l100 -59l105 59l39 -30z" />
    <glyph glyph-name="Eng" unicode="&#x14a;" horiz-adv-x="870" 
d="M844 708q-88 0 -88 -46v-735q0 -48 -15 -79.5t-39.5 -50t-55.5 -26t-62 -7.5q-38 0 -70.5 7.5t-56.5 22t-37.5 34.5t-13.5 44q0 11 2.5 22.5t9.5 21t18.5 15.5t28.5 6q33 0 48 -18t15 -38q0 -24 -15 -37t-38 -17q12 -14 40.5 -21t62.5 -7q14 0 34 5.5t38.5 17.5
t31.5 31.5t13 48.5l-509 738v-559q0 -46 89 -46v-35h-238v35q89 0 89 46v581q0 46 -89 46v35h211l447 -668v587q0 46 -89 46v35h238v-35z" />
    <glyph glyph-name="eng" unicode="&#x14b;" horiz-adv-x="688" 
d="M217 407q42 45 100.5 78.5t131.5 33.5q72 0 115 -34t43 -115v-491q0 -60 -39.5 -87.5t-102.5 -27.5q-76 0 -117 29.5t-41 78.5q0 11 2.5 22.5t9.5 21t18.5 15.5t28.5 6q33 0 48 -18t15 -38q0 -24 -15 -37t-38 -17q12 -14 30.5 -21t52.5 -7q29 0 43 17t14 43v505
q0 62 -23 87.5t-60 25.5q-29 0 -61 -12t-61.5 -31.5t-54 -45t-39.5 -53.5v-256q0 -45 78 -45v-34h-256v34q88 0 88 45v351q0 46 -88 46v33h178v-102z" />
    <glyph glyph-name="Omacron" unicode="&#x14c;" horiz-adv-x="832" 
d="M37 0zM423 759q79 0 147.5 -20t118 -66t78 -119.5t28.5 -181.5q0 -87 -24 -158.5t-72.5 -122.5t-121 -79t-169.5 -28q-77 0 -145 19.5t-118 63.5t-79 115t-29 174q0 91 22.5 165.5t70 127t120 81.5t173.5 29zM428 700q-77 0 -130.5 -22.5t-87.5 -62.5t-49.5 -94.5
t-15.5 -118.5q0 -105 17.5 -174t51.5 -109.5t83 -57t111 -16.5q82 0 136 24.5t86 67t45.5 101t13.5 127.5q0 99 -18.5 163.5t-52.5 103t-82.5 53.5t-107.5 15zM581 854h-331v57h331v-57z" />
    <glyph glyph-name="omacron" unicode="&#x14d;" horiz-adv-x="612" 
d="M43 0zM315 529q54 0 101.5 -14t83.5 -46t56.5 -84t20.5 -128q0 -62 -18 -112.5t-52.5 -86.5t-85.5 -55.5t-117 -19.5q-53 0 -100 13.5t-83 44.5t-57 81t-21 123q0 64 17 116.5t50.5 90t84.5 57.5t120 20zM316 487q-47 0 -81 -16t-56.5 -44t-33.5 -66.5t-11 -83.5
q0 -74 12.5 -123t35 -77.5t53.5 -40t69 -11.5q50 0 84.5 17t56 47.5t31 72t9.5 89.5q0 70 -13 115.5t-35.5 72.5t-53.5 37.5t-67 10.5zM471 620h-331v57h331v-57z" />
    <glyph glyph-name="Obreve" unicode="&#x14e;" horiz-adv-x="832" 
d="M37 0zM423 759q79 0 147.5 -20t118 -66t78 -119.5t28.5 -181.5q0 -87 -24 -158.5t-72.5 -122.5t-121 -79t-169.5 -28q-77 0 -145 19.5t-118 63.5t-79 115t-29 174q0 91 22.5 165.5t70 127t120 81.5t173.5 29zM428 700q-77 0 -130.5 -22.5t-87.5 -62.5t-49.5 -94.5
t-15.5 -118.5q0 -105 17.5 -174t51.5 -109.5t83 -57t111 -16.5q82 0 136 24.5t86 67t45.5 101t13.5 127.5q0 99 -18.5 163.5t-52.5 103t-82.5 53.5t-107.5 15zM416 776q-50 0 -88 16.5t-64 42t-39.5 57t-14.5 60.5h57q2 -23 12 -45t28 -39.5t45.5 -28.5t63.5 -11t63.5 11
t45.5 28.5t28 39.5t12 45h57q-2 -29 -15.5 -60.5t-39 -57t-63.5 -42t-88 -16.5z" />
    <glyph glyph-name="obreve" unicode="&#x14f;" horiz-adv-x="612" 
d="M43 0zM315 529q54 0 101.5 -14t83.5 -46t56.5 -84t20.5 -128q0 -62 -18 -112.5t-52.5 -86.5t-85.5 -55.5t-117 -19.5q-53 0 -100 13.5t-83 44.5t-57 81t-21 123q0 64 17 116.5t50.5 90t84.5 57.5t120 20zM316 487q-47 0 -81 -16t-56.5 -44t-33.5 -66.5t-11 -83.5
q0 -74 12.5 -123t35 -77.5t53.5 -40t69 -11.5q50 0 84.5 17t56 47.5t31 72t9.5 89.5q0 70 -13 115.5t-35.5 72.5t-53.5 37.5t-67 10.5zM306 542q-50 0 -88 16.5t-64 42t-39.5 57t-14.5 60.5h57q2 -23 12 -45t28 -39.5t45.5 -28.5t63.5 -11t63.5 11t45.5 28.5t28 39.5t12 45
h57q-2 -29 -15.5 -60.5t-39 -57t-63.5 -42t-88 -16.5z" />
    <glyph glyph-name="Ohungarumlaut" unicode="&#x150;" horiz-adv-x="832" 
d="M37 0zM423 759q79 0 147.5 -20t118 -66t78 -119.5t28.5 -181.5q0 -87 -24 -158.5t-72.5 -122.5t-121 -79t-169.5 -28q-77 0 -145 19.5t-118 63.5t-79 115t-29 174q0 91 22.5 165.5t70 127t120 81.5t173.5 29zM428 700q-77 0 -130.5 -22.5t-87.5 -62.5t-49.5 -94.5
t-15.5 -118.5q0 -105 17.5 -174t51.5 -109.5t83 -57t111 -16.5q82 0 136 24.5t86 67t45.5 101t13.5 127.5q0 99 -18.5 163.5t-52.5 103t-82.5 53.5t-107.5 15zM538.364 789.108h-51.2227l24.627 162.999h88.6533zM321.654 789.108h-51.2227l24.626 162.999h88.6543z" />
    <glyph glyph-name="ohungarumlaut" unicode="&#x151;" horiz-adv-x="612" 
d="M43 0zM315 529q54 0 101.5 -14t83.5 -46t56.5 -84t20.5 -128q0 -62 -18 -112.5t-52.5 -86.5t-85.5 -55.5t-117 -19.5q-53 0 -100 13.5t-83 44.5t-57 81t-21 123q0 64 17 116.5t50.5 90t84.5 57.5t120 20zM316 487q-47 0 -81 -16t-56.5 -44t-33.5 -66.5t-11 -83.5
q0 -74 12.5 -123t35 -77.5t53.5 -40t69 -11.5q50 0 84.5 17t56 47.5t31 72t9.5 89.5q0 70 -13 115.5t-35.5 72.5t-53.5 37.5t-67 10.5zM438.18 551.933h-53.708l25.8213 166h92.9551zM210.955 551.933h-53.707l25.8203 166h92.9561z" />
    <glyph glyph-name="OE" unicode="&#x152;" horiz-adv-x="1228" 
d="M1158 517l-40 -3q-18 174 -145 174h-250v-273h142q74 0 83 129h38l-15 -312h-36q-10 133 -77 133h-135v-310h214q179 0 203 237l42 -7l-24 -285h-532q-38 0 -90.5 -8t-127.5 -8q-77 0 -145 19.5t-118 63.5t-79 115t-29 174q0 91 22.5 165.5t70 127t120 81.5t173.5 29
q66 0 115.5 -8t87.5 -8h532v-226zM428 700q-77 0 -130.5 -22.5t-87.5 -62.5t-49.5 -94.5t-15.5 -118.5q0 -105 17.5 -174t51.5 -109.5t83 -57t111 -16.5q78 0 123.5 10t69.5 43t31 96.5t7 170.5q0 113 -6.5 179.5t-28.5 101t-64 44.5t-112 10z" />
    <glyph glyph-name="oe" unicode="&#x153;" horiz-adv-x="1027" 
d="M572 271q0 -114 43 -180t127 -66q32 0 61.5 7t54 23.5t42.5 42t28 63.5l40 -15q-10 -32 -27.5 -61.5t-44.5 -52t-65 -36t-89 -13.5q-31 0 -62 5t-59 17t-52.5 32.5t-42.5 50.5q-32 -51 -88 -78t-134 -27q-53 0 -100 13.5t-83 44.5t-57 81t-21 123q0 64 17 116.5t50.5 90
t84.5 57.5t120 20q70 0 127 -24.5t90 -81.5q32 51 86.5 78.5t129.5 27.5q118 0 179 -67.5t61 -190.5h-416zM316 487q-47 0 -81 -16t-56.5 -44t-33.5 -66.5t-11 -83.5q0 -74 12.5 -123t35 -77.5t53.5 -40t69 -11.5q50 0 84.5 17t56 47.5t31 72t9.5 89.5q0 70 -13 115.5
t-35.5 72.5t-53.5 37.5t-67 10.5zM894 309q0 81 -39.5 129.5t-111.5 48.5q-32 0 -61 -10t-52 -31t-38 -55t-19 -82h321z" />
    <glyph glyph-name="Racute" unicode="&#x154;" horiz-adv-x="784" 
d="M37 0zM758 89q0 -42 -21 -69t-79 -27q-31 0 -52 7.5t-34 21t-19 31.5t-6 40v86q0 91 -28.5 138.5t-100.5 47.5h-189v-284q0 -46 111 -46v-35h-303v35q89 0 89 46v581q0 46 -89 46v35h381q49 0 96 -6.5t83.5 -26.5t58.5 -56.5t22 -96.5q0 -39 -12 -68.5t-31.5 -50.5
t-44.5 -34t-52 -19q25 -10 46 -25t35.5 -39t22.5 -58t8 -81v-103q0 -22 9 -32.5t23 -10.5q15 0 24 10.5t9 32.5v48h43v-38zM229 683v-268h201q62 0 101.5 30.5t39.5 100.5t-37.5 103.5t-103.5 33.5h-201zM263 835q27 15 51.5 35t48.5 38t47 31t46 13q28 0 36.5 -14t8.5 -28
q0 -20 -26.5 -34.5t-62.5 -26t-72.5 -21.5t-56.5 -22z" />
    <glyph glyph-name="racute" unicode="&#x155;" horiz-adv-x="547" 
d="M39 0zM217 412q32 57 77 82t90 25q21 0 43 -6.5t40 -20.5t29.5 -37t11.5 -56q0 -30 -16.5 -47.5t-46.5 -17.5t-45.5 16t-15.5 38q0 25 18 39.5t51 14.5q-8 17 -29 26t-46 9q-18 0 -38 -6t-41 -22.5t-42 -45t-40 -72.5v-252q0 -45 100 -45v-34h-278v34q88 0 88 45v351
q0 46 -88 46v33h178v-97zM132 601q27 15 51.5 35t48.5 38t47 31t46 13q28 0 36.5 -14t8.5 -28q0 -20 -26.5 -34.5t-62.5 -26t-72.5 -21.5t-56.5 -22z" />
    <glyph glyph-name="Rcommaaccent" unicode="&#x156;" horiz-adv-x="784" 
d="M37 0zM758 89q0 -42 -21 -69t-79 -27q-31 0 -52 7.5t-34 21t-19 31.5t-6 40v86q0 91 -28.5 138.5t-100.5 47.5h-189v-284q0 -46 111 -46v-35h-303v35q89 0 89 46v581q0 46 -89 46v35h381q49 0 96 -6.5t83.5 -26.5t58.5 -56.5t22 -96.5q0 -39 -12 -68.5t-31.5 -50.5
t-44.5 -34t-52 -19q25 -10 46 -25t35.5 -39t22.5 -58t8 -81v-103q0 -22 9 -32.5t23 -10.5q15 0 24 10.5t9 32.5v48h43v-38zM229 683v-268h201q62 0 101.5 30.5t39.5 100.5t-37.5 103.5t-103.5 33.5h-201zM408 -209q23 10 32 21.5t9 25.5q0 13 -11 13q-50 0 -50 50
q0 26 16.5 40t42.5 14q31 0 48.5 -18t17.5 -51q0 -45 -22 -73.5t-67 -48.5z" />
    <glyph glyph-name="rcommaaccent" unicode="&#x157;" horiz-adv-x="547" 
d="M39 0zM217 412q32 57 77 82t90 25q21 0 43 -6.5t40 -20.5t29.5 -37t11.5 -56q0 -30 -16.5 -47.5t-46.5 -17.5t-45.5 16t-15.5 38q0 25 18 39.5t51 14.5q-8 17 -29 26t-46 9q-18 0 -38 -6t-41 -22.5t-42 -45t-40 -72.5v-252q0 -45 100 -45v-34h-278v34q88 0 88 45v351
q0 46 -88 46v33h178v-97zM131 -209q23 10 32 21.5t9 25.5q0 13 -11 13q-50 0 -50 50q0 26 16.5 40t42.5 14q31 0 48.5 -18t17.5 -51q0 -45 -22 -73.5t-67 -48.5z" />
    <glyph glyph-name="Rcaron" unicode="&#x158;" horiz-adv-x="784" 
d="M37 0zM758 89q0 -42 -21 -69t-79 -27q-31 0 -52 7.5t-34 21t-19 31.5t-6 40v86q0 91 -28.5 138.5t-100.5 47.5h-189v-284q0 -46 111 -46v-35h-303v35q89 0 89 46v581q0 46 -89 46v35h381q49 0 96 -6.5t83.5 -26.5t58.5 -56.5t22 -96.5q0 -39 -12 -68.5t-31.5 -50.5
t-44.5 -34t-52 -19q25 -10 46 -25t35.5 -39t22.5 -58t8 -81v-103q0 -22 9 -32.5t23 -10.5q15 0 24 10.5t9 32.5v48h43v-38zM229 683v-268h201q62 0 101.5 30.5t39.5 100.5t-37.5 103.5t-103.5 33.5h-201zM366 806l-141 117l41 29l100 -59l105 59l39 -30z" />
    <glyph glyph-name="rcaron" unicode="&#x159;" horiz-adv-x="547" 
d="M39 0zM217 412q32 57 77 82t90 25q21 0 43 -6.5t40 -20.5t29.5 -37t11.5 -56q0 -30 -16.5 -47.5t-46.5 -17.5t-45.5 16t-15.5 38q0 25 18 39.5t51 14.5q-8 17 -29 26t-46 9q-18 0 -38 -6t-41 -22.5t-42 -45t-40 -72.5v-252q0 -45 100 -45v-34h-278v34q88 0 88 45v351
q0 46 -88 46v33h178v-97zM251 572l-141 117l41 29l100 -59l105 59l39 -30z" />
    <glyph glyph-name="Sacute" unicode="&#x15a;" horiz-adv-x="684" 
d="M37 0zM615 473l-43 -9q-5 59 -27 103.5t-57 74t-80 44t-95 14.5q-53 0 -90 -9.5t-59.5 -26.5t-32.5 -41t-10 -53q0 -39 22.5 -62t59.5 -37t84.5 -22t96.5 -17t96.5 -22t84.5 -37t59.5 -62.5t22.5 -97.5q0 -60 -20 -103.5t-57.5 -71.5t-91.5 -41t-121 -13
q-60 0 -108.5 15.5t-93.5 47.5q-17 11 -28 11q-13 0 -21 -8t-14 -22l-12 -28h-43v285l43 6q5 -52 27 -97t58.5 -78t86.5 -52t112 -19q206 0 206 148q0 41 -22.5 64.5t-59.5 37t-84 21t-96.5 16t-96.5 21t-84 37.5t-59.5 65.5t-22.5 103.5q0 36 12 72t42 64.5t80 46t127 17.5
q61 0 106 -13t87 -37q19 -12 37 -12q20 0 32 19l17 27h30v-270zM223 835q27 15 51.5 35t48.5 38t47 31t46 13q28 0 36.5 -14t8.5 -28q0 -20 -26.5 -34.5t-62.5 -26t-72.5 -21.5t-56.5 -22z" />
    <glyph glyph-name="sacute" unicode="&#x15b;" horiz-adv-x="518" 
d="M39 0zM458 318l-37 -7q-9 81 -58.5 123.5t-134.5 42.5q-45 0 -77.5 -18t-32.5 -58q0 -37 26.5 -55.5t67 -29.5t87 -19t87 -24.5t67 -46.5t26.5 -84q0 -72 -48.5 -110t-142.5 -38q-48 0 -88.5 10.5t-70.5 35.5q-7 5 -15.5 10.5t-15.5 5.5q-8 0 -11 -4.5t-5 -15.5l-7 -36
h-36v204l36 6q5 -40 23.5 -72.5t46.5 -56t64 -36t76 -12.5q63 0 90.5 23.5t27.5 60.5q0 28 -15.5 45t-41 27.5t-58 17t-66.5 14t-66.5 17.5t-58 27.5t-41 44.5t-15.5 69q0 66 47 103t138 37q37 0 77.5 -12t65.5 -31q8 -7 16.5 -12t16.5 -5q10 0 14 15l5 35h37v-191zM140 601
q27 15 51.5 35t48.5 38t47 31t46 13q28 0 36.5 -14t8.5 -28q0 -20 -26.5 -34.5t-62.5 -26t-72.5 -21.5t-56.5 -22z" />
    <glyph glyph-name="Scircumflex" unicode="&#x15c;" horiz-adv-x="684" 
d="M37 0zM615 473l-43 -9q-5 59 -27 103.5t-57 74t-80 44t-95 14.5q-53 0 -90 -9.5t-59.5 -26.5t-32.5 -41t-10 -53q0 -39 22.5 -62t59.5 -37t84.5 -22t96.5 -17t96.5 -22t84.5 -37t59.5 -62.5t22.5 -97.5q0 -60 -20 -103.5t-57.5 -71.5t-91.5 -41t-121 -13
q-60 0 -108.5 15.5t-93.5 47.5q-17 11 -28 11q-13 0 -21 -8t-14 -22l-12 -28h-43v285l43 6q5 -52 27 -97t58.5 -78t86.5 -52t112 -19q206 0 206 148q0 41 -22.5 64.5t-59.5 37t-84 21t-96.5 16t-96.5 21t-84 37.5t-59.5 65.5t-22.5 103.5q0 36 12 72t42 64.5t80 46t127 17.5
q61 0 106 -13t87 -37q19 -12 37 -12q20 0 32 19l17 27h30v-270zM443 806l-101 58l-105 -58l-38 30l143 116l142 -117z" />
    <glyph glyph-name="scircumflex" unicode="&#x15d;" horiz-adv-x="518" 
d="M39 0zM458 318l-37 -7q-9 81 -58.5 123.5t-134.5 42.5q-45 0 -77.5 -18t-32.5 -58q0 -37 26.5 -55.5t67 -29.5t87 -19t87 -24.5t67 -46.5t26.5 -84q0 -72 -48.5 -110t-142.5 -38q-48 0 -88.5 10.5t-70.5 35.5q-7 5 -15.5 10.5t-15.5 5.5q-8 0 -11 -4.5t-5 -15.5l-7 -36
h-36v204l36 6q5 -40 23.5 -72.5t46.5 -56t64 -36t76 -12.5q63 0 90.5 23.5t27.5 60.5q0 28 -15.5 45t-41 27.5t-58 17t-66.5 14t-66.5 17.5t-58 27.5t-41 44.5t-15.5 69q0 66 47 103t138 37q37 0 77.5 -12t65.5 -31q8 -7 16.5 -12t16.5 -5q10 0 14 15l5 35h37v-191zM360 572
l-101 58l-105 -58l-38 30l143 116l142 -117z" />
    <glyph glyph-name="Scedilla" unicode="&#x15e;" horiz-adv-x="684" 
d="M615 473l-43 -9q-5 59 -27 103.5t-57 74t-80 44t-95 14.5q-53 0 -90 -9.5t-59.5 -26.5t-32.5 -41t-10 -53q0 -39 22.5 -62t59.5 -37t84.5 -22t96.5 -17t96.5 -22t84.5 -37t59.5 -62.5t22.5 -97.5q0 -114 -70.5 -169t-193.5 -59v-25q17 0 34 -6t30.5 -17t22 -26.5
t8.5 -34.5q0 -48 -26 -70.5t-64 -22.5q-32 0 -51 17.5t-26 37.5l19 15q11 -19 25.5 -27.5t28.5 -8.5q23 0 37 15.5t14 43.5q0 15 -7 25.5t-18.5 17t-26 9.5t-28.5 4v52q-58 0 -106.5 15.5t-93.5 47.5q-17 11 -28 11q-13 0 -21 -8t-14 -22l-12 -28h-43v285l43 6q5 -52 27 -97
t58.5 -78t86.5 -52t112 -19q206 0 206 148q0 41 -22.5 64.5t-59.5 37t-84 21t-96.5 16t-96.5 21t-84 37.5t-59.5 65.5t-22.5 103.5q0 36 12 72t42 64.5t80 46t127 17.5q61 0 106 -13t87 -37q19 -12 37 -12q20 0 32 19l17 27h30v-270z" />
    <glyph glyph-name="scedilla" unicode="&#x15f;" horiz-adv-x="518" 
d="M458 318l-37 -7q-9 81 -58.5 123.5t-134.5 42.5q-45 0 -77.5 -18t-32.5 -58q0 -37 26.5 -55.5t67 -29.5t87 -19t87 -24.5t67 -46.5t26.5 -84q0 -69 -46 -107.5t-137 -40.5v-34q17 0 34 -6t30.5 -17t22 -26.5t8.5 -34.5q0 -48 -26 -70.5t-64 -22.5q-32 0 -51 17.5
t-26 37.5l19 15q11 -19 25.5 -27.5t28.5 -8.5q23 0 37 15.5t14 43.5q0 15 -7 25.5t-18.5 17t-26 9.5t-28.5 4v63q-42 2 -77.5 12t-61.5 33q-7 5 -15.5 10.5t-15.5 5.5q-8 0 -11 -4.5t-5 -15.5l-7 -36h-36v204l36 6q5 -40 23.5 -72.5t46.5 -56t64 -36t76 -12.5
q63 0 90.5 23.5t27.5 60.5q0 28 -15.5 45t-41 27.5t-58 17t-66.5 14t-66.5 17.5t-58 27.5t-41 44.5t-15.5 69q0 66 47 103t138 37q37 0 77.5 -12t65.5 -31q8 -7 16.5 -12t16.5 -5q10 0 14 15l5 35h37v-191z" />
    <glyph glyph-name="Scaron" unicode="&#x160;" horiz-adv-x="684" 
d="M37 0zM615 473l-43 -9q-5 59 -27 103.5t-57 74t-80 44t-95 14.5q-53 0 -90 -9.5t-59.5 -26.5t-32.5 -41t-10 -53q0 -39 22.5 -62t59.5 -37t84.5 -22t96.5 -17t96.5 -22t84.5 -37t59.5 -62.5t22.5 -97.5q0 -60 -20 -103.5t-57.5 -71.5t-91.5 -41t-121 -13
q-60 0 -108.5 15.5t-93.5 47.5q-17 11 -28 11q-13 0 -21 -8t-14 -22l-12 -28h-43v285l43 6q5 -52 27 -97t58.5 -78t86.5 -52t112 -19q206 0 206 148q0 41 -22.5 64.5t-59.5 37t-84 21t-96.5 16t-96.5 21t-84 37.5t-59.5 65.5t-22.5 103.5q0 36 12 72t42 64.5t80 46t127 17.5
q61 0 106 -13t87 -37q19 -12 37 -12q20 0 32 19l17 27h30v-270zM340 830l-141 117l41 29l100 -59l105 59l39 -30z" />
    <glyph glyph-name="scaron" unicode="&#x161;" horiz-adv-x="518" 
d="M39 0zM458 318l-37 -7q-9 81 -58.5 123.5t-134.5 42.5q-45 0 -77.5 -18t-32.5 -58q0 -37 26.5 -55.5t67 -29.5t87 -19t87 -24.5t67 -46.5t26.5 -84q0 -72 -48.5 -110t-142.5 -38q-48 0 -88.5 10.5t-70.5 35.5q-7 5 -15.5 10.5t-15.5 5.5q-8 0 -11 -4.5t-5 -15.5l-7 -36
h-36v204l36 6q5 -40 23.5 -72.5t46.5 -56t64 -36t76 -12.5q63 0 90.5 23.5t27.5 60.5q0 28 -15.5 45t-41 27.5t-58 17t-66.5 14t-66.5 17.5t-58 27.5t-41 44.5t-15.5 69q0 66 47 103t138 37q37 0 77.5 -12t65.5 -31q8 -7 16.5 -12t16.5 -5q10 0 14 15l5 35h37v-191zM248 572
l-141 117l41 29l100 -59l105 59l39 -30z" />
    <glyph glyph-name="Tcommaaccent" unicode="&#x162;" horiz-adv-x="809" 
d="M37 0zM773 437l-40 -3q-5 78 -16.5 127.5t-31.5 77.5t-48.5 38.5t-67.5 10.5h-112v-607q0 -46 90 -46v-35h-282v35q89 0 89 46v607h-113q-39 0 -67.5 -10.5t-48 -38.5t-31 -77.5t-17.5 -127.5l-40 3v306h736v-306zM361 -209q23 10 32 21.5t9 25.5q0 13 -11 13
q-50 0 -50 50q0 26 16.5 40t42.5 14q31 0 48.5 -18t17.5 -51q0 -45 -22 -73.5t-67 -48.5z" />
    <glyph glyph-name="tcommaaccent" unicode="&#x163;" horiz-adv-x="390" 
d="M39 0zM218 509h136l-5 -58q-29 6 -61 8.5t-70 2.5v-379q0 -45 50 -45q24 0 34 13.5t10 31.5v68h38v-58q0 -22 -3.5 -40t-14.5 -31.5t-31 -21t-53 -7.5q-61 0 -90.5 31.5t-29.5 88.5v349h-89v34q28 2 51.5 8t39.5 21.5t25 42t9 69.5v22l54 7v-157zM187 -209q23 10 32 21.5
t9 25.5q0 13 -11 13q-50 0 -50 50q0 26 16.5 40t42.5 14q31 0 48.5 -18t17.5 -51q0 -45 -22 -73.5t-67 -48.5z" />
    <glyph glyph-name="Tcaron" unicode="&#x164;" horiz-adv-x="809" 
d="M37 0zM773 437l-40 -3q-5 78 -16.5 127.5t-31.5 77.5t-48.5 38.5t-67.5 10.5h-112v-607q0 -46 90 -46v-35h-282v35q89 0 89 46v607h-113q-39 0 -67.5 -10.5t-48 -38.5t-31 -77.5t-17.5 -127.5l-40 3v306h736v-306zM403 806l-141 117l41 29l100 -59l105 59l39 -30z" />
    <glyph glyph-name="tcaron" unicode="&#x165;" horiz-adv-x="459" 
d="M39 0zM218 509h136l-5 -58q-29 6 -61 8.5t-70 2.5v-379q0 -45 50 -45q24 0 34 13.5t10 31.5v68h38v-58q0 -22 -3.5 -40t-14.5 -31.5t-31 -21t-53 -7.5q-61 0 -90.5 31.5t-29.5 88.5v349h-89v34q28 2 51.5 8t39.5 21.5t25 42t9 69.5v22l54 7v-157zM363 536
q33 19 50.5 34.5t25.5 28.5t9.5 23.5t1.5 18.5q0 15 -14 15q-64 0 -64 52q0 66 68 66q87 0 87 -96q0 -57 -37.5 -98.5t-106.5 -75.5z" />
    <glyph glyph-name="Tbar" unicode="&#x166;" horiz-adv-x="809" 
d="M609 324h-152v-243q0 -46 90 -46v-35h-282v35q89 0 89 46v243h-146v65h146v299h-113q-39 0 -67.5 -10.5t-48 -38.5t-31 -77.5t-17.5 -127.5l-40 3v306h736v-306l-40 -3q-5 78 -16.5 127.5t-31.5 77.5t-48.5 38.5t-67.5 10.5h-112v-299h152v-65z" />
    <glyph glyph-name="tbar" unicode="&#x167;" horiz-adv-x="390" 
d="M335 280h-117v-197q0 -45 50 -45q24 0 34 13.5t10 31.5v68h38v-58q0 -22 -3.5 -40t-14.5 -31.5t-31 -21t-53 -7.5q-61 0 -90.5 31.5t-29.5 88.5v167h-82v49h82v133h-89v34q28 2 51.5 8t39.5 21.5t25 42t9 69.5v22l54 7v-157h136l-5 -58q-29 6 -61 8.5t-70 2.5v-133h117
v-49z" />
    <glyph glyph-name="Utilde" unicode="&#x168;" horiz-adv-x="854" 
d="M37 0zM820 708q-90 0 -90 -46v-359q0 -154 -72.5 -236.5t-228.5 -82.5q-158 0 -230.5 82.5t-72.5 236.5v359q0 46 -89 46v35h303v-35q-111 0 -111 -46v-359q0 -65 10.5 -113.5t36 -80.5t67.5 -48t106 -16t106.5 16t68 48t36.5 80.5t11 113.5v359q0 46 -112 46v35h261v-35
zM626 917q-11 -45 -43 -70t-74 -25q-23 0 -41 8t-34.5 18t-32.5 18t-34 8q-39 0 -68 -50l-41 22q6 21 19 38.5t29.5 30t34.5 19t35 6.5q32 0 50.5 -8t32 -18t26.5 -18t34 -8q19 0 32.5 7.5t30.5 40.5z" />
    <glyph glyph-name="utilde" unicode="&#x169;" horiz-adv-x="696" 
d="M39 0zM581 79q0 -45 76 -45v-34h-168v102q-13 -20 -32.5 -39.5t-45.5 -35.5t-58 -26t-71 -10q-79 0 -117 33.5t-38 115.5v290q0 46 -88 46v33h178v-364q0 -63 18.5 -87.5t63.5 -24.5q28 0 56 11t52.5 30.5t45.5 45t36 54.5v256q0 46 -99 46v33h191v-430zM516 683
q-11 -45 -43 -70t-74 -25q-23 0 -41 8t-34.5 18t-32.5 18t-34 8q-39 0 -68 -50l-41 22q6 21 19 38.5t29.5 30t34.5 19t35 6.5q32 0 50.5 -8t32 -18t26.5 -18t34 -8q19 0 32.5 7.5t30.5 40.5z" />
    <glyph glyph-name="Umacron" unicode="&#x16a;" horiz-adv-x="854" 
d="M37 0zM820 708q-90 0 -90 -46v-359q0 -154 -72.5 -236.5t-228.5 -82.5q-158 0 -230.5 82.5t-72.5 236.5v359q0 46 -89 46v35h303v-35q-111 0 -111 -46v-359q0 -65 10.5 -113.5t36 -80.5t67.5 -48t106 -16t106.5 16t68 48t36.5 80.5t11 113.5v359q0 46 -112 46v35h261v-35
zM614 854h-331v57h331v-57z" />
    <glyph glyph-name="umacron" unicode="&#x16b;" horiz-adv-x="696" 
d="M39 0zM581 79q0 -45 76 -45v-34h-168v102q-13 -20 -32.5 -39.5t-45.5 -35.5t-58 -26t-71 -10q-79 0 -117 33.5t-38 115.5v290q0 46 -88 46v33h178v-364q0 -63 18.5 -87.5t63.5 -24.5q28 0 56 11t52.5 30.5t45.5 45t36 54.5v256q0 46 -99 46v33h191v-430zM502 620h-331v57
h331v-57z" />
    <glyph glyph-name="Ubreve" unicode="&#x16c;" horiz-adv-x="854" 
d="M37 0zM820 708q-90 0 -90 -46v-359q0 -154 -72.5 -236.5t-228.5 -82.5q-158 0 -230.5 82.5t-72.5 236.5v359q0 46 -89 46v35h303v-35q-111 0 -111 -46v-359q0 -65 10.5 -113.5t36 -80.5t67.5 -48t106 -16t106.5 16t68 48t36.5 80.5t11 113.5v359q0 46 -112 46v35h261v-35
zM453 776q-50 0 -88 16.5t-64 42t-39.5 57t-14.5 60.5h57q2 -23 12 -45t28 -39.5t45.5 -28.5t63.5 -11t63.5 11t45.5 28.5t28 39.5t12 45h57q-2 -29 -15.5 -60.5t-39 -57t-63.5 -42t-88 -16.5z" />
    <glyph glyph-name="ubreve" unicode="&#x16d;" horiz-adv-x="696" 
d="M39 0zM581 79q0 -45 76 -45v-34h-168v102q-13 -20 -32.5 -39.5t-45.5 -35.5t-58 -26t-71 -10q-79 0 -117 33.5t-38 115.5v290q0 46 -88 46v33h178v-364q0 -63 18.5 -87.5t63.5 -24.5q28 0 56 11t52.5 30.5t45.5 45t36 54.5v256q0 46 -99 46v33h191v-430zM333 542
q-50 0 -88 16.5t-64 42t-39.5 57t-14.5 60.5h57q2 -23 12 -45t28 -39.5t45.5 -28.5t63.5 -11t63.5 11t45.5 28.5t28 39.5t12 45h57q-2 -29 -15.5 -60.5t-39 -57t-63.5 -42t-88 -16.5z" />
    <glyph glyph-name="Uring" unicode="&#x16e;" horiz-adv-x="854" 
d="M37 0zM820 708q-90 0 -90 -46v-359q0 -154 -72.5 -236.5t-228.5 -82.5q-158 0 -230.5 82.5t-72.5 236.5v359q0 46 -89 46v35h303v-35q-111 0 -111 -46v-359q0 -65 10.5 -113.5t36 -80.5t67.5 -48t106 -16t106.5 16t68 48t36.5 80.5t11 113.5v359q0 46 -112 46v35h261v-35
zM451 916q-29 0 -47 -19.5t-18 -48.5q0 -33 18 -51t47 -18q27 0 46 18t19 51q0 29 -19 48.5t-46 19.5zM555 848q0 -21 -8 -40.5t-22.5 -33.5t-33.5 -22.5t-40 -8.5t-39.5 8.5t-32 22.5t-21.5 33.5t-8 40.5t8 40t21.5 33.5t32 22.5t39.5 8t40 -8t33.5 -22.5t22.5 -33.5t8 -40
z" />
    <glyph glyph-name="uring" unicode="&#x16f;" horiz-adv-x="696" 
d="M39 0zM581 79q0 -45 76 -45v-34h-168v102q-13 -20 -32.5 -39.5t-45.5 -35.5t-58 -26t-71 -10q-79 0 -117 33.5t-38 115.5v290q0 46 -88 46v33h178v-364q0 -63 18.5 -87.5t63.5 -24.5q28 0 56 11t52.5 30.5t45.5 45t36 54.5v256q0 46 -99 46v33h191v-430zM322 712
q-29 0 -47 -19.5t-18 -48.5q0 -33 18 -51t47 -18q27 0 46 18t19 51q0 29 -19 48.5t-46 19.5zM426 644q0 -21 -8 -40.5t-22.5 -33.5t-33.5 -22.5t-40 -8.5t-39.5 8.5t-32 22.5t-21.5 33.5t-8 40.5t8 40t21.5 33.5t32 22.5t39.5 8t40 -8t33.5 -22.5t22.5 -33.5t8 -40z" />
    <glyph glyph-name="Uhungarumlaut" unicode="&#x170;" horiz-adv-x="854" 
d="M37 0zM820 708q-90 0 -90 -46v-359q0 -154 -72.5 -236.5t-228.5 -82.5q-158 0 -230.5 82.5t-72.5 236.5v359q0 46 -89 46v35h303v-35q-111 0 -111 -46v-359q0 -65 10.5 -113.5t36 -80.5t67.5 -48t106 -16t106.5 16t68 48t36.5 80.5t11 113.5v359q0 46 -112 46v35h261v-35
zM591.636 769.652h-52.7773l25.373 181.995h91.3467zM368.346 769.652h-52.7773l25.374 181.995h91.3457z" />
    <glyph glyph-name="uhungarumlaut" unicode="&#x171;" horiz-adv-x="696" 
d="M39 0zM581 79q0 -45 76 -45v-34h-168v102q-13 -20 -32.5 -39.5t-45.5 -35.5t-58 -26t-71 -10q-79 0 -117 33.5t-38 115.5v290q0 46 -88 46v33h178v-364q0 -63 18.5 -87.5t63.5 -24.5q28 0 56 11t52.5 30.5t45.5 45t36 54.5v256q0 46 -99 46v33h191v-430zM460 549h-52
l25 199h90zM240 549h-52l25 199h90z" />
    <glyph glyph-name="Uogonek" unicode="&#x172;" horiz-adv-x="854" 
d="M820 708q-90 0 -90 -46v-359q0 -124 -45.5 -201t-142.5 -104q-64 -35 -99.5 -59.5t-52.5 -41.5t-20.5 -27.5t-3.5 -17.5q0 -17 14.5 -28t39.5 -11q31 0 62 14.5t63 37.5v-55q-17 -17 -49.5 -31.5t-80.5 -14.5q-18 0 -34.5 4t-29.5 12t-21 20t-8 29q0 13 5.5 27.5
t23.5 33.5t53 43t95 56q-17 -2 -34 -3.5t-36 -1.5q-158 0 -230.5 82.5t-72.5 236.5v359q0 46 -89 46v35h303v-35q-111 0 -111 -46v-359q0 -65 10.5 -113.5t36 -80.5t67.5 -48t106 -16t106.5 16t68 48t36.5 80.5t11 113.5v359q0 46 -112 46v35h261v-35z" />
    <glyph glyph-name="uogonek" unicode="&#x173;" horiz-adv-x="696" 
d="M489 0v102q-13 -20 -32.5 -39.5t-45.5 -35.5t-58 -26t-71 -10q-79 0 -117 33.5t-38 115.5v290q0 46 -88 46v33h178v-364q0 -63 18.5 -87.5t63.5 -24.5q28 0 56 11t52.5 30.5t45.5 45t36 54.5v256q0 46 -99 46v33h191v-430q0 -45 76 -45v-34q-65 -44 -101 -70t-53.5 -41
t-21 -22.5t-3.5 -14.5q0 -17 14.5 -28t39.5 -11q31 0 62 14.5t63 37.5v-55q-17 -17 -49.5 -31.5t-80.5 -14.5q-18 0 -34.5 4t-29.5 12t-21 20t-8 29q0 13 5.5 25.5t25.5 31t58.5 45.5t104.5 69h-139z" />
    <glyph glyph-name="Wcircumflex" unicode="&#x174;" horiz-adv-x="1223" 
d="M37 0zM1187 707q-32 0 -52 -7t-25 -21l-216 -679h-98l-187 545l-192 -545h-99l-210 678q-9 30 -71 30v35h296v-35h-86q-26 0 -26 -17q0 -6 4 -13l172 -574l180 534l-13 40q-11 30 -72 30v35h296v-35h-85q-26 0 -26 -17q0 -6 3 -13l195 -574l168 566q1 4 1.5 7t0.5 7
q0 24 -39 24h-58v35h239v-36zM730 806l-101 58l-105 -58l-38 30l143 116l142 -117z" />
    <glyph glyph-name="wcircumflex" unicode="&#x175;" horiz-adv-x="994" 
d="M39 0zM955 476q-34 0 -51 -8t-23 -26l-159 -442h-80l-146 376l-153 -376h-81l-155 441q-12 35 -68 35v33h252v-33h-62q-28 0 -28 -18q0 -16 4 -23l123 -368l149 366q3 7 3 18q0 25 -35 25h-50v33h253v-33h-69q-24 0 -24 -17q0 -6 2.5 -11.5t4.5 -11.5l145 -369l127 366
q3 7 3 14q0 29 -45 29h-40v33h203v-33zM617 572l-101 58l-105 -58l-38 30l143 116l142 -117z" />
    <glyph glyph-name="Ycircumflex" unicode="&#x176;" horiz-adv-x="821" 
d="M28 0zM789 707q-40 0 -60 -7.5t-28 -20.5l-246 -365v-233q0 -46 100 -46v-35h-303v35q100 0 100 46v233l-241 364q-12 17 -34 23.5t-49 6.5v35h330v-35h-99q-30 0 -30 -20q0 -6 4 -13l204 -305l198 300q4 7 4 14q0 11 -12.5 17.5t-33.5 6.5h-67v35h263v-36zM538 806
l-101 58l-105 -58l-38 30l143 116l142 -117z" />
    <glyph glyph-name="ycircumflex" unicode="&#x177;" horiz-adv-x="673" 
d="M30 0zM639 476q-33 0 -51.5 -8.5t-26.5 -25.5l-234 -552q-13 -30 -26 -51.5t-30 -35.5t-39.5 -21t-53.5 -7q-69 0 -108.5 33.5t-39.5 82.5q0 11 3 22.5t9.5 21t18 15.5t28.5 6q33 0 47.5 -17.5t14.5 -37.5q0 -25 -14.5 -38t-37.5 -17q9 -15 27.5 -25.5t59.5 -10.5
q27 0 52 20.5t43 66.5l25 64l-202 480q-15 35 -73 35v33h265v-33h-65q-30 0 -30 -18q0 -10 3 -17l152 -374l155 366q3 7 3 14q0 29 -47 29h-41v33h213v-33zM459 572l-101 58l-105 -58l-38 30l143 116l142 -117z" />
    <glyph glyph-name="Ydieresis" unicode="&#x178;" horiz-adv-x="821" 
d="M28 0zM789 707q-40 0 -60 -7.5t-28 -20.5l-246 -365v-233q0 -46 100 -46v-35h-303v35q100 0 100 46v233l-241 364q-12 17 -34 23.5t-49 6.5v35h330v-35h-99q-30 0 -30 -20q0 -6 4 -13l204 -305l198 300q4 7 4 14q0 11 -12.5 17.5t-33.5 6.5h-67v35h263v-36zM583 914
q0 -26 -18.5 -44.5t-44.5 -18.5t-44.5 18.5t-18.5 44.5t18.5 44.5t44.5 18.5t44.5 -18.5t18.5 -44.5zM363 914q0 -26 -18.5 -44.5t-44.5 -18.5t-44.5 18.5t-18.5 44.5t18.5 44.5t44.5 18.5t44.5 -18.5t18.5 -44.5z" />
    <glyph glyph-name="Zacute" unicode="&#x179;" horiz-adv-x="722" 
d="M28 0zM665 675l-527 -620h295q91 0 141 65.5t62 185.5l44 -7l-25 -299h-627v69l539 619h-310q-78 0 -114.5 -65.5t-49.5 -188.5l-40 3v306h612v-68zM262 835q27 15 51.5 35t48.5 38t47 31t46 13q28 0 36.5 -14t8.5 -28q0 -20 -26.5 -34.5t-62.5 -26t-72.5 -21.5
t-56.5 -22z" />
    <glyph glyph-name="zacute" unicode="&#x17a;" horiz-adv-x="574" 
d="M39 0zM534 463l-383 -423h193q43 0 71 8t45 27.5t26 52t14 82.5l37 -6v-204h-498v47l390 422h-188q-35 0 -60 -7t-42 -25t-28 -48.5t-19 -77.5l-35 7v191h477v-46zM188 601q27 15 51.5 35t48.5 38t47 31t46 13q28 0 36.5 -14t8.5 -28q0 -20 -26.5 -34.5t-62.5 -26
t-72.5 -21.5t-56.5 -22z" />
    <glyph glyph-name="Zdotaccent" unicode="&#x17b;" horiz-adv-x="722" 
d="M28 0zM665 675l-527 -620h295q91 0 141 65.5t62 185.5l44 -7l-25 -299h-627v69l539 619h-310q-78 0 -114.5 -65.5t-49.5 -188.5l-40 3v306h612v-68zM432 890q0 -26 -18.5 -44.5t-44.5 -18.5t-44.5 18.5t-18.5 44.5t18.5 44.5t44.5 18.5t44.5 -18.5t18.5 -44.5z" />
    <glyph glyph-name="zdotaccent" unicode="&#x17c;" horiz-adv-x="574" 
d="M39 0zM534 463l-383 -423h193q43 0 71 8t45 27.5t26 52t14 82.5l37 -6v-204h-498v47l390 422h-188q-35 0 -60 -7t-42 -25t-28 -48.5t-19 -77.5l-35 7v191h477v-46zM362 656q0 -26 -18.5 -44.5t-44.5 -18.5t-44.5 18.5t-18.5 44.5t18.5 44.5t44.5 18.5t44.5 -18.5
t18.5 -44.5z" />
    <glyph glyph-name="Zcaron" unicode="&#x17d;" horiz-adv-x="722" 
d="M28 0zM665 675l-527 -620h295q91 0 141 65.5t62 185.5l44 -7l-25 -299h-627v69l539 619h-310q-78 0 -114.5 -65.5t-49.5 -188.5l-40 3v306h612v-68zM359 830l-141 117l41 29l100 -59l105 59l39 -30z" />
    <glyph glyph-name="zcaron" unicode="&#x17e;" horiz-adv-x="574" 
d="M39 0zM534 463l-383 -423h193q43 0 71 8t45 27.5t26 52t14 82.5l37 -6v-204h-498v47l390 422h-188q-35 0 -60 -7t-42 -25t-28 -48.5t-19 -77.5l-35 7v191h477v-46zM277 572l-141 117l41 29l100 -59l105 59l39 -30z" />
    <glyph glyph-name="florin" unicode="&#x192;" horiz-adv-x="660" 
d="M502 359h-107l-74 -380q-12 -60 -57.5 -87.5t-106.5 -27.5q-34 0 -59.5 8.5t-43 22.5t-26.5 32.5t-9 38.5q0 30 17.5 50.5t53.5 20.5q29 0 42 -14.5t13 -35.5q0 -28 -19.5 -43t-45.5 -17q10 -14 27 -21t51 -7q29 0 46 17t22 43l77 400h-92l9 52h93l28 144
q11 60 55.5 87.5t108.5 27.5q69 0 104 -26.5t35 -71.5q0 -12 -3.5 -25.5t-11.5 -24.5t-22 -18t-36 -7q-29 0 -41.5 16t-12.5 34q0 29 18.5 43.5t46.5 16.5q-10 14 -27 21t-51 7q-32 0 -47.5 -17t-20.5 -43l-32 -164h107z" />
    <glyph glyph-name="Ohorn" unicode="&#x1a0;" horiz-adv-x="854" 
d="M423 759q64 0 120 -13t104 -42q56 6 92.5 19t58.5 31t30.5 39t8.5 44q0 48 -26 61q-1 -28 -15 -45.5t-41 -17.5q-22 0 -39 15.5t-17 41.5q0 32 19.5 48.5t50.5 16.5q28 0 48.5 -10t34 -26.5t19.5 -38t6 -43.5q0 -57 -47 -101.5t-147 -60.5q54 -45 83 -119t29 -186
q0 -87 -24 -158.5t-72.5 -122.5t-121 -79t-169.5 -28q-77 0 -145 19.5t-118 63.5t-79 115t-29 174q0 91 22.5 165.5t70 127t120 81.5t173.5 29zM428 700q-77 0 -130.5 -22.5t-87.5 -62.5t-49.5 -94.5t-15.5 -118.5q0 -105 17.5 -174t51.5 -109.5t83 -57t111 -16.5
q82 0 136 24.5t86 67t45.5 101t13.5 127.5q0 99 -18.5 163.5t-52.5 103t-82.5 53.5t-107.5 15z" />
    <glyph glyph-name="ohorn" unicode="&#x1a1;" horiz-adv-x="684" 
d="M315 529q48 0 89 -10.5t75 -33.5q55 6 91.5 19t58.5 31t30.5 39t8.5 44q0 48 -26 61q-1 -28 -15 -45.5t-41 -17.5q-22 0 -39 15.5t-17 41.5q0 32 19.5 48.5t50.5 16.5q28 0 48.5 -10t34 -26.5t19.5 -38t6 -43.5q0 -58 -48 -102.5t-150 -59.5q31 -32 49 -81.5t18 -119.5
q0 -62 -18 -112.5t-52.5 -86.5t-85.5 -55.5t-117 -19.5q-53 0 -100 13.5t-83 44.5t-57 81t-21 123q0 64 17 116.5t50.5 90t84.5 57.5t120 20zM316 487q-47 0 -81 -16t-56.5 -44t-33.5 -66.5t-11 -83.5q0 -74 12.5 -123t35 -77.5t53.5 -40t69 -11.5q50 0 84.5 17t56 47.5
t31 72t9.5 89.5q0 70 -13 115.5t-35.5 72.5t-53.5 37.5t-67 10.5z" />
    <glyph glyph-name="Uhorn" unicode="&#x1af;" horiz-adv-x="875" 
d="M896 839q0 -36 -18.5 -69.5t-56.5 -44.5q-45 -13 -68 -26.5t-23 -36.5v-359q0 -154 -72.5 -236.5t-228.5 -82.5q-158 0 -230.5 82.5t-72.5 236.5v359q0 46 -89 46v35h303v-35q-111 0 -111 -46v-359q0 -65 10.5 -113.5t36 -80.5t67.5 -48t106 -16t106.5 16t68 48
t36.5 80.5t11 113.5v359q0 46 -112 46v35h185q35 0 57 9.5t34 24t16.5 30.5t4.5 30q0 48 -26 61q-1 -28 -15 -45.5t-41 -17.5q-22 0 -39 15.5t-17 41.5q0 32 19.5 48.5t50.5 16.5q28 0 48.5 -10t34 -26.5t19.5 -38t6 -43.5z" />
    <glyph glyph-name="uhorn" unicode="&#x1b0;" horiz-adv-x="712" 
d="M566 509q39 0 65 10t41 25.5t21 35t6 38.5q0 48 -26 61q-1 -28 -15 -45.5t-41 -17.5q-22 0 -39 15.5t-17 41.5q0 32 19.5 48.5t50.5 16.5q28 0 48.5 -10t34 -26.5t19.5 -38t6 -43.5q0 -26 -9 -50.5t-28 -45t-49 -34.5t-72 -18v-393q0 -45 76 -45v-34h-168v102
q-13 -20 -32.5 -39.5t-45.5 -35.5t-58 -26t-71 -10q-79 0 -117 33.5t-38 115.5v290q0 46 -88 46v33h178v-364q0 -63 18.5 -87.5t63.5 -24.5q28 0 56 11t52.5 30.5t45.5 45t36 54.5v256q0 46 -99 46v33h176z" />
    <glyph glyph-name="AEacute" unicode="&#x1fc;" horiz-adv-x="1170" 
d="M22 0zM1100 517l-40 -3q-18 174 -145 174h-240v-273h132q74 0 83 129h38l-15 -312h-36q-10 133 -77 133h-125v-310h204q179 0 203 237l42 -7l-24 -285h-617v35q89 0 89 46v119h-319l-82 -121q-6 -9 -8 -14t-2 -9q0 -11 11 -16t28 -5h69v-35h-247v36q56 0 75 28l408 589
q11 17 11 28q0 14 -15 20.5t-35 6.5h-97v35h731v-226zM293 260h279v413zM527 835q27 15 51.5 35t48.5 38t47 31t46 13q28 0 36.5 -14t8.5 -28q0 -20 -26.5 -34.5t-62.5 -26t-72.5 -21.5t-56.5 -22z" />
    <glyph glyph-name="aeacute" unicode="&#x1fd;" horiz-adv-x="970" 
d="M39 0zM516 271q0 -115 42.5 -180.5t127.5 -65.5q65 0 115 30.5t70 105.5l40 -15q-10 -32 -27.5 -61.5t-44.5 -52t-64.5 -36t-88.5 -13.5q-34 0 -68 6t-64 21t-55 39.5t-41 61.5q-42 -60 -98 -94t-137 -34q-96 0 -140 38.5t-44 107.5q0 40 17.5 67.5t47.5 46t69 30t82 20
t87.5 15.5t85.5 17v31q0 57 -30 94t-94 37q-61 0 -101.5 -13t-60.5 -32q20 -2 35 -15.5t15 -34.5q0 -25 -16 -41.5t-45 -16.5t-44.5 17t-15.5 45q0 22 15 46t44.5 43t72 31.5t98.5 12.5q67 0 116 -19t72 -69q33 42 83 65t119 23q118 0 179 -67.5t61 -190.5h-415zM429 289
q-79 -16 -136 -30.5t-94 -31.5t-54.5 -39.5t-17.5 -54.5q0 -46 32.5 -68.5t93.5 -22.5q31 0 58.5 7.5t50.5 19.5t40 27.5t27 30.5v162zM837 309q0 81 -40 129.5t-110 48.5q-32 0 -61 -10t-52 -31t-38 -55t-19 -82h320zM407 601q27 15 51.5 35t48.5 38t47 31t46 13
q28 0 36.5 -14t8.5 -28q0 -20 -26.5 -34.5t-62.5 -26t-72.5 -21.5t-56.5 -22z" />
    <glyph glyph-name="Oslashacute" unicode="&#x1fe;" horiz-adv-x="832" 
d="M37 0zM635 711q75 -40 117.5 -122t42.5 -217q0 -87 -24 -158.5t-72.5 -122.5t-121 -79t-169.5 -28q-90 0 -162 25l-38 -69l-45 24l36 65q-74 40 -118 119t-44 208q0 91 22.5 165.5t70 127t120 81.5t173.5 29q45 0 87 -6.5t79 -20.5l34 61l44 -24zM558 675
q-28 14 -60.5 19.5t-69.5 5.5q-77 0 -130.5 -22.5t-87.5 -62.5t-49.5 -94.5t-15.5 -118.5q0 -122 23 -195t68 -111zM279 68q27 -13 59 -18t70 -5q82 0 136 24.5t86 67t45.5 101t13.5 127.5q0 111 -23.5 179t-65.5 104zM327 835q27 15 51.5 35t48.5 38t47 31t46 13
q28 0 36.5 -14t8.5 -28q0 -20 -26.5 -34.5t-62.5 -26t-72.5 -21.5t-56.5 -22z" />
    <glyph glyph-name="oslashacute" unicode="&#x1ff;" horiz-adv-x="612" 
d="M43 0zM479 485q45 -31 71.5 -85.5t26.5 -142.5q0 -62 -18 -112.5t-52.5 -86.5t-85.5 -55.5t-117 -19.5q-25 0 -49.5 3t-46.5 10l-33 -59l-47 25l29 54q-51 29 -82.5 83.5t-31.5 145.5q0 64 17 116.5t50.5 90t84.5 57.5t120 20q32 0 61.5 -4.5t55.5 -15.5l32 58l46 -25z
M406 464q-19 13 -41.5 18t-48.5 5q-47 0 -81 -16t-56.5 -44t-33.5 -66.5t-11 -83.5q0 -81 13.5 -130.5t39.5 -77.5zM231 38q17 -8 35 -10.5t38 -2.5q50 0 84.5 17t56 47.5t31 72t9.5 89.5q0 63 -10.5 105.5t-28.5 69.5zM217 601q27 15 51.5 35t48.5 38t47 31t46 13
q28 0 36.5 -14t8.5 -28q0 -20 -26.5 -34.5t-62.5 -26t-72.5 -21.5t-56.5 -22z" />
    <glyph glyph-name="Scommaaccent" unicode="&#x218;" horiz-adv-x="684" 
d="M37 0zM615 473l-43 -9q-5 59 -27 103.5t-57 74t-80 44t-95 14.5q-53 0 -90 -9.5t-59.5 -26.5t-32.5 -41t-10 -53q0 -39 22.5 -62t59.5 -37t84.5 -22t96.5 -17t96.5 -22t84.5 -37t59.5 -62.5t22.5 -97.5q0 -60 -20 -103.5t-57.5 -71.5t-91.5 -41t-121 -13
q-60 0 -108.5 15.5t-93.5 47.5q-17 11 -28 11q-13 0 -21 -8t-14 -22l-12 -28h-43v285l43 6q5 -52 27 -97t58.5 -78t86.5 -52t112 -19q206 0 206 148q0 41 -22.5 64.5t-59.5 37t-84 21t-96.5 16t-96.5 21t-84 37.5t-59.5 65.5t-22.5 103.5q0 36 12 72t42 64.5t80 46t127 17.5
q61 0 106 -13t87 -37q19 -12 37 -12q20 0 32 19l17 27h30v-270zM299 -209q23 10 32 21.5t9 25.5q0 13 -11 13q-50 0 -50 50q0 26 16.5 40t42.5 14q31 0 48.5 -18t17.5 -51q0 -45 -22 -73.5t-67 -48.5z" />
    <glyph glyph-name="scommaaccent" unicode="&#x219;" horiz-adv-x="518" 
d="M39 0zM458 318l-37 -7q-9 81 -58.5 123.5t-134.5 42.5q-45 0 -77.5 -18t-32.5 -58q0 -37 26.5 -55.5t67 -29.5t87 -19t87 -24.5t67 -46.5t26.5 -84q0 -72 -48.5 -110t-142.5 -38q-48 0 -88.5 10.5t-70.5 35.5q-7 5 -15.5 10.5t-15.5 5.5q-8 0 -11 -4.5t-5 -15.5l-7 -36
h-36v204l36 6q5 -40 23.5 -72.5t46.5 -56t64 -36t76 -12.5q63 0 90.5 23.5t27.5 60.5q0 28 -15.5 45t-41 27.5t-58 17t-66.5 14t-66.5 17.5t-58 27.5t-41 44.5t-15.5 69q0 66 47 103t138 37q37 0 77.5 -12t65.5 -31q8 -7 16.5 -12t16.5 -5q10 0 14 15l5 35h37v-191z
M216 -209q23 10 32 21.5t9 25.5q0 13 -11 13q-50 0 -50 50q0 26 16.5 40t42.5 14q31 0 48.5 -18t17.5 -51q0 -45 -22 -73.5t-67 -48.5z" />
    <glyph glyph-name="uni021A" unicode="&#x21a;" horiz-adv-x="809" 
d="M37 0zM773 437l-40 -3q-5 78 -16.5 127.5t-31.5 77.5t-48.5 38.5t-67.5 10.5h-112v-607q0 -46 90 -46v-35h-282v35q89 0 89 46v607h-113q-39 0 -67.5 -10.5t-48 -38.5t-31 -77.5t-17.5 -127.5l-40 3v306h736v-306zM361 -209q23 10 32 21.5t9 25.5q0 13 -11 13
q-50 0 -50 50q0 26 16.5 40t42.5 14q31 0 48.5 -18t17.5 -51q0 -45 -22 -73.5t-67 -48.5z" />
    <glyph glyph-name="uni021B" unicode="&#x21b;" horiz-adv-x="390" 
d="M39 0zM218 509h136l-5 -58q-29 6 -61 8.5t-70 2.5v-379q0 -45 50 -45q24 0 34 13.5t10 31.5v68h38v-58q0 -22 -3.5 -40t-14.5 -31.5t-31 -21t-53 -7.5q-61 0 -90.5 31.5t-29.5 88.5v349h-89v34q28 2 51.5 8t39.5 21.5t25 42t9 69.5v22l54 7v-157zM187 -209q23 10 32 21.5
t9 25.5q0 13 -11 13q-50 0 -50 50q0 26 16.5 40t42.5 14q31 0 48.5 -18t17.5 -51q0 -45 -22 -73.5t-67 -48.5z" />
    <glyph glyph-name="dotlessj" unicode="&#x237;" horiz-adv-x="366" 
d="M276 -121q0 -60 -39.5 -87.5t-102.5 -27.5q-76 0 -117 29.5t-41 78.5q0 11 2.5 22.5t9.5 21t18.5 15.5t28.5 6q33 0 48 -18t15 -38q0 -24 -15 -37t-38 -17q12 -14 30.5 -21t52.5 -7q29 0 43 17t14 43v571q0 46 -100 46v33h190z" />
    <glyph glyph-name="u0250" unicode="&#x250;" horiz-adv-x="644" 
d="M124 429q0 45 -30 45q-14 0 -21.5 -14t-7.5 -31v-68h-36v58q0 51 17.5 75.5t65.5 24.5q23 0 39 -9t25.5 -23.5t14.5 -32.5t7 -36q12 22 34 42t51.5 35.5t64.5 24.5t73 9q97 0 140.5 -38.5t43.5 -107.5q0 -40 -17.5 -67.5t-47.5 -46t-69 -30t-82 -20t-88 -15.5t-85 -17
v-31q0 -57 30 -94t94 -37q61 0 101.5 13t60.5 32q-20 2 -35 15.5t-15 34.5q0 25 16 41.5t45 16.5t44.5 -17t15.5 -45q0 -23 -15 -46.5t-44.5 -42.5t-72.5 -31.5t-98 -12.5q-46 0 -86 8.5t-69.5 29t-46.5 56t-17 89.5v263zM215 223q79 16 136 30.5t94 31.5t54.5 39.5
t17.5 54.5q0 46 -32.5 68.5t-93.5 22.5q-31 0 -58.5 -7.5t-50.5 -19.5t-40 -27.5t-27 -30.5v-162z" />
    <glyph glyph-name="u0251" unicode="&#x251;" horiz-adv-x="680" 
d="M553 78q0 -45 89 -45v-33h-148l-8 93q-26 -53 -78 -81.5t-115 -28.5q-50 0 -95 12t-79.5 42.5t-55 82t-20.5 130.5q0 83 20.5 137t56 85.5t83 44t100.5 12.5q36 0 67 -9t55 -23.5t40.5 -32.5t23.5 -36l31 81h33v-431zM299 487q-48 0 -80 -19t-52 -50.5t-28.5 -73.5
t-8.5 -88t8.5 -88t28.5 -73.5t52 -50.5t80 -19q44 0 76.5 19t53.5 51.5t31.5 76t10.5 93.5q0 43 -9 83t-29 71t-53 49.5t-81 18.5z" />
    <glyph glyph-name="u0252" unicode="&#x252;" horiz-adv-x="669" 
d="M124 431q0 45 -89 45v33h148l8 -93q26 53 78 81.5t115 28.5q49 0 94.5 -12t80 -42.5t55 -82t20.5 -130.5q0 -83 -20.5 -137t-56 -85.5t-83 -44t-100.5 -12.5q-36 0 -67 9t-55 23.5t-40.5 32.5t-23.5 36l-31 -81h-33v431zM378 22q48 0 80 19t52 50.5t28.5 73.5t8.5 88
t-8.5 88t-28.5 73.5t-52 50.5t-80 19q-44 0 -76.5 -19t-53.5 -51.5t-31.5 -76.5t-10.5 -93q0 -43 9 -83t29 -71t53 -49.5t81 -18.5z" />
    <glyph glyph-name="u0253" unicode="&#x253;" horiz-adv-x="638" 
d="M172 451q20 35 64 56.5t104 21.5q50 0 96 -12t81.5 -42.5t56.5 -82t21 -130.5q0 -83 -21.5 -137t-57.5 -85.5t-84 -44t-102 -12.5q-42 0 -75 12t-56 29.5t-36.5 36.5t-16.5 33l-32 -94h-34v660q0 29 11.5 51.5t32.5 38t49.5 23.5t62.5 8q37 0 64 -9t45 -24t27 -34.5
t9 -40.5q0 -11 -3 -22.5t-9.5 -21t-18 -15.5t-28.5 -6q-33 0 -48 18t-15 38q0 24 15 37t38 17q-24 28 -70 28q-30 0 -50 -17.5t-20 -46.5v-231zM333 487q-48 0 -80.5 -19t-53 -50.5t-29 -73.5t-8.5 -88t8.5 -88t29 -73.5t53 -50.5t80.5 -19t81 19t53.5 50.5t30 73.5t9.5 88
t-9.5 88t-30 73.5t-53.5 50.5t-81 19z" />
    <glyph glyph-name="u0254" unicode="&#x254;" horiz-adv-x="556" 
d="M35 338q6 36 21 70.5t42 61t66.5 43t93.5 16.5q55 0 102 -16.5t81 -49.5t53 -82.5t19 -116.5q0 -71 -20 -123.5t-56 -87.5t-84.5 -52.5t-105.5 -17.5q-45 0 -82.5 12t-65 31.5t-42.5 43t-15 46.5q0 28 15.5 45t44.5 17t45 -16.5t16 -41.5q0 -21 -15.5 -34.5t-35.5 -15.5
q20 -19 48.5 -32t81.5 -13q180 0 180 226q0 64 -14.5 108.5t-39 73t-56 41.5t-65.5 13q-30 0 -58 -8.5t-50.5 -27t-39 -48.5t-23.5 -72z" />
    <glyph glyph-name="u0255" unicode="&#x255;" horiz-adv-x="549" 
d="M337 -17q-30 0 -42 0.5t-20 1.5q-11 -20 -21.5 -43.5t-18.5 -46.5l-38 17q8 21 17 41t20 40q-39 10 -74 31.5t-61 53.5t-41 74.5t-15 95.5q0 70 20 123t56 88t84.5 52.5t105.5 17.5q45 0 82.5 -12t65 -31.5t42.5 -43t15 -46.5q0 -28 -15.5 -45t-44.5 -17t-45 16.5
t-16 41.5q0 21 15.5 34.5t35.5 15.5q-20 19 -48.5 32t-81.5 13q-180 0 -180 -226q0 -50 10 -87.5t26.5 -64.5t38.5 -45t46 -27q13 23 29.5 44t37 36.5t44.5 25t51 9.5q95 0 95 -64q0 -23 -14.5 -42.5t-39 -33.5t-56 -21.5t-65.5 -7.5zM437 81q0 16 -12 23.5t-26 7.5
q-23 0 -51 -21t-52 -63q4 -1 10.5 -1.5t11.5 -0.5q64 0 91.5 15t27.5 40z" />
    <glyph glyph-name="u0256" unicode="&#x256;" horiz-adv-x="712" 
d="M294 -17q-48 0 -93 15.5t-80 48.5t-56.5 84.5t-21.5 123.5q0 75 24 127.5t63 85t87.5 47t97.5 14.5q52 0 94 -14t65 -38v215q0 45 -88 45v33h179v-914q0 -57 55 -57q20 0 31.5 8t16.5 20q-53 5 -53 51q0 23 15 41t48 18q17 0 28.5 -6t18 -15.5t9.5 -21t3 -22.5
q0 -49 -34.5 -78.5t-87.5 -29.5q-66 0 -103.5 27.5t-37.5 87.5v168q-26 -29 -72.5 -46.5t-107.5 -17.5zM312 487q-48 0 -82 -19t-55 -50.5t-31 -73.5t-10 -88t10 -88t31 -73.5t55 -50.5t82 -19t80.5 19t53 50.5t29 73.5t8.5 88t-8.5 88t-29 73.5t-53 50.5t-80.5 19z" />
    <glyph glyph-name="u0257" unicode="&#x257;" horiz-adv-x="708" 
d="M561 79q0 -45 89 -45v-34h-143l-8 83q-49 -100 -203 -100q-50 0 -96.5 15.5t-82 48.5t-57 84.5t-21.5 123.5q0 75 24 127.5t63 85t87.5 47t97.5 14.5q52 0 94 -14t65 -38v180q0 59 36.5 86t95.5 27q60 0 95.5 -29.5t35.5 -78.5q0 -11 -3 -22.5t-9.5 -21t-18 -15.5
t-28.5 -6q-33 0 -48 18t-15 41q0 46 53 51q-5 12 -16.5 20t-31.5 8q-55 0 -55 -55v-601zM308 487q-48 0 -82 -19t-55 -50.5t-31 -73.5t-10 -88t10 -88t31 -73.5t55 -50.5t82 -19t80.5 19t53 50.5t29 73.5t8.5 88t-8.5 88t-29 73.5t-53 50.5t-80.5 19z" />
    <glyph glyph-name="u0258" unicode="&#x258;" horiz-adv-x="584" 
d="M35 271q0 57 15.5 104.5t47 81.5t78 53t108.5 19q121 0 189 -69t68 -197q0 -78 -24.5 -131.5t-62 -86.5t-82.5 -47.5t-86 -14.5q-53 0 -93 13.5t-69 36t-47.5 52t-28.5 61.5l40 15q24 -72 72 -104t121 -32q84 0 127 66t43 180h-416zM450 309q-4 48 -18.5 82t-36 55
t-50 31t-60.5 10q-75 0 -115.5 -48.5t-40.5 -129.5h321z" />
    <glyph glyph-name="u0259" unicode="&#x259;" horiz-adv-x="584" 
d="M451 241q0 53 -11.5 98t-35 78t-58.5 51.5t-82 18.5q-72 0 -121 -33.5t-68 -102.5l-40 15q10 32 29 61.5t48 52t70 36t95 13.5q48 0 95 -13t84.5 -45t61 -86t23.5 -135q0 -58 -18 -107t-52 -84.5t-83.5 -55.5t-112.5 -20q-118 0 -179 67t-61 191h416zM129 203
q0 -81 39.5 -129.5t111.5 -48.5q32 0 61 10t52 31t38 55t19 82h-321z" />
    <glyph glyph-name="u025A" unicode="&#x25a;" horiz-adv-x="761" 
d="M687 334q-15 -10 -23.5 -24t-8.5 -37q0 -22 13.5 -37.5t37.5 -15.5q16 0 31.5 9.5t27.5 29.5l21 -16q-8 -22 -31 -42.5t-61 -20.5q-40 0 -64.5 23.5t-24.5 58.5q0 15 3.5 28.5t10.5 20.5l-72 -25q1 -8 1.5 -17.5t0.5 -18.5q0 -58 -18 -107t-52 -84.5t-83.5 -55.5
t-112.5 -20q-59 0 -101.5 17t-70.5 44.5t-43 61.5t-20 68l407 124q-3 34 -15 68t-34 61t-55.5 43.5t-78.5 16.5q-72 0 -121 -33.5t-68 -102.5l-40 15q10 32 29 61.5t48 52t70 36t95 13.5q42 0 83 -10t76 -33t61 -62t37 -97l133 44zM141 156q3 -25 14 -48.5t29.5 -42
t44.5 -29.5t59 -11q43 0 75 15.5t53.5 44t32 68t10.5 87.5v16z" />
    <glyph glyph-name="u025B" unicode="&#x25b;" horiz-adv-x="512" 
d="M477 140q-26 -82 -84 -119.5t-143 -37.5q-53 0 -91.5 12.5t-64.5 31.5t-38.5 41.5t-12.5 43.5q0 61 45.5 95t133.5 52v5q-32 1 -63 7.5t-55.5 20t-40 35.5t-15.5 55q0 34 17 61t46.5 46t68 29.5t81.5 10.5q45 0 82.5 -10.5t65 -28t42.5 -39.5t15 -45q0 -28 -15.5 -45
t-44.5 -17t-45 16t-16 38q0 24 15.5 37.5t35.5 15.5q-20 19 -55 27.5t-75 8.5q-27 0 -50.5 -7.5t-41 -20.5t-27 -30.5t-9.5 -38.5q0 -51 31 -79t94 -28h71v-45h-70q-58 0 -93.5 -27.5t-35.5 -81.5q0 -21 10.5 -40t29 -33.5t44 -22.5t54.5 -8q23 0 48.5 7t48.5 22.5
t41.5 39.5t27.5 58z" />
    <glyph glyph-name="u025C" unicode="&#x25c;" horiz-adv-x="522" 
d="M81 144q10 -34 28.5 -57t42 -36.5t49.5 -19.5t51 -6q60 0 96.5 28t36.5 82q0 53 -33 78t-96 25h-70v45h71q63 0 94 28t31 79q0 49 -36 74t-93 25q-40 0 -74.5 -9.5t-54.5 -28.5q20 -2 35.5 -15.5t15.5 -37.5q0 -22 -16 -38t-45 -16t-44.5 17t-15.5 45q0 23 15 45
t42.5 39.5t65 28t82.5 10.5q43 0 81.5 -9t68 -26t46.5 -42.5t17 -59.5q0 -33 -15.5 -56.5t-40 -39t-56 -23.5t-62.5 -9v-5q38 -3 70.5 -12t56.5 -24.5t38 -38.5t14 -54q0 -27 -13 -53.5t-39 -47.5t-67 -33.5t-96 -12.5q-38 0 -71.5 8t-62 25.5t-50.5 46t-35 69.5z" />
    <glyph glyph-name="u025D" unicode="&#x25d;" horiz-adv-x="708" 
d="M634 364q-15 -10 -23.5 -24t-8.5 -37q0 -22 13.5 -37.5t37.5 -15.5q16 0 31.5 9.5t27.5 29.5l21 -16q-8 -22 -31 -42.5t-61 -20.5q-40 0 -64.5 23.5t-24.5 58.5q0 15 3.5 28.5t10.5 20.5l-179 -61q-17 -6 -34.5 -10.5t-34.5 -5.5v-5q34 -3 63.5 -12t50.5 -24.5t33 -38.5
t12 -54q0 -27 -13 -53.5t-39 -47.5t-67 -33.5t-96 -12.5q-38 0 -71.5 8t-62 25.5t-50.5 46t-35 69.5l38 12q10 -34 28.5 -57t42 -36.5t49.5 -19.5t51 -6q60 0 96.5 28t36.5 82q0 53 -33 78t-96 25h-70v45h64q68 0 100 28t32 79q0 49 -36 74t-93 25q-40 0 -74.5 -9.5
t-54.5 -28.5q20 -2 35.5 -15.5t15.5 -37.5q0 -22 -16 -38t-45 -16t-44.5 17t-15.5 45q0 23 15 45t42.5 39.5t65 28t82.5 10.5q43 0 81.5 -9t68 -26t46.5 -42.5t17 -59.5q0 -25 -9 -46l159 55z" />
    <glyph glyph-name="u025E" unicode="&#x25e;" horiz-adv-x="539" 
d="M35 253q0 54 14.5 104t44.5 88t75.5 61t106.5 23q40 0 75.5 -8.5t62 -24.5t42 -40t15.5 -54q0 -28 -9.5 -49t-26 -36.5t-39.5 -25.5t-49 -16q65 -5 107 -38t42 -88q0 -36 -16.5 -66t-45 -52t-66.5 -34.5t-82 -12.5q-116 0 -183.5 66t-67.5 203zM287 25q52 0 85.5 31
t33.5 88q0 28 -12 48t-33 32.5t-49.5 18t-61.5 5.5v34q70 4 105 34t35 81q0 45 -31 70.5t-85 25.5q-36 0 -64 -16.5t-46.5 -46.5t-28 -72.5t-9.5 -94.5q0 -65 12 -110t33.5 -73.5t51 -41.5t64.5 -13z" />
    <glyph glyph-name="u025F" unicode="&#x25f;" horiz-adv-x="415" 
d="M85 40h100v390q0 46 -100 46v33h191v-469h100v-40h-100v-121q0 -60 -39.5 -87.5t-102.5 -27.5q-76 0 -117 29.5t-41 78.5q0 11 2.5 22.5t9.5 21t18.5 15.5t28.5 6q33 0 48 -18t15 -38q0 -24 -15 -37t-38 -17q12 -14 30.5 -21t52.5 -7q29 0 43 17t14 43v141h-100v40z" />
    <glyph glyph-name="u0260" unicode="&#x260;" horiz-adv-x="729" 
d="M454 61q-20 -34 -64 -56t-104 -22q-50 0 -95.5 12t-80 42.5t-55 82t-20.5 130.5q0 83 20.5 137t56 85.5t83 44t100.5 12.5q57 0 97 -21t63 -47v198q0 59 42.5 90.5t111.5 31.5q37 0 64 -9t45 -24t27 -34.5t9 -40.5q0 -11 -3 -22.5t-9.5 -21t-18 -15.5t-28.5 -6
q-33 0 -48 18t-15 38q0 24 15 37t38 17q-24 28 -70 28q-32 0 -51 -19t-19 -51v-681q0 -109 -70.5 -170t-201.5 -61q-48 0 -86.5 10t-66 27t-42 40.5t-14.5 49.5q0 24 14 44t49 20q33 0 48 -18t15 -38q0 -24 -15 -37t-38 -17q13 -17 49 -29.5t90 -12.5q35 0 67 9.5t57 32
t39.5 58t14.5 88.5v70zM291 487q-48 0 -80 -19t-52 -50.5t-28.5 -73.5t-8.5 -88t8.5 -88t28.5 -73.5t52 -50.5t80 -19t81 19t53 50.5t29 73.5t9 88t-9 88t-29 73.5t-53 50.5t-81 19z" />
    <glyph glyph-name="u0261" unicode="&#x261;" horiz-adv-x="625" 
d="M454 61q-20 -34 -64 -56t-104 -22q-50 0 -95.5 12t-80 42.5t-55 82t-20.5 130.5q0 83 20.5 137t56 85.5t83 44t100.5 12.5q42 0 75 -12t56.5 -29.5t36.5 -36.5t16 -33l33 91h33v-514q0 -109 -70.5 -170t-201.5 -61q-48 0 -86.5 10t-66 27t-42 40.5t-14.5 49.5q0 24 14 44
t49 20q33 0 48 -18t15 -38q0 -24 -15 -37t-38 -17q13 -17 49 -29.5t90 -12.5q35 0 67 9.5t57 32t39.5 58t14.5 88.5v70zM291 487q-48 0 -80 -19t-52 -50.5t-28.5 -73.5t-8.5 -88t8.5 -88t28.5 -73.5t52 -50.5t80 -19t81 19t53 50.5t29 73.5t9 88t-9 88t-29 73.5t-53 50.5
t-81 19z" />
    <glyph glyph-name="u0262" unicode="&#x262;" horiz-adv-x="621" 
d="M513 0h-57l-19 47q-23 -29 -60 -46.5t-87 -17.5q-52 0 -98 15t-81 47t-55.5 82t-20.5 121q0 67 19 119t53.5 88t81 55t102.5 19q54 0 87 -14.5t62 -37.5q5 -5 7.5 -6.5t7.5 -1.5q12 0 14 15l5 35h37v-191l-37 -7l-2 15q-2 16 -6 29q-15 58 -59 90t-114 32
q-32 0 -61.5 -12t-52.5 -41t-37 -77t-14 -120q0 -51 13.5 -90.5t37.5 -66.5t57 -41t72 -14q27 0 48.5 8t36.5 20.5t22.5 27t7.5 26.5v54q0 45 -89 45v34h257v-34q-78 0 -78 -45v-161z" />
    <glyph glyph-name="u0263" unicode="&#x263;" horiz-adv-x="675" 
d="M399 45q16 -32 26 -54.5t15.5 -40t7.5 -31t2 -25.5q0 -22 -6 -45t-21.5 -42t-41 -31t-64.5 -12q-50 0 -82 27t-32 81q0 42 21 90.5t67 119.5l-180 359q-15 35 -72 35v33h263v-33h-64q-30 0 -30 -18q0 -10 3 -17l134 -294l163 286q4 7 4 14q0 29 -48 29h-41v33h213v-33
q-63 0 -78 -34l-189 -337zM312 36q-15 -27 -26 -48t-18.5 -40.5t-11 -38t-3.5 -39.5q0 -33 15.5 -49t41.5 -16q29 0 42 21.5t13 50.5q0 21 -5.5 44t-14.5 43z" />
    <glyph glyph-name="u0264" unicode="&#x264;" horiz-adv-x="647" 
d="M446 97q0 -49 -33 -82t-93 -33q-55 0 -88 26t-33 76q0 18 4.5 34.5t15 35.5t26 42.5t38.5 54.5l-100 156q-7 11 -15 24.5t-16.5 25t-18 19.5t-20.5 8q-22 0 -33.5 -12.5t-11.5 -32.5v-68h-38v71q0 42 25.5 64.5t77.5 22.5q49 0 77 -18t54 -61l80 -129l53 77
q19 27 34.5 51t31.5 41.5t34 27.5t42 10q29 0 44.5 -7.5t23 -21t9 -31.5t1.5 -40v-58h-45v73q0 18 -6 31.5t-32 13.5q-20 0 -42 -26t-56 -76l-70 -103l39 -65q20 -34 30.5 -62t10.5 -59zM303 216q-22 -31 -41.5 -66.5t-19.5 -65.5q0 -27 16 -44t45 -17q15 0 26 5.5t18 14.5
t10.5 20t3.5 21q0 22 -8 42.5t-21 41.5z" />
    <glyph glyph-name="u0265" unicode="&#x265;" horiz-adv-x="717" 
d="M501 101q-20 -23 -44 -43t-52 -35.5t-60 -24.5t-69 -9q-72 0 -110 34t-38 115v291q0 45 -89 45v34h257v-34q-78 0 -78 -45v-285q0 -63 18.5 -88t56.5 -25q29 0 59.5 12t58.5 31.5t51.5 45t38.5 53.5v256q0 45 -78 45v34h256v-34q-88 0 -88 -45v-586q0 -45 87 -45v-33
h-177v336z" />
    <glyph glyph-name="u0266" unicode="&#x266;" horiz-adv-x="717" 
d="M217 407q20 22 44 42.5t52 36t60 24.5t69 9q72 0 110 -34t38 -115v-291q0 -45 89 -45v-34h-257v34q78 0 78 45v285q0 63 -18.5 88t-56.5 25q-29 0 -59.5 -12t-58.5 -31.5t-51.5 -45t-38.5 -53.5v-256q0 -45 78 -45v-34h-256v34q88 0 88 45v580q0 59 42.5 90.5t111.5 31.5
q37 0 64 -9t45 -24t27 -34.5t9 -40.5q0 -11 -3 -22.5t-9.5 -21t-18 -15.5t-28.5 -6q-33 0 -48 18t-15 38q0 24 15 37t38 17q-24 28 -70 28q-31 0 -50.5 -18.5t-19.5 -48.5v-272z" />
    <glyph glyph-name="u0267" unicode="&#x267;" horiz-adv-x="670" 
d="M590 -114q0 -33 -12 -56t-32.5 -37.5t-48 -21.5t-57.5 -7q-66 0 -104 29.5t-38 78.5q0 11 3.5 22.5t11 21t19.5 15.5t29 6q30 0 44.5 -18t14.5 -38q0 -24 -15 -37t-38 -17q24 -28 72 -28q29 0 45 15.5t16 44.5v505q0 63 -18.5 88t-56.5 25q-29 0 -59.5 -12t-58.5 -31.5
t-51.5 -45t-38.5 -53.5v-256q0 -45 78 -45v-34h-256v34q88 0 88 45v580q0 59 42.5 90.5t111.5 31.5q37 0 64 -9t45 -24t27 -34.5t9 -40.5q0 -11 -3 -22.5t-9.5 -21t-18 -15.5t-28.5 -6q-33 0 -48 18t-15 38q0 24 15 37t38 17q-24 28 -70 28q-31 0 -50.5 -18.5t-19.5 -48.5
v-272q20 22 44 42.5t52 36t60 24.5t69 9q72 0 110 -34t38 -115v-484z" />
    <glyph glyph-name="u0268" unicode="&#x268;" horiz-adv-x="344" 
d="M39 264h88v166q0 46 -88 46v33h178v-245h89v-40h-89v-145q0 -45 89 -45v-34h-267v34q88 0 88 45v145h-88v40zM233 684q0 -29 -20.5 -50t-49.5 -21t-50 21t-21 50t21 49.5t50 20.5t49.5 -20.5t20.5 -49.5z" />
    <glyph glyph-name="u0269" unicode="&#x269;" horiz-adv-x="355" 
d="M193 83q0 -45 50 -45q24 0 34 13.5t10 31.5v68h38v-58q0 -22 -3.5 -40t-14.5 -31.5t-31 -21t-53 -7.5q-61 0 -90.5 31.5t-29.5 88.5v317q0 46 -88 46v33h178v-426z" />
    <glyph glyph-name="u026A" unicode="&#x26a;" horiz-adv-x="347" 
d="M308 473q-89 0 -89 -46v-346q0 -46 89 -46v-35h-269v35q90 0 90 46v346q0 46 -90 46v35h269v-35z" />
    <glyph glyph-name="u026B" unicode="&#x26b;" horiz-adv-x="398" 
d="M383 392q-11 -45 -43 -70t-74 -25h-11.5t-10.5 2v-220q0 -45 89 -45v-34h-267v34q88 0 88 45v263q-8 3 -15 5t-15 2q-39 0 -68 -50l-41 22q6 21 19 38.5t29.5 30t34.5 19t35 6.5q5 0 10.5 -0.5t10.5 -1.5v279q0 45 -88 45v33h178v-400q13 -7 32 -7t32.5 7.5t30.5 40.5z
" />
    <glyph glyph-name="u026C" unicode="&#x26c;" horiz-adv-x="368" 
d="M230 79q0 -45 89 -45v-34h-267v34q88 0 88 45v242q-77 11 -121 43t-44 85q0 44 26.5 62t61.5 18q46 0 77 -31v194q0 45 -88 45v33h178v-413q26 2 62 10t65 23l16 -34q-11 -8 -29.5 -14.5t-39 -11.5t-40.5 -8.5t-34 -4.5v-238zM39 447q0 -19 9 -33.5t23.5 -25t32.5 -17
t36 -8.5v75q-9 25 -26 38t-34 13q-20 0 -30.5 -11.5t-10.5 -30.5z" />
    <glyph glyph-name="u026D" unicode="&#x26d;" horiz-adv-x="378" 
d="M127 692q0 45 -88 45v33h178v-911q0 -29 16 -44.5t45 -15.5q14 0 29 4.5t27 18.5q-23 4 -38 17.5t-15 37.5q0 20 14.5 38t44.5 18q17 0 29 -6t19.5 -15.5t11 -21t3.5 -22.5q0 -49 -36 -76.5t-91 -27.5q-66 0 -107.5 28.5t-41.5 93.5v806z" />
    <glyph glyph-name="u026E" unicode="&#x26e;" horiz-adv-x="666" 
d="M217 79q0 -45 89 -45v-34h-267v34q88 0 88 45v613q0 45 -88 45v33h178v-261h392v-46l-254 -251q27 7 65 7q34 0 70.5 -8.5t66.5 -31.5t49.5 -63t19.5 -103q0 -49 -17.5 -94t-51.5 -79.5t-83 -55t-112 -20.5q-44 0 -79 10t-60 26.5t-38.5 39t-13.5 46.5q0 11 2.5 23
t9.5 22.5t18.5 17t28.5 6.5q33 0 48 -18t15 -38q0 -24 -15 -37t-38 -17q13 -17 40.5 -29.5t70.5 -12.5q33 0 66 11.5t58.5 37t41.5 66t16 98.5q0 85 -37 124.5t-103 39.5q-39 0 -66 -11t-51 -34l-24 31l302 303h-198q-29 0 -54 -5.5t-44 -22t-30 -48t-11 -82.5v-232z" />
    <glyph glyph-name="u026F" unicode="&#x26f;" horiz-adv-x="1036" 
d="M127 430q0 45 -88 45v34h256v-34q-77 0 -77 -45v-285q0 -63 15.5 -88t47.5 -25q51 0 102.5 38t88.5 104v256q0 45 -76 45v34h244v-34q-78 0 -78 -45v-285q0 -63 16 -88t49 -25q26 0 53 10t52.5 28.5t47.5 45t38 58.5v256q0 45 -78 45v34h256v-34q-88 0 -88 -45v-351
q0 -46 89 -46v-33h-179v106q-16 -20 -37 -40.5t-47.5 -37.5t-59 -27.5t-71.5 -10.5q-54 0 -87 28.5t-42 89.5q-16 -21 -38.5 -42t-50 -38t-59.5 -27.5t-67 -10.5q-63 0 -97.5 34t-34.5 115v291z" />
    <glyph glyph-name="u0270" unicode="&#x270;" horiz-adv-x="1036" 
d="M127 430q0 45 -88 45v34h256v-34q-77 0 -77 -45v-285q0 -63 15.5 -88t47.5 -25q51 0 102.5 38t88.5 104v256q0 45 -76 45v34h244v-34q-78 0 -78 -45v-285q0 -63 16 -88t49 -25q26 0 53 10t52.5 28.5t47.5 45t38 58.5v256q0 45 -78 45v34h256v-34q-88 0 -88 -45v-586
q0 -46 89 -46v-33h-179v341q-16 -20 -37 -40.5t-47.5 -37.5t-59 -27.5t-71.5 -10.5q-54 0 -87 28.5t-42 89.5q-16 -21 -38.5 -42t-50 -38t-59.5 -27.5t-67 -10.5q-63 0 -97.5 34t-34.5 115v291z" />
    <glyph glyph-name="u0271" unicode="&#x271;" horiz-adv-x="989" 
d="M909 -114q0 -33 -12 -56t-33 -37.5t-48.5 -21.5t-57.5 -7q-66 0 -104 29.5t-38 78.5q0 11 3.5 22.5t11 21t19.5 15.5t29 6q30 0 44.5 -18t14.5 -38q0 -24 -15 -37t-38 -17q24 -28 72 -28q29 0 45 15.5t16 44.5v505q0 63 -15.5 88t-47.5 25q-51 0 -102.5 -38t-88.5 -104
v-256q0 -45 76 -45v-34h-244v34q78 0 78 45v285q0 63 -16 88t-49 25q-26 0 -53 -10t-52.5 -28.5t-47.5 -45t-38 -58.5v-256q0 -45 78 -45v-34h-256v34q88 0 88 45v351q0 46 -89 46v33h179v-106q16 20 37 40.5t47.5 37.5t59 27.5t71.5 10.5q54 0 87 -28.5t42 -89.5
q16 21 38.5 42t50 38t59.5 27.5t67 10.5q63 0 97.5 -34t34.5 -115v-484z" />
    <glyph glyph-name="u0272" unicode="&#x272;" horiz-adv-x="768" 
d="M251 -114q0 -33 -12 -56t-32 -37.5t-46 -21.5t-54 -7q-63 0 -97.5 27.5t-34.5 76.5q0 11 3.5 22.5t11 21t19.5 15.5t29 6q30 0 44.5 -18t14.5 -38q0 -24 -15 -37.5t-38 -17.5q12 -14 27 -18.5t29 -4.5q29 0 45 15.5t16 44.5v571q0 46 -88 46v33h178v-102
q42 45 100.5 78.5t131.5 33.5q72 0 114.5 -34t42.5 -115v-291q0 -45 89 -45v-34h-257v34q78 0 78 45v285q0 62 -23 87.5t-60 25.5q-29 0 -61 -12t-61.5 -31.5t-54 -45t-39.5 -53.5v-449z" />
    <glyph glyph-name="u0273" unicode="&#x273;" horiz-adv-x="767" 
d="M516 364q0 62 -23 87.5t-60 25.5q-29 0 -61 -12t-61.5 -31.5t-54 -45t-39.5 -53.5v-256q0 -45 78 -45v-34h-256v34q88 0 88 45v351q0 46 -88 46v33h178v-102q42 45 100.5 78.5t131.5 33.5q72 0 114.5 -34t42.5 -115v-511q0 -29 16 -44.5t45 -15.5q14 0 29 4.5t27 18.5
q-23 4 -38 17.5t-15 37.5q0 20 14.5 38t44.5 18q17 0 29 -6t19.5 -15.5t11 -21t3.5 -22.5q0 -49 -36 -76.5t-91 -27.5q-66 0 -107.5 28.5t-41.5 93.5v478z" />
    <glyph glyph-name="u0274" unicode="&#x274;" horiz-adv-x="683" 
d="M644 476q-15 0 -29.5 -1.5t-26 -6t-18.5 -12.5t-7 -21v-435h-104l-298 439v-363q0 -25 22.5 -33.5t58.5 -8.5v-34h-203v34q81 0 81 42v369q0 16 -25 23.5t-56 7.5v33h181l301 -448v374q0 13 -7 21t-18.5 12.5t-26 6t-29.5 1.5v33h204v-33z" />
    <glyph glyph-name="u0275" unicode="&#x275;" horiz-adv-x="612" 
d="M307 529q54 0 101.5 -14t83.5 -46t56.5 -84t20.5 -128q0 -62 -18 -112.5t-52.5 -86.5t-85.5 -55.5t-117 -19.5q-53 0 -100 13.5t-83 44.5t-57 81t-21 123q0 64 17 116.5t50.5 90t84.5 57.5t120 20zM308 487q-47 0 -81 -16t-56.5 -43.5t-33.5 -66t-11 -83.5v-4h350
q-2 63 -15.5 104t-36 65.5t-52.5 34t-64 9.5zM296 25q48 0 81.5 15.5t55 43.5t31.5 66.5t12 83.5h-349q3 -62 17 -102t36 -64t51.5 -33.5t64.5 -9.5z" />
    <glyph glyph-name="u0276" unicode="&#x276;" horiz-adv-x="858" 
d="M789 323l-36 -3q-3 42 -10 70.5t-20 45.5t-32 24t-46 7h-143v-190h100q24 0 34.5 20t10.5 58h34v-197h-34q0 41 -10.5 59.5t-34.5 18.5h-100v-194h163q106 0 118 147l36 -3l-20 -186h-393q-49 -17 -110 -17q-53 0 -100 13.5t-83 44.5t-57 81t-21 123q0 64 17 116.5
t50.5 90t84.5 57.5t120 20q64 0 118 -20h364v-186zM308 487q-47 0 -81 -16t-56.5 -44t-33.5 -66.5t-11 -83.5q0 -74 12.5 -123t35 -77.5t53.5 -40t69 -11.5q73 0 116 37v393q-22 17 -48.5 24.5t-55.5 7.5z" />
    <glyph glyph-name="u0277" unicode="&#x277;" horiz-adv-x="771" 
d="M728 235q0 -56 -15.5 -102t-43 -79.5t-64.5 -52t-79 -18.5q-54 0 -90 23t-55 74q-20 -46 -55 -71.5t-89 -25.5q-45 0 -82 15.5t-63.5 47t-41.5 79t-15 110.5q0 64 22.5 118t66.5 93t109 61t151 22q84 0 148 -22t107.5 -61t66 -93t22.5 -118zM422 350v-175
q0 -73 23.5 -111.5t78.5 -38.5q22 0 42.5 11t36 36t25 66.5t9.5 101.5q0 116 -66 181.5t-187 65.5t-189.5 -65t-68.5 -186q0 -59 9.5 -99.5t25 -65t36 -35.5t42.5 -11q55 0 78.5 38.5t23.5 113.5v173h81z" />
    <glyph glyph-name="u0278" unicode="&#x278;" horiz-adv-x="692" 
d="M296 692q0 45 -88 45v33h180v-243q49 -5 96 -22t83.5 -49t59 -81t22.5 -118q0 -56 -19.5 -102.5t-54.5 -81.5t-83 -57.5t-104 -29.5v-146q3 -43 111 -43v-33h-292v33q84 0 89 41v147q-48 4 -95 20.5t-84 47.5t-59.5 78.5t-22.5 113.5q0 58 19 106.5t53 84.5t82 59t107 30
v167zM126 263q0 -56 14.5 -97.5t38 -70.5t54 -45.5t63.5 -22.5v457q-81 -15 -125.5 -74t-44.5 -147zM557 260q0 55 -14.5 95.5t-38 67.5t-54 42t-62.5 20v-457q78 18 123.5 79.5t45.5 152.5z" />
    <glyph glyph-name="u0279" unicode="&#x279;" horiz-adv-x="547" 
d="M330 97q-32 -57 -77 -82t-90 -25q-21 0 -43 6.5t-40 20.5t-29.5 37t-11.5 56q0 30 16.5 47.5t46.5 17.5t45.5 -16t15.5 -38q0 -25 -18 -39.5t-51 -14.5q8 -17 29 -26t46 -9q18 0 38 6t41 22.5t42 45t40 72.5v252q0 45 -100 45v34h278v-34q-88 0 -88 -45v-351
q0 -46 88 -46v-33h-178v97z" />
    <glyph glyph-name="u027A" unicode="&#x27a;" horiz-adv-x="547" 
d="M330 97q-32 -57 -77 -82t-90 -25q-21 0 -43 6.5t-40 20.5t-29.5 37t-11.5 56q0 30 16.5 47.5t46.5 17.5t45.5 -16t15.5 -38q0 -25 -18 -39.5t-51 -14.5q8 -17 29 -26t46 -9q18 0 38 6t41 22.5t42 45t40 72.5v514q0 45 -88 45v33h178v-691q0 -46 88 -46v-33h-178v97z" />
    <glyph glyph-name="u027B" unicode="&#x27b;" horiz-adv-x="581" 
d="M330 97q-32 -57 -77 -82t-90 -25q-21 0 -43 6.5t-40 20.5t-29.5 37t-11.5 56q0 30 16.5 47.5t46.5 17.5t45.5 -16t15.5 -38q0 -25 -18 -39.5t-51 -14.5q8 -17 29 -26t46 -9q18 0 38 6t41 22.5t42 45t40 72.5v252q0 45 -100 45v34h278v-34q-88 0 -88 -45v-571
q0 -29 16 -44.5t45 -15.5q14 0 29 4.5t27 18.5q-23 4 -38 17.5t-15 37.5q0 20 14.5 38t44.5 18q17 0 29 -6t19.5 -15.5t11 -21t3.5 -22.5q0 -49 -36 -76.5t-91 -27.5q-66 0 -107.5 28.5t-41.5 93.5v211z" />
    <glyph glyph-name="u027C" unicode="&#x27c;" horiz-adv-x="547" 
d="M217 412q32 57 77 82t90 25q21 0 43 -6.5t40 -20.5t29.5 -37t11.5 -56q0 -30 -16.5 -47.5t-46.5 -17.5t-45.5 16t-15.5 38q0 25 18 39.5t51 14.5q-8 17 -29 26t-46 9q-18 0 -38 -6t-41 -22.5t-42 -45t-40 -72.5v-487q0 -45 100 -45v-34h-278v34q88 0 88 45v586
q0 46 -88 46v33h178v-97z" />
    <glyph glyph-name="u027D" unicode="&#x27d;" horiz-adv-x="547" 
d="M217 412q32 57 77 82t90 25q21 0 43 -6.5t40 -20.5t29.5 -37t11.5 -56q0 -30 -16.5 -47.5t-46.5 -17.5t-45.5 16t-15.5 38q0 25 18 39.5t51 14.5q-8 17 -29 26t-46 9q-18 0 -38 -6t-41 -22.5t-42 -45t-40 -72.5v-472q0 -29 16 -44.5t45 -15.5q14 0 29 4.5t27 18.5
q-23 4 -38 17.5t-15 37.5q0 20 14.5 38t44.5 18q17 0 29 -6t19.5 -15.5t11 -21t3.5 -22.5q0 -49 -36 -76.5t-91 -27.5q-66 0 -107.5 28.5t-41.5 93.5v544q0 46 -88 46v33h178v-97z" />
    <glyph glyph-name="u027E" unicode="&#x27e;" horiz-adv-x="465" 
d="M217 79q0 -45 89 -45v-34h-267v34q88 0 88 45v326q0 60 42.5 92t111.5 32q37 0 64 -9t45 -24t27 -34.5t9 -40.5q0 -11 -3 -22.5t-9.5 -21t-18 -15.5t-28.5 -6q-33 0 -48 18t-15 38q0 24 15 37t38 17q-24 28 -70 28q-32 0 -51 -19t-19 -50v-346z" />
    <glyph glyph-name="u027F" unicode="&#x27f;" horiz-adv-x="447" 
d="M319 -156q0 -45 89 -45v-34h-267v34q88 0 88 45v580q0 32 -19 51t-51 19q-46 0 -70 -28q23 -4 38 -17t15 -37q0 -20 -15 -38t-48 -18q-17 0 -28.5 6t-18.5 15.5t-9.5 21t-2.5 22.5q0 21 9 40.5t27 34.5t45 24t64 9q69 0 111.5 -32.5t42.5 -92.5v-560z" />
    <glyph glyph-name="u0280" unicode="&#x280;" horiz-adv-x="647" 
d="M617 68q0 -32 -18 -52.5t-63 -20.5t-66.5 19.5t-21.5 48.5v60q0 53 -18 77.5t-73 24.5h-139v-147q0 -17 15.5 -30.5t62.5 -13.5v-34h-257v34q16 0 32 2t28.5 7t20.5 13t8 21v353q0 45 -89 45v34h325q42 0 77 -8t60.5 -24.5t40 -43t14.5 -62.5q0 -54 -34 -84.5t-88 -40.5
q57 -13 82 -42.5t25 -78.5v-59q0 -28 22 -28q18 0 18 28v55h36v-53zM218 469v-204h143q45 0 73.5 26.5t28.5 77.5q0 46 -26.5 73t-74.5 27h-144z" />
    <glyph glyph-name="u0281" unicode="&#x281;" horiz-adv-x="647" 
d="M617 388h-36v55q0 28 -18 28q-22 0 -22 -28v-59q0 -49 -25 -78.5t-82 -42.5q54 -10 88 -40.5t34 -84.5q0 -36 -14.5 -62.5t-40 -43t-60.5 -24.5t-77 -8h-325v34q89 0 89 45v353q0 13 -8 21t-20.5 13t-28.5 7t-32 2v34h257v-34q-47 0 -62.5 -13.5t-15.5 -30.5v-147h139
q55 0 73 24.5t18 77.5v60q0 29 21.5 48.5t66.5 19.5t63 -20.5t18 -52.5v-53zM362 40q48 0 74.5 27t26.5 73q0 51 -28.5 77.5t-73.5 26.5h-143v-204h144z" />
    <glyph glyph-name="u0282" unicode="&#x282;" horiz-adv-x="518" 
d="M458 318l-37 -7q-9 81 -58.5 123.5t-134.5 42.5q-45 0 -77.5 -18t-32.5 -58q0 -37 26.5 -55.5t67 -29.5t87 -19t87 -24.5t67 -46.5t26.5 -84q0 -72 -48.5 -110t-142.5 -38q-48 0 -88.5 10.5t-70.5 35.5q-7 5 -15.5 10.5t-15.5 5.5t-10.5 -5t-5.5 -12.5t-2.5 -15
t-0.5 -11.5v-147q0 -33 15.5 -49.5t41.5 -16.5q19 0 30 4.5t22 16.5q-28 2 -40 17t-12 36q0 20 12.5 37.5t41.5 17.5q32 0 46 -19.5t14 -44.5q0 -21 -8.5 -39.5t-23.5 -32t-35 -21t-43 -7.5q-46 0 -73.5 26.5t-27.5 82.5v331l36 6q5 -40 23.5 -72.5t46.5 -56t64 -36
t76 -12.5q63 0 90.5 23.5t27.5 60.5q0 28 -15.5 45t-41 27.5t-58 17t-66.5 14t-66.5 17.5t-58 27.5t-41 44.5t-15.5 69q0 66 47 103t138 37q37 0 77.5 -12t65.5 -31q8 -7 16.5 -12t16.5 -5q9 0 14 15l5 35h37v-191z" />
    <glyph glyph-name="u0283" unicode="&#x283;" horiz-adv-x="459" 
d="M326 770q76 0 117 -29.5t41 -78.5q0 -11 -3 -22.5t-9.5 -21t-18 -15.5t-28.5 -6q-33 0 -48 18t-15 38q0 24 15 37t38 17q-12 14 -30.5 21t-52.5 7q-29 0 -43 -17t-14 -43v-796q0 -60 -39.5 -87.5t-102.5 -27.5q-76 0 -117 29.5t-41 78.5q0 11 2.5 22.5t9.5 21t18.5 15.5
t28.5 6q33 0 48 -18t15 -38q0 -24 -15 -37t-38 -17q12 -14 30.5 -21t52.5 -7q29 0 43 17t14 43v796q0 60 39.5 87.5t102.5 27.5z" />
    <glyph glyph-name="u0284" unicode="&#x284;" horiz-adv-x="459" 
d="M365 0h-90v-121q0 -60 -39.5 -87.5t-102.5 -27.5q-76 0 -117 29.5t-41 78.5q0 11 2.5 22.5t9.5 21t18.5 15.5t28.5 6q33 0 48 -18t15 -38q0 -24 -15 -37t-38 -17q12 -14 30.5 -21t52.5 -7q29 0 43 17t14 43v141h-90v50h90v605q0 60 39.5 87.5t102.5 27.5q76 0 117 -29.5
t41 -78.5q0 -11 -3 -22.5t-9.5 -21t-18 -15.5t-28.5 -6q-33 0 -48 18t-15 38q0 24 15 37t38 17q-12 14 -30.5 21t-52.5 7q-29 0 -43 -17t-14 -43v-625h90v-50z" />
    <glyph glyph-name="u0285" unicode="&#x285;" horiz-adv-x="459" 
d="M133 528q63 0 102.5 -27.5t39.5 -87.5v-554q0 -26 14 -43t43 -17q34 0 52.5 7t30.5 21q-23 4 -38 17t-15 37q0 20 15 38t48 18q17 0 28.5 -6t18 -15.5t9.5 -21t3 -22.5q0 -49 -41 -78.5t-117 -29.5q-63 0 -102.5 27.5t-39.5 87.5v554q0 26 -14 43t-43 17q-34 0 -52.5 -7
t-30.5 -21q23 -4 38 -17t15 -37q0 -20 -15 -38t-48 -18q-17 0 -28.5 6t-18 15.5t-9.5 21t-3 22.5q0 49 41 78.5t117 29.5z" />
    <glyph glyph-name="u0286" unicode="&#x286;" horiz-adv-x="536" 
d="M130 -235q-32 0 -60.5 6.5t-49.5 18.5t-33 30t-12 41q0 32 22.5 52.5t70.5 20.5q30 0 52.5 -8t40 -22t31.5 -33.5t27 -42.5q11 8 19 16.5t13 22t7.5 34t2.5 52.5v702q0 60 39.5 87.5t102.5 27.5q76 0 117 -29.5t41 -78.5q0 -11 -3 -22.5t-9.5 -21t-18 -15.5t-28.5 -6
q-33 0 -48 18t-15 38q0 24 15 37t38 17q-12 14 -30.5 21t-52.5 7q-29 0 -43 -17t-14 -43v-684q0 -45 -9 -79.5t-25 -59t-36.5 -41t-43.5 -26.5q11 -20 21 -45t18 -46l-35 -17q-8 23 -19.5 50t-22.5 47q-10 -3 -27.5 -6t-42.5 -3zM50 -136q0 -52 90 -52q15 0 26 1.5t16 3.5
q-24 42 -48 59t-51 17q-14 0 -23.5 -6.5t-9.5 -22.5z" />
    <glyph glyph-name="u0287" unicode="&#x287;" horiz-adv-x="390" 
d="M175 1h-136l5 58q29 -6 61 -8.5t70 -2.5v379q0 45 -50 45q-24 0 -34 -13.5t-10 -31.5v-68h-38v58q0 22 3.5 40t14.5 31.5t31 21t53 7.5q61 0 90.5 -31.5t29.5 -88.5v-349h89v-34q-29 -2 -52 -8t-39 -21t-25 -42t-9 -70v-22l-54 -7v157z" />
    <glyph glyph-name="u0288" unicode="&#x288;" horiz-adv-x="379" 
d="M218 509h136l-5 -58q-29 6 -61 8.5t-70 2.5v-603q0 -29 16 -44.5t45 -15.5q14 0 29 4.5t27 18.5q-23 4 -38 17.5t-15 37.5q0 20 14.5 38t44.5 18q17 0 29 -6t19.5 -15.5t11 -21t3.5 -22.5q0 -49 -36 -76.5t-91 -27.5q-66 0 -107.5 28.5t-41.5 93.5v576h-89v34
q28 2 51.5 8t39.5 21t25 42t9 70v22l54 7v-157z" />
    <glyph glyph-name="u0289" unicode="&#x289;" horiz-adv-x="696" 
d="M40 271h87v159q0 46 -88 46v33h178v-238h272v159q0 46 -99 46v33h191v-238h74v-40h-74v-152q0 -45 76 -45v-34h-168v102q-13 -20 -32.5 -39.5t-45.5 -35.5t-58 -26t-71 -10q-79 0 -117 33.5t-38 115.5v91h-87v40zM299 33q28 0 56 11t52.5 30.5t45.5 45t36 54.5v57h-272
v-86q0 -63 18.5 -87.5t63.5 -24.5z" />
    <glyph glyph-name="u028A" unicode="&#x28a;" horiz-adv-x="625" 
d="M389 509h193v-40h-112q20 -13 38.5 -32t32.5 -44t22 -57t8 -71q0 -135 -70.5 -208.5t-196.5 -73.5q-62 0 -111.5 17t-84 50.5t-53.5 82.5t-19 112q0 61 27.5 121.5t86.5 102.5h-115v40h195v-38q-59 -29 -81 -85.5t-22 -137.5q0 -109 49.5 -166t132.5 -57q41 0 72.5 16.5
t53 46.5t32.5 71.5t11 91.5q0 36 -4 69.5t-13.5 62t-27 51t-44.5 35.5v40z" />
    <glyph glyph-name="u028B" unicode="&#x28b;" horiz-adv-x="606" 
d="M335 -9q-39 0 -73.5 12t-60 35.5t-40 59t-14.5 82.5v259q0 26 -13.5 35.5t-35.5 9.5t-33.5 -12.5t-11.5 -32.5v-68h-38v71q0 42 25.5 64.5t77.5 22.5q26 0 48 -5.5t37.5 -19t24.5 -37t9 -58.5v-264q0 -32 9.5 -53t25.5 -34.5t36.5 -19t43.5 -5.5q45 0 75 22.5t48.5 57
t26.5 75.5t8 77q0 27 -5 49t-12.5 38.5t-15.5 28t-15 18.5q-14 15 -24 25t-16.5 18t-9.5 15.5t-3 18.5q0 9 3 18t10.5 17t19.5 13t30 5q40 0 65.5 -44t25.5 -129q0 -61 -9.5 -125.5t-34.5 -118t-69.5 -87.5t-114.5 -34z" />
    <glyph glyph-name="u028C" unicode="&#x28c;" horiz-adv-x="685" 
d="M39 33q63 0 78 34l188 442h84l185 -441q15 -35 72 -35v-33h-263v33h64q30 0 30 18q0 9 -3 17l-151 374l-156 -366q-4 -7 -4 -14q0 -29 48 -29h41v-33h-213v33z" />
    <glyph glyph-name="u028D" unicode="&#x28d;" horiz-adv-x="994" 
d="M39 33q34 0 51 8t23 26l159 442h80l146 -376l153 376h81l155 -441q12 -35 68 -35v-33h-252v33h62q28 0 28 18q0 16 -4 23l-123 368l-149 -366q-3 -8 -3 -18q0 -25 35 -25h50v-33h-253v33h69q24 0 24 17q0 6 -2.5 11.5t-4.5 11.5l-145 369l-127 -366q-3 -8 -3 -14
q0 -29 45 -29h40v-33h-203v33z" />
    <glyph glyph-name="u028E" unicode="&#x28e;" horiz-adv-x="677" 
d="M34 33q33 0 51.5 8.5t26.5 25.5l245 577q13 30 26 51.5t30 35.5t39.5 21t53.5 7q69 0 108.5 -33.5t39.5 -82.5q0 -11 -3 -22.5t-9.5 -21t-18 -15.5t-28.5 -6q-33 0 -47.5 17.5t-14.5 37.5q0 25 14.5 38t37.5 17q-9 15 -27.5 25.5t-59.5 10.5q-27 0 -52 -20.5t-43 -66.5
l-36 -89l202 -480q15 -35 73 -35v-33h-265v33h65q30 0 30 18q0 9 -3 17l-152 374l-155 -366q-3 -8 -3 -14q0 -29 47 -29h41v-33h-213v33z" />
    <glyph glyph-name="u028F" unicode="&#x28f;" horiz-adv-x="666" 
d="M627 476q-31 0 -49 -9t-29 -25l-172 -232v-132q0 -45 78 -45v-34h-256v34q88 0 88 45v132l-175 231q-12 15 -28 25t-45 10v33h265v-33h-62q-32 0 -32 -19q0 -9 5 -16l144 -190l131 175q8 11 8 22q0 28 -46 28h-37v33h212v-33z" />
    <glyph glyph-name="u0290" unicode="&#x290;" horiz-adv-x="683" 
d="M534 463l-383 -423h193q43 0 71 8t45 27.5t26 52t14 82.5l37 -6v-339q0 -33 15.5 -49.5t41.5 -16.5q19 0 30 4.5t22 16.5q-28 2 -40 17t-12 36q0 20 12.5 37.5t41.5 17.5q32 0 46 -19.5t14 -44.5q0 -21 -8.5 -39.5t-23.5 -32t-35 -21t-43 -7.5q-46 0 -73.5 26.5
t-27.5 82.5v127h-458v47l390 422h-188q-35 0 -60 -7t-42 -25t-28 -48.5t-19 -77.5l-35 7v191h477v-46z" />
    <glyph glyph-name="u0291" unicode="&#x291;" horiz-adv-x="595" 
d="M319 0q-11 -20 -20.5 -42.5t-17.5 -45.5l-38 17q7 19 15 36.5t17 34.5h-236v47l390 422h-188q-35 0 -60 -7t-42 -25t-28 -48.5t-19 -77.5l-35 7v191h477v-46l-383 -423h143q13 25 30.5 48.5t39.5 41.5t47 28.5t52 10.5q95 0 95 -64q0 -23 -14.5 -42.5t-39 -33.5
t-56 -21.5t-65.5 -7.5h-64zM483 98q0 16 -12 23.5t-26 7.5q-23 0 -52.5 -23.5t-53.5 -65.5h24q64 0 92 16.5t28 41.5z" />
    <glyph glyph-name="u0292" unicode="&#x292;" horiz-adv-x="522" 
d="M475 463l-254 -251q27 7 65 7q34 0 70.5 -8.5t66.5 -31.5t49.5 -63t19.5 -103q0 -49 -17.5 -94t-51.5 -79.5t-83 -55t-112 -20.5q-44 0 -79 10t-60 26.5t-38.5 39t-13.5 46.5q0 11 2.5 23t9.5 22.5t18.5 17t28.5 6.5q33 0 48 -18t15 -38q0 -24 -15 -37t-38 -17
q13 -17 40.5 -29.5t70.5 -12.5q33 0 66 11.5t58.5 37t41.5 66t16 98.5q0 85 -37 124.5t-103 39.5q-39 0 -66 -11t-51 -34l-24 31l302 303h-198q-29 0 -51 -7t-39 -25t-29 -48.5t-20 -77.5l-35 7v191h427v-46z" />
    <glyph glyph-name="u0293" unicode="&#x293;" horiz-adv-x="522" 
d="M191 -241q-32 0 -60.5 6.5t-49.5 18.5t-33 30t-12 41q0 32 22.5 52.5t70.5 20.5q30 0 52.5 -8t40 -22t31.5 -33.5t27 -42.5l3 -7q57 24 86.5 76.5t29.5 124.5q0 85 -37 124.5t-103 39.5q-39 0 -66 -11t-51 -34l-24 31l302 303h-198q-29 0 -51 -7t-39 -25t-29 -48.5
t-20 -77.5l-35 7v191h427v-46l-254 -251q27 7 65 7q34 0 70.5 -8.5t66.5 -31.5t49.5 -63t19.5 -103q0 -36 -12.5 -72t-37 -68t-60.5 -56.5t-83 -37.5q10 -19 20.5 -45t18.5 -46l-35 -17q-8 23 -20 49t-23 46q-23 -5 -40.5 -6t-28.5 -1zM111 -142q0 -25 22.5 -42.5
t67.5 -17.5q15 0 26 1.5t16 3.5q-24 42 -48 63t-51 21q-14 0 -23.5 -6.5t-9.5 -22.5z" />
    <glyph glyph-name="u0294" unicode="&#x294;" horiz-adv-x="540" 
d="M228 316q0 15 3.5 28t11.5 27t22.5 29.5t35.5 35.5q43 40 65 74.5t22 80.5q0 22 -6 43.5t-21.5 38.5t-42 27.5t-66.5 10.5q-33 0 -56.5 -6t-39.5 -15.5t-25.5 -22t-15.5 -25.5q26 0 44.5 -16.5t18.5 -40.5q0 -28 -18 -47t-52 -19q-32 0 -50 19.5t-18 50.5q0 25 10 55
t36 55.5t70.5 42.5t114.5 17q49 0 91 -7t73 -25t48 -49t17 -79q0 -28 -8 -54t-21 -49t-29.5 -43t-32.5 -37q-29 -30 -53.5 -55.5t-24.5 -48.5v-231q0 -46 89 -46v-35h-282v35q90 0 90 46v235z" />
    <glyph glyph-name="u0295" unicode="&#x295;" horiz-adv-x="540" 
d="M312 81q0 -46 90 -46v-35h-282v35q89 0 89 46v231q0 23 -24.5 48.5t-53.5 55.5q-17 17 -33 37t-29 41.5t-21 44.5t-8 46q0 45 17 77.5t48 54t72.5 32t91.5 10.5q70 0 114.5 -17t70.5 -42.5t36 -55.5t10 -55q0 -31 -18 -50.5t-50 -19.5q-34 0 -52 19t-18 47
q0 24 18.5 40.5t44.5 16.5q-6 13 -15.5 25.5t-25.5 22t-39.5 15.5t-56.5 6q-41 0 -67 -10.5t-41.5 -27.5t-21.5 -38.5t-6 -43.5q0 -46 21.5 -80.5t65.5 -74.5q21 -20 35.5 -35.5t22.5 -29.5t11.5 -27t3.5 -28v-235z" />
    <glyph glyph-name="u0296" unicode="&#x296;" horiz-adv-x="540" 
d="M228 662q0 46 -90 46v35h282v-35q-89 0 -89 -46v-231q0 -23 24.5 -48.5t53.5 -55.5q16 -17 32.5 -37t29.5 -41.5t21 -44.5t8 -46q0 -45 -17 -77.5t-48 -54t-73 -32t-91 -10.5q-70 0 -114.5 17t-70.5 42.5t-36 55t-10 55.5q0 31 18 50.5t50 19.5q34 0 52 -19t18 -47
q0 -24 -18.5 -40.5t-44.5 -16.5q6 -13 15.5 -25.5t25.5 -22t39.5 -15.5t56.5 -6q40 0 66.5 10.5t42 27.5t21.5 38.5t6 43.5q0 23 -5.5 42.5t-16.5 37.5t-27 36.5t-38 38.5q-21 20 -35.5 35.5t-22.5 29.5t-11.5 27t-3.5 28v235z" />
    <glyph glyph-name="u0297" unicode="&#x297;" horiz-adv-x="560" 
d="M521 -46q-6 -36 -21 -70.5t-40.5 -61t-62.5 -43t-87 -16.5q-77 0 -128 29.5t-82 82t-44 125t-13 158.5q0 100 17.5 171t51.5 115t83.5 64.5t113.5 20.5q45 0 82.5 -12t65 -31.5t42.5 -43t15 -46.5q0 -28 -15.5 -45t-44.5 -17t-45 16.5t-16 41.5q0 21 15.5 34.5t35.5 15.5
q-20 19 -48.5 32t-81.5 13t-88 -23.5t-55.5 -66.5t-28.5 -103t-8 -133q0 -185 46.5 -270.5t137.5 -85.5q27 0 53 8.5t47.5 27t38 48.5t23.5 72z" />
    <glyph glyph-name="u0298" unicode="&#x298;" horiz-adv-x="832" 
d="M423 759q79 0 147.5 -20t118 -66t78 -119.5t28.5 -181.5q0 -87 -24 -158.5t-72.5 -122.5t-121 -79t-169.5 -28q-77 0 -145 19.5t-118 63.5t-79 115t-29 174q0 91 22.5 165.5t70 127t120 81.5t173.5 29zM428 700q-77 0 -130.5 -22.5t-87.5 -62.5t-49.5 -94.5t-15.5 -118.5
q0 -105 17.5 -174t51.5 -109.5t83 -57t111 -16.5q82 0 136 24.5t86 67t45.5 101t13.5 127.5q0 99 -18.5 163.5t-52.5 103t-82.5 53.5t-107.5 15zM485 369q0 -26 -18.5 -44.5t-44.5 -18.5t-44.5 18.5t-18.5 44.5t18.5 44.5t44.5 18.5t44.5 -18.5t18.5 -44.5z" />
    <glyph glyph-name="u0299" unicode="&#x299;" horiz-adv-x="616" 
d="M377 509q52 0 86.5 -10.5t55 -27t29 -37t8.5 -40.5q0 -51 -31.5 -82t-83.5 -43q27 -4 51.5 -14.5t43 -26.5t29.5 -38t11 -49q0 -26 -10.5 -51.5t-33 -45.5t-57.5 -32t-84 -12h-351v34q88 0 88 45v351q0 45 -89 45v34h338zM218 284h146q100 0 100 98q0 46 -26.5 69.5
t-96.5 23.5h-123v-191zM218 34h136q69 0 99.5 28.5t30.5 82.5q0 48 -27.5 73.5t-87.5 25.5h-151v-210z" />
    <glyph glyph-name="u029A" unicode="&#x29a;" horiz-adv-x="540" 
d="M497 266q0 -137 -66 -209.5t-178 -72.5q-41 0 -78.5 10t-67 28.5t-47 46t-17.5 63.5q0 55 38.5 93t103.5 43q-68 12 -99 43t-31 77q0 36 16.5 62.5t43 44t60 26t68.5 8.5q66 0 114 -21t79 -56.5t46 -83.5t15 -102zM256 25q71 0 110.5 56.5t39.5 174.5q0 110 -38.5 173.5
t-118.5 63.5q-52 0 -82.5 -25.5t-30.5 -70.5q0 -51 35 -82.5t111 -35.5v-34q-72 0 -110.5 -26.5t-38.5 -79.5q0 -54 33.5 -84t89.5 -30z" />
    <glyph glyph-name="u029B" unicode="&#x29b;" horiz-adv-x="704" 
d="M521 0h-57l-19 47q-23 -29 -60 -46.5t-87 -17.5q-52 0 -98 15t-81 47t-55.5 82t-20.5 121q0 67 19 119t53.5 88t81 55t102.5 19q46 0 75.5 -10.5t55.5 -28.5v168q0 60 42.5 91.5t111.5 31.5q37 0 64 -9t45 -24t27 -34.5t9 -40.5q0 -11 -3 -22.5t-9.5 -21t-18 -15.5
t-28.5 -6q-33 0 -48 18t-15 38q0 24 15 37t38 17q-24 28 -70 28q-32 0 -51.5 -19t-19.5 -51v-348l-37 -7l-2 15q-2 16 -6 29q-15 58 -59 90t-114 32q-32 0 -61.5 -12t-52.5 -41t-37 -77t-14 -120q0 -51 13.5 -90.5t37.5 -66.5t57 -41t72 -14q27 0 48.5 8t36.5 20.5t22.5 27
t7.5 26.5v54q0 45 -89 45v34h257v-34q-78 0 -78 -45v-161z" />
    <glyph glyph-name="u029C" unicode="&#x29c;" horiz-adv-x="735" 
d="M218 274h299v156q0 45 -78 45v34h257v-34q-89 0 -89 -45v-351q0 -45 89 -45v-34h-257v34q78 0 78 45v155h-299v-155q0 -45 78 -45v-34h-256v34q88 0 88 45v351q0 45 -89 45v34h257v-34q-78 0 -78 -45v-156z" />
    <glyph glyph-name="u029D" unicode="&#x29d;" horiz-adv-x="443" 
d="M352 -24q0 -41 -9.5 -72.5t-25.5 -54.5t-36 -38.5t-42 -25.5q11 -20 21 -45t18 -46l-35 -17q-8 23 -19.5 50t-22.5 47q-10 -3 -27.5 -6t-42.5 -3q-32 0 -60.5 6.5t-49.5 18.5t-33 30t-12 41q0 32 22.5 52.5t70.5 20.5q30 0 52.5 -8t40 -22t31.5 -33.5t27 -42.5
q11 8 19 16.5t13 22t7.5 35t2.5 54.5v474q0 46 -100 46v33h190v-533zM369 684q0 -29 -20.5 -50t-49.5 -21t-50 21t-21 50t21 49.5t50 20.5t49.5 -20.5t20.5 -49.5zM51 -136q0 -52 90 -52q15 0 26 1.5t16 3.5q-24 42 -48 59t-51 17q-14 0 -23.5 -6.5t-9.5 -22.5z" />
    <glyph glyph-name="u029E" unicode="&#x29e;" horiz-adv-x="707" 
d="M64 33q31 0 56.5 10t43.5 24l161 121l-203 253q-27 34 -83 34v34h292v-34h-82q-22 0 -22 -13q0 -11 10 -21l158 -201l95 71v119q0 45 -89 45v34h267v-34q-88 0 -88 -45v-588q0 -45 88 -45v-33h-178v501l-252 -189q-13 -9 -13 -23q0 -8 6 -14t20 -6h49v-33h-236v33z" />
    <glyph glyph-name="u029F" unicode="&#x29f;" horiz-adv-x="540" 
d="M505 0h-466v34q42 0 65.5 10.5t23.5 30.5v355q0 45 -77 45v34h256v-34q-89 0 -89 -45v-388h143q108 0 118 167l36 -3z" />
    <glyph glyph-name="u02A0" unicode="&#x2a0;" horiz-adv-x="729" 
d="M453 656q0 60 43.5 92.5t112.5 32.5q37 0 64 -9t45 -24t27 -34.5t9 -40.5q0 -11 -3 -22.5t-9.5 -21t-18 -15.5t-28.5 -6q-33 0 -48 18t-15 38q0 24 15 37t38 17q-24 28 -70 28q-31 0 -50.5 -18.5t-19.5 -48.5v-837q0 -45 89 -45v-33h-291v33q111 0 111 45v219
q-20 -34 -64 -56t-104 -22q-50 0 -95.5 12t-80 42.5t-55 82t-20.5 130.5q0 83 20.5 137t55.5 85.5t81.5 44t97.5 12.5q47 0 89 -16t74 -45v188zM291 487q-48 0 -80 -19t-52 -50.5t-28.5 -73.5t-8.5 -88t8.5 -88t28.5 -73.5t52 -50.5t80 -19t81 19t53 50.5t29 73.5t9 88
t-9 88t-29 73.5t-53 50.5t-81 19z" />
    <glyph glyph-name="u02A1" unicode="&#x2a1;" horiz-adv-x="540" 
d="M466 250h-135v-169q0 -46 89 -46v-35h-282v35q90 0 90 46v169h-135v50h135v16q0 15 3.5 28t11.5 27t22.5 29.5t35.5 35.5q43 40 65 74.5t22 80.5q0 22 -6 43.5t-21.5 38.5t-42 27.5t-66.5 10.5q-33 0 -56.5 -6t-39.5 -15.5t-25.5 -22t-15.5 -25.5q26 0 44.5 -16.5
t18.5 -40.5q0 -28 -18 -47t-52 -19q-32 0 -50 19.5t-18 50.5q0 25 10 55t36 55.5t70.5 42.5t114.5 17q49 0 91 -7t73 -25t48 -49t17 -79q0 -28 -8 -54t-21 -49t-29.5 -43t-32.5 -37q-29 -30 -53.5 -55.5t-24.5 -48.5v-12h135v-50z" />
    <glyph glyph-name="u02A2" unicode="&#x2a2;" horiz-adv-x="540" 
d="M74 300h135v12q0 23 -24.5 48.5t-53.5 55.5q-17 17 -33 36t-29 41t-21 48t-8 58q0 41 17 71.5t48 50t72.5 29t91.5 9.5q70 0 114.5 -17t70.5 -42.5t36 -55.5t10 -55q0 -31 -18 -50.5t-50 -19.5q-34 0 -52 19t-18 47q0 24 18.5 40.5t44.5 16.5q-6 13 -15.5 25.5t-25.5 22
t-39.5 15.5t-56.5 6q-41 0 -67 -10.5t-41.5 -27.5t-21.5 -38.5t-6 -43.5q0 -46 21.5 -80.5t65.5 -74.5q21 -20 35.5 -35.5t22.5 -29.5t11.5 -27t3.5 -28v-16h135v-50h-135v-169q0 -46 90 -46v-35h-282v35q89 0 89 46v169h-135v50z" />
    <glyph glyph-name="u02A3" unicode="&#x2a3;" horiz-adv-x="1043" 
d="M1003 463l-383 -423h193q43 0 71 8t45 27.5t26 52t14 82.5l37 -6v-204h-499l-8 83q-49 -100 -203 -100q-50 0 -96.5 15.5t-82 48.5t-57 84.5t-21.5 123.5q0 75 24 127.5t63 85t87.5 47t97.5 14.5q52 0 94 -14t65 -38v215q0 45 -88 45v33h179v-261h442v-46zM308 487
q-48 0 -82 -19t-55 -50.5t-31 -73.5t-10 -88t10 -88t31 -73.5t55 -50.5t82 -19t80.5 19t53 50.5t29 73.5t8.5 88t-8.5 88t-29 73.5t-53 50.5t-80.5 19zM898 469h-188q-35 0 -60 -7t-42 -25t-28 -48.5t-19 -77.5v-207z" />
    <glyph glyph-name="u02A4" unicode="&#x2a4;" horiz-adv-x="1001" 
d="M954 463l-254 -251q27 7 65 7q34 0 70.5 -8.5t66.5 -31.5t49.5 -63t19.5 -103q0 -49 -17.5 -94t-51.5 -79.5t-83 -55t-112 -20.5q-44 0 -79 10t-60 26.5t-38.5 39t-13.5 46.5q0 11 2.5 23t9.5 22.5t18.5 17t28.5 6.5q33 0 48 -18t15 -38q0 -24 -15 -37t-38 -17
q13 -17 40.5 -29.5t70.5 -12.5q33 0 66 11.5t58.5 37t41.5 66t16 98.5q0 85 -37 124.5t-103 39.5q-39 0 -66 -11t-51 -34l-24 31l302 303h-198q-29 0 -54 -6t-44.5 -23t-30.5 -48t-11 -81v-232q0 -45 89 -45v-34h-143l-8 83q-49 -100 -203 -100q-50 0 -96.5 15.5t-82 48.5
t-57 84.5t-21.5 123.5q0 75 24 127.5t63 85t87.5 47t97.5 14.5q52 0 94 -14t65 -38v215q0 45 -88 45v33h179v-261h393v-46zM308 487q-48 0 -82 -19t-55 -50.5t-31 -73.5t-10 -88t10 -88t31 -73.5t55 -50.5t82 -19t80.5 19t53 50.5t29 73.5t8.5 88t-8.5 88t-29 73.5t-53 50.5
t-80.5 19z" />
    <glyph glyph-name="u02A5" unicode="&#x2a5;" horiz-adv-x="1059" 
d="M783 0q-11 -20 -20.5 -42.5t-17.5 -45.5l-38 17q7 19 15 36.5t17 34.5h-236l-8 83q-49 -100 -203 -100q-50 0 -96.5 15.5t-82 48.5t-57 84.5t-21.5 123.5q0 75 24 127.5t63 85t87.5 47t97.5 14.5q52 0 94 -14t65 -38v215q0 45 -88 45v33h179v-261h441v-46l-383 -423h143
q13 25 30.5 48.5t39.5 41.5t47 28.5t52 10.5q95 0 95 -64q0 -23 -14.5 -42.5t-39 -33.5t-56 -21.5t-65.5 -7.5h-64zM304 487q-48 0 -82 -19t-55 -50.5t-31 -73.5t-10 -88t10 -88t31 -73.5t55 -50.5t82 -19t80.5 19t53 50.5t29 73.5t8.5 88t-8.5 88t-29 73.5t-53 50.5
t-80.5 19zM893 469h-188q-33 0 -60 -5.5t-46.5 -20t-30.5 -40t-11 -65.5v-233zM947 98q0 16 -12 23.5t-26 7.5q-23 0 -52.5 -23.5t-53.5 -65.5h24q64 0 92 16.5t28 41.5z" />
    <glyph glyph-name="u02A6" unicode="&#x2a6;" horiz-adv-x="791" 
d="M218 509h199q18 5 38.5 7.5t43.5 2.5q37 0 77.5 -12t65.5 -31q8 -7 16.5 -12t16.5 -5q9 0 14 15l5 35h37v-191l-37 -7q-9 81 -58.5 123.5t-134.5 42.5q-45 0 -77.5 -18t-32.5 -58q0 -37 26.5 -55.5t67 -29.5t87 -19t87 -24.5t67 -46.5t26.5 -84q0 -72 -48.5 -110
t-142.5 -38q-48 0 -88.5 10.5t-70.5 35.5q-7 5 -16 10.5t-18 5.5t-17.5 -5t-20.5 -22q-11 -15 -30.5 -25.5t-51.5 -10.5q-61 0 -90.5 31.5t-29.5 88.5v349h-89v34q28 2 51.5 8t39.5 21t25 42t9 70v22l54 7v-157zM312 204l36 6q5 -40 23.5 -72.5t46.5 -56t64 -36t76 -12.5
q63 0 90.5 23.5t27.5 60.5q0 28 -15.5 45t-41 27.5t-58 17t-66.5 14t-66.5 17.5t-58 27.5t-41 44.5t-15.5 69q0 49 26 83h-122v-379q0 -45 50 -45q24 0 34 13.5t10 31.5v121z" />
    <glyph glyph-name="u02A7" unicode="&#x2a7;" horiz-adv-x="587" 
d="M218 509h94v146q0 60 39.5 87.5t102.5 27.5q76 0 117 -29.5t41 -78.5q0 -11 -3 -22.5t-9.5 -21t-18 -15.5t-28.5 -6q-33 0 -48 18t-15 38q0 24 15 37t38 17q-12 14 -30.5 21t-52.5 7q-29 0 -43 -17t-14 -43v-796q0 -60 -39.5 -87.5t-102.5 -27.5q-76 0 -117 29.5
t-41 78.5q0 11 2.5 22.5t9.5 21t18.5 15.5t28.5 6q33 0 48 -18t15 -38q0 -24 -15 -37t-38 -17q12 -14 30.5 -21t52.5 -7q29 0 43 17t14 43v146q-23 -12 -64 -12q-61 0 -90.5 31.5t-29.5 88.5v349h-89v34q28 2 51.5 8t39.5 21t25 42t9 70v22l54 7v-157zM218 83q0 -45 50 -45
q22 0 33 11.5t11 27.5v380q-22 2 -45 3.5t-49 1.5v-379z" />
    <glyph glyph-name="u02A8" unicode="&#x2a8;" horiz-adv-x="822" 
d="M218 509h247q52 20 113 20q45 0 82.5 -12t65 -31.5t42.5 -43t15 -46.5q0 -28 -15.5 -45t-44.5 -17t-45 16.5t-16 41.5q0 21 15.5 34.5t35.5 15.5q-20 19 -48.5 32t-81.5 13q-180 0 -180 -226q0 -50 10 -87.5t26.5 -64.5t38.5 -45t46 -27q13 23 29.5 44t37 36.5t44.5 25
t51 9.5q37 0 58.5 -16.5t21.5 -47.5q0 -47 -48 -76t-133 -29q-14 0 -23.5 0.5t-17.5 1.5q-11 -20 -21.5 -43.5t-18.5 -46.5l-38 17q8 21 17 41t20 40q-48 12 -87.5 39.5t-65.5 70.5v-10q0 -22 -3.5 -40t-14.5 -31.5t-31 -21t-53 -7.5q-61 0 -90.5 31.5t-29.5 88.5v349h-89
v34q28 2 51.5 8t39.5 21t25 42t9 70v22l54 7v-157zM312 256q0 69 21.5 120t57.5 86h-173v-379q0 -45 50 -45q24 0 34 13.5t10 31.5v173zM720 83q0 12 -8 20.5t-28 8.5q-70 0 -119 -84q4 -1 10.5 -1.5t11.5 -0.5q64 0 98.5 16t34.5 41z" />
    <glyph glyph-name="u02A9" unicode="&#x2a9;" horiz-adv-x="986" 
d="M906 -114q0 -33 -12 -56t-32 -37.5t-46 -21.5t-54 -7q-63 0 -97.5 27.5t-34.5 76.5q0 11 3.5 22.5t11 21t19.5 15.5t29 6q30 0 44.5 -18t14.5 -38q0 -24 -15 -37.5t-38 -17.5q12 -14 27 -18.5t29 -4.5q29 0 45 15.5t16 44.5v505q0 62 -23 87.5t-60 25.5q-29 0 -61 -12
t-61.5 -31.5t-54 -45t-39.5 -53.5v-256q0 -45 78 -45v-34h-246v34q78 0 78 45v337q0 23 -16.5 34.5t-61.5 11.5h-131v-383q0 -23 20.5 -34t68.5 -11v-34h-267v34q88 0 88 45v383h-89v34q18 4 39.5 7.5t47.5 5.5v129q0 40 13 67t35 43.5t52 24t65 7.5q34 0 64.5 -7.5
t53 -21.5t35.5 -34t13 -45q0 -23 -13 -44t-47 -21t-48 17.5t-14 37.5q0 25 14.5 38t37.5 17q-11 14 -36.5 20.5t-59.5 6.5q-29 0 -51.5 -18.5t-22.5 -63.5v-153h300v-102q42 45 100.5 78.5t131.5 33.5q72 0 114.5 -34t42.5 -115v-484z" />
    <glyph glyph-name="u02AA" unicode="&#x2aa;" horiz-adv-x="783" 
d="M723 318l-37 -7q-9 81 -58.5 123.5t-134.5 42.5q-45 0 -77.5 -18t-32.5 -58q0 -37 26.5 -55.5t67 -29.5t87 -19t87 -24.5t67 -46.5t26.5 -84q0 -72 -48.5 -110t-142.5 -38q-48 0 -88.5 10.5t-70.5 35.5q-7 5 -15.5 10.5t-15.5 5.5q-8 0 -11 -4.5t-5 -15.5l-7 -36h-301v34
q88 0 88 45v613q0 45 -88 45v33h178v-691q0 -45 87 -45v170l36 6q5 -40 23.5 -72.5t46.5 -56t64 -36t76 -12.5q63 0 90.5 23.5t27.5 60.5q0 28 -15.5 45t-41 27.5t-58 17t-66.5 14t-66.5 17.5t-58 27.5t-41 44.5t-15.5 69q0 66 47 103t138 37q37 0 77.5 -12t65.5 -31
q8 -7 16.5 -12t16.5 -5q9 0 14 15l5 35h37v-191z" />
    <glyph glyph-name="u02AB" unicode="&#x2ab;" horiz-adv-x="699" 
d="M659 463l-383 -423h193q43 0 71 8t45 27.5t26 52t14 82.5l37 -6v-204h-623v34q88 0 88 45v613q0 45 -88 45v33h178v-261h442v-46zM554 469h-188q-68 0 -108.5 -31.5t-40.5 -109.5v-224z" />
    <glyph glyph-name="u02AC" unicode="&#x2ac;" horiz-adv-x="602" 
d="M562 711q-35 0 -41 -16l-89 -250h-53l-78 200l-82 -200h-53l-87 249q-6 17 -39 17v28h151v-28h-40q-11 0 -11 -5t2 -11l66 -191l79 191q1 2 1 7q0 9 -15 9h-33v28h150v-28h-43q-8 0 -8 -5q0 -4 6 -19l74 -185l67 192q1 2 1 6q0 11 -20 11h-27v28h122v-28zM562 263
q-35 0 -41 -16l-89 -250h-53l-78 200l-82 -200h-53l-87 249q-6 17 -39 17v28h151v-28h-40q-11 0 -11 -5t2 -11l66 -191l79 191q1 2 1 7q0 9 -15 9h-33v28h150v-28h-43q-8 0 -8 -5q0 -4 6 -19l74 -185l67 192q1 2 1 6q0 11 -20 11h-27v28h122v-28z" />
    <glyph glyph-name="u02AD" unicode="&#x2ad;" horiz-adv-x="626" 
d="M556 495l-37 -3q-5 46 -11 80.5t-19.5 57.5t-38 34t-65.5 11h-144q-37 0 -60.5 -10.5t-37.5 -32.5t-22 -56.5t-14 -83.5l-37 3v248h486v-248zM556 3l-37 -3q-5 46 -11 80.5t-19.5 57.5t-38 34t-65.5 11h-144q-37 0 -60.5 -10.5t-37.5 -32.5t-22 -56.5t-14 -83.5l-37 3
v248h486v-248z" />
    <glyph glyph-name="u02AE" unicode="&#x2ae;" horiz-adv-x="773" 
d="M184 424q0 32 -19 51t-51 19q-46 0 -70 -28q23 -4 38 -17t15 -37q0 -20 -15 -38t-48 -18q-17 0 -28.5 6t-18.5 15.5t-9.5 21t-2.5 22.5q0 21 8.5 40.5t26 34.5t44.5 24t64 9q69 0 112.5 -32.5t43.5 -92.5v-259q0 -63 18.5 -88t56.5 -25q29 0 59.5 12t58.5 31.5t51.5 45
t38.5 53.5v256q0 23 -19 34t-67 11v34h176v-667q0 -45 87 -45v-33h-177v338q-20 -23 -44 -43t-52 -35.5t-60 -24.5t-69 -9q-72 0 -110 34t-38 115v285z" />
    <glyph glyph-name="u02AF" unicode="&#x2af;" horiz-adv-x="808" 
d="M184 424q0 32 -19 51t-51 19q-46 0 -70 -28q23 -4 38 -17t15 -37q0 -20 -15 -38t-48 -18q-17 0 -28.5 6t-18.5 15.5t-9.5 21t-2.5 22.5q0 21 8.5 40.5t26 34.5t44.5 24t64 9q34 0 62.5 -8t49.5 -24t32.5 -38.5t11.5 -52.5v-261q0 -63 18.5 -88t56.5 -25q29 0 59.5 12
t58.5 31.5t51.5 45t38.5 53.5v256q0 23 -19 34t-67 11v34h176v-650q0 -29 16 -44.5t45 -15.5q14 0 29 4.5t27 18.5q-23 4 -38 17.5t-15 37.5q0 20 14.5 38t44.5 18q17 0 29 -6t19.5 -15.5t11 -21t3.5 -22.5q0 -49 -36 -76.5t-91 -27.5q-66 0 -107.5 28.5t-41.5 93.5v216
q-20 -23 -44 -43t-52 -35.5t-60 -24.5t-69 -9q-72 0 -110 34t-38 115v285z" />
    <glyph glyph-name="circumflex" unicode="&#x2c6;" horiz-adv-x="358" 
d="M281 572l-101 58l-105 -58l-38 30l143 116l142 -117z" />
    <glyph glyph-name="caron" unicode="&#x2c7;" horiz-adv-x="358" 
d="M178 572l-141 117l41 29l100 -59l105 59l39 -30z" />
    <glyph glyph-name="uni02C9" unicode="&#x2c9;" horiz-adv-x="426" 
d="M49 620zM380 620h-331v57h331v-57z" />
    <glyph glyph-name="breve" unicode="&#x2d8;" horiz-adv-x="482" 
d="M241 542q-50 0 -88 16.5t-64 42t-39.5 57t-14.5 60.5h57q2 -23 12 -45t28 -39.5t45.5 -28.5t63.5 -11t63.5 11t45.5 28.5t28 39.5t12 45h57q-2 -29 -15.5 -60.5t-39 -57t-63.5 -42t-88 -16.5z" />
    <glyph glyph-name="dotaccent" unicode="&#x2d9;" horiz-adv-x="204" 
d="M167 656q0 -26 -18.5 -44.5t-44.5 -18.5t-44.5 18.5t-18.5 44.5t18.5 44.5t44.5 18.5t44.5 -18.5t18.5 -44.5z" />
    <glyph glyph-name="ring" unicode="&#x2da;" horiz-adv-x="323" 
d="M160 682q-29 0 -47 -19.5t-18 -48.5q0 -33 18 -51t47 -18q27 0 46 18t19 51q0 29 -19 48.5t-46 19.5zM264 614q0 -21 -8 -40.5t-22.5 -33.5t-33.5 -22.5t-40 -8.5t-39.5 8.5t-32 22.5t-21.5 33.5t-8 40.5t8 40t21.5 33.5t32 22.5t39.5 8t40 -8t33.5 -22.5t22.5 -33.5
t8 -40z" />
    <glyph glyph-name="ogonek" unicode="&#x2db;" horiz-adv-x="273" 
d="M246 0l-147 -99q-20 -14 -26.5 -24.5t-5.5 -24.5q0 -17 14.5 -28t39.5 -11q31 0 62 14.5t63 37.5v-55q-17 -17 -49.5 -31.5t-80.5 -14.5q-18 0 -34.5 4t-29.5 12t-21 20t-8 29q0 26 15 45t47 40l132 86h29z" />
    <glyph glyph-name="tilde" unicode="&#x2dc;" horiz-adv-x="441" 
d="M405 683q-11 -45 -43 -70t-74 -25q-23 0 -41 8t-34.5 18t-32.5 18t-34 8q-39 0 -68 -50l-41 22q6 21 19 38.5t29.5 30t34.5 19t35 6.5q32 0 50.5 -8t32 -18t26.5 -18t34 -8q19 0 32.5 7.5t30.5 40.5z" />
    <glyph glyph-name="hungarumlaut" unicode="&#x2dd;" horiz-adv-x="409" 
d="M310 519h-52l25 199h90zM90 519h-52l25 199h90z" />
    <glyph glyph-name="tildecomb" unicode="&#x303;" horiz-adv-x="382" 
d="M288 527l-96 34l-101 -34l-32 21l133 82l131 -83zM321 703q-19 -58 -80 -58q-15 0 -28 3.5t-24.5 8t-22 8.5t-22.5 4q-29 0 -43 -23l-32 14q13 29 34.5 43.5t46.5 14.5q19 0 32 -4t23.5 -8.5t20.5 -8t24 -3.5q11 0 20 4.5t17 17.5z" />
    <glyph glyph-name="hookabovecomb" unicode="&#x309;" horiz-adv-x="288" 
d="M146 558h-41v43q44 5 59.5 14.5t15.5 32.5q0 20 -12 28.5t-29 8.5q-21 0 -34 -8t-23 -22l-23 22q9 15 31.5 28t51.5 13q42 0 64.5 -19.5t22.5 -53.5q0 -29 -23.5 -46.5t-59.5 -19.5v-21z" />
    <glyph glyph-name="dotbelowcomb" unicode="&#x323;" horiz-adv-x="204" 
d="M160 -173q0 -26 -18.5 -44.5t-44.5 -18.5t-44.5 18.5t-18.5 44.5t18.5 44.5t44.5 18.5t44.5 -18.5t18.5 -44.5z" />
    <glyph glyph-name="commaaccent" unicode="&#x326;" horiz-adv-x="168" 
d="M42 -209q23 10 32 21.5t9 25.5q0 13 -11 13q-50 0 -50 50q0 26 16.5 40t42.5 14q31 0 48.5 -18t17.5 -51q0 -45 -22 -73.5t-67 -48.5z" />
    <glyph glyph-name="u0370" unicode="&#x370;" horiz-adv-x="605" 
d="M568 365h-339v-284q0 -46 111 -46v-35h-303v35q89 0 89 46v581q0 46 -89 46v35h303v-35q-111 0 -111 -46v-247h339v-50z" />
    <glyph glyph-name="u0371" unicode="&#x371;" horiz-adv-x="483" 
d="M147 0v439q0 26 -13.5 35.5t-35.5 9.5t-33.5 -12.5t-11.5 -32.5v-68h-38v71q0 42 25.5 64.5t77.5 22.5q26 0 48 -5.5t37.5 -19t24.5 -37t9 -58.5v-129h209v-40h-209v-240h-90z" />
    <glyph glyph-name="u0372" unicode="&#x372;" horiz-adv-x="809" 
d="M773 437l-80 -3q0 78 -3 127.5t-15 77.5t-34.5 38.5t-61.5 10.5h-122v-607q0 -46 90 -46v-35h-282v35q89 0 89 46v607h-123q-39 0 -62 -10.5t-34.5 -38.5t-14.5 -77.5t-3 -127.5l-80 3v306h736v-306z" />
    <glyph glyph-name="u0373" unicode="&#x373;" horiz-adv-x="531" 
d="M35 509h461l-5 -58q-15 3 -39 5t-50.5 3.5t-53 2t-45.5 0.5v-699h-90v699h-178v47z" />
    <glyph glyph-name="u0374" unicode="&#x374;" horiz-adv-x="136" 
d="M0 507l43 224q2 17 19 11l63 -21q16 -4 7 -20l-98 -205z" />
    <glyph glyph-name="u0375" unicode="&#x375;" horiz-adv-x="136" 
d="M136 0l-43 -224q-2 -17 -19 -11l-63 21q-16 4 -7 20l98 205z" />
    <glyph glyph-name="u0376" unicode="&#x376;" horiz-adv-x="895" 
d="M37 0zM858 708q-90 0 -90 -46v-581q0 -46 90 -46v-35h-304v35q111 0 111 46v486l-436 -461v-25q0 -46 111 -46v-35h-303v35q89 0 89 46v581q0 46 -89 46v35h303v-35q-111 0 -111 -46v-486l436 461v25q0 46 -111 46v35h304v-35z" />
    <glyph glyph-name="u0377" unicode="&#x377;" horiz-adv-x="745" 
d="M103 -16v446q0 46 -88 46v33h178v-403l352 419h38v-442q0 -45 50 -45q24 0 34 13.5t10 31.5v68h38v-58q0 -22 -3.5 -40t-14.5 -31.5t-31 -21t-53 -7.5q-61 0 -90.5 31.5t-29.5 88.5v289l-352 -418h-38z" />
    <glyph glyph-name="u037A" unicode="&#x37a;" horiz-adv-x="212" 
d="M90 -147q0 -45 43 -45q20 0 30.5 13.5t10.5 31.5v68h38v-58q0 -44 -20 -71.5t-79 -27.5q-63 0 -88 28.5t-25 79.5v76h90v-95z" />
    <glyph glyph-name="u037B" unicode="&#x37b;" horiz-adv-x="547" 
d="M80 149q23 -57 64.5 -90.5t101.5 -33.5q34 0 65.5 13t56 41.5t39 73t14.5 108.5q0 114 -44.5 170t-132.5 56q-78 0 -120 -50t-42 -132l-39 8q0 41 11 80t36.5 69t68 48.5t104.5 18.5q54 0 100 -16t79 -48t51.5 -81t18.5 -116q0 -65 -19 -117.5t-53 -90t-81 -57.5
t-102 -20q-41 0 -75 12t-61 32.5t-46.5 48t-31.5 59.5z" />
    <glyph glyph-name="u037C" unicode="&#x37c;" horiz-adv-x="547" 
d="M512 135q-12 -32 -31.5 -59.5t-46.5 -48t-61 -32.5t-75 -12q-56 0 -102.5 16.5t-80.5 49.5t-53 82.5t-19 116.5q0 70 20 123t56 88t84.5 52.5t105.5 17.5q50 0 87 -14.5t61 -38t36 -54t12 -62.5q0 -11 -0.5 -23.5t-2.5 -23.5l-39 -8q1 6 1.5 14t0.5 14q0 76 -40.5 115
t-110.5 39q-180 0 -180 -226q0 -64 14.5 -108.5t39 -73t56 -41.5t65.5 -13q60 0 101.5 33.5t64.5 90.5zM373 265q0 -28 -19.5 -47.5t-47.5 -19.5t-47.5 19.5t-19.5 47.5t19.5 47.5t47.5 19.5t47.5 -19.5t19.5 -47.5z" />
    <glyph glyph-name="u037D" unicode="&#x37d;" horiz-adv-x="547" 
d="M43 0zM80 149q23 -57 64.5 -90.5t101.5 -33.5q34 0 65.5 13t56 41.5t39 73t14.5 108.5q0 114 -44.5 170t-132.5 56q-78 0 -120 -50t-42 -132l-39 8q0 41 11 80t36.5 69t68 48.5t104.5 18.5q54 0 100 -16t79 -48t51.5 -81t18.5 -116q0 -65 -19 -117.5t-53 -90t-81 -57.5
t-102 -20q-41 0 -75 12t-61 32.5t-46.5 48t-31.5 59.5zM321 266q0 -28 -19.5 -47.5t-47.5 -19.5t-47.5 19.5t-19.5 47.5t19.5 47.5t47.5 19.5t47.5 -19.5t19.5 -47.5z" />
    <glyph glyph-name="uni037E" unicode="&#x37e;" horiz-adv-x="324" 
d="M80 0zM80 -122q33 19 50.5 34.5t25.5 28.5t9.5 23.5t1.5 18.5q0 15 -14 15q-63 0 -63 52q0 66 68 66q86 0 86 -96q0 -57 -37.5 -98.5t-106.5 -75.5zM228 397q0 -28 -19.5 -47.5t-47.5 -19.5t-47.5 19.5t-19.5 47.5t19.5 47.5t47.5 19.5t47.5 -19.5t19.5 -47.5z" />
    <glyph glyph-name="u0384" unicode="&#x384;" horiz-adv-x="97" 
d="M32 572l-31 180q-3 17 15 17h67q16 0 13 -17l-29 -180h-35z" />
    <glyph glyph-name="u0385" unicode="&#x385;" horiz-adv-x="386" 
d="M386 656q0 -26 -18.5 -44.5t-44.5 -18.5t-44.5 18.5t-18.5 44.5t18.5 44.5t44.5 18.5t44.5 -18.5t18.5 -44.5zM126 656q0 -26 -18.5 -44.5t-44.5 -18.5t-44.5 18.5t-18.5 44.5t18.5 44.5t44.5 18.5t44.5 -18.5t18.5 -44.5zM176 572l-31 180q-3 17 15 17h67q16 0 13 -17
l-29 -180h-35z" />
    </font>
</defs>
</svg>
